<?xml version="1.0" encoding="UTF-8"?>
<svg width="90px" height="76px" viewBox="0 0 90 76" version="1.1" xmlns="http://www.w3.org/2000/svg" xmlns:xlink="http://www.w3.org/1999/xlink">
    <title>China@1.5x</title>
    <g id="UI-Designs" stroke="none" stroke-width="1" fill="none" fill-rule="evenodd">
        <g id="China">
            <path d="M0,27.417952 L0,27.195292 C0.070312,27.070292 0.17188,26.949202 0.19922,26.816382 C0.226563,26.683572 0.113282,26.460912 0.175782,26.406222 C0.550782,26.070282 0.722662,25.593722 1.011722,25.234322 C1.238282,24.949162 1.871102,24.999942 2.316422,24.871042 C2.460952,24.831979 2.667982,24.597602 2.687512,24.613232 C3.050792,24.972612 3.960912,24.265572 3.980512,25.265572 C3.980512,25.273385 4.019574,25.285104 4.039105,25.285104 C4.562545,25.308541 5.132905,25.468694 5.476605,24.874944 C5.804735,24.312444 6.207075,24.257754 6.793005,24.531194 C7.121125,24.683534 7.597695,24.714784 7.937505,24.601507 C8.570315,24.386667 9.128905,23.972597 9.757805,23.746037 C10.273435,23.562447 10.847605,23.535097 11.390605,23.429627 C11.43748,23.421814 11.472636,23.335877 11.499985,23.281187 C11.742175,22.820247 11.390605,22.081987 12.195295,21.859287 C12.394515,21.8046 12.542955,21.538977 12.710925,21.367097 C12.734362,21.343659 12.753893,21.308503 12.753893,21.277253 C12.749987,20.890533 12.730456,20.507723 12.734362,20.121053 C12.746081,19.566363 12.656237,18.972653 12.828112,18.472653 C12.980452,18.031243 12.769518,17.980463 12.527332,17.832023 C12.437488,17.777336 12.363272,17.703113 12.281242,17.636713 C12.402332,17.546869 12.523432,17.374993 12.648432,17.374993 C13.738232,17.363274 14.847632,17.121083 15.894532,17.656243 C16,17.710931 16.207032,17.777333 16.234372,17.742181 C16.386712,17.539061 16.531252,17.312491 16.199216,17.109371 C16.136716,17.074215 16.105466,16.878901 16.144528,16.800781 C16.652338,15.816411 17.171828,14.839881 17.695328,13.863281 C17.710954,13.832031 17.800798,13.804688 17.839858,13.824219 C18.425798,14.058599 19.066458,14.214839 19.578158,14.562499 C20.066438,14.894529 20.445348,14.812499 20.945358,14.683589 C21.375048,14.574209 21.476608,14.300779 21.425828,14.015619 C21.304738,13.343739 21.472703,12.757819 21.789108,12.199219 C21.855515,12.082029 22.070358,11.968749 22.199268,11.988279 C22.890678,12.085936 23.332068,11.777339 23.484468,11.085939 C23.511812,10.964849 23.675878,10.789059 23.785248,10.785159 C24.101658,10.769533 24.425868,10.812502 24.742278,10.855471 C24.820402,10.86719 24.957118,10.980471 24.949308,11.011721 C24.796968,11.519531 25.007901,11.933601 25.289148,12.316421 C25.519618,12.632831 25.765708,12.941421 26.039148,13.218761 C26.191488,13.375011 26.406338,13.476571 26.605558,13.574231 C26.988368,13.761731 27.550868,13.828141 27.734458,14.128921 C28.183678,14.867201 28.484458,15.703121 28.793058,16.519521 C28.859464,16.695301 28.703214,16.957021 28.644618,17.175771 C28.625087,17.242178 28.535238,17.324211 28.554775,17.363271 C28.796965,17.914051 28.375085,18.234361 28.156335,18.644471 C27.988365,18.956971 27.839925,19.445251 28.308675,19.613221 C29.082115,19.890561 29.898475,20.050721 30.695375,20.261661 C31.273505,20.410101 31.878975,20.351505 32.410175,20.820251 C33.023455,21.359311 33.796875,21.722591 34.503975,22.160051 C34.535225,22.179582 34.5821,22.187394 34.589913,22.214738 C34.777413,22.675678 35.011793,23.124898 35.132883,23.605338 C35.425853,24.761538 35.996163,25.589738 37.293083,25.695138 C37.578243,25.718575 37.863393,25.757638 38.148553,25.784982 C39.023553,25.863106 39.894653,25.960762 40.769653,26.007642 C41.320433,26.038892 41.890753,25.906082 42.425853,26.011548 C43.242263,26.171708 44.234453,25.952954 44.765653,26.894358 C44.785184,26.933421 44.871123,26.937327 44.929713,26.949046 C45.753933,27.163886 46.566413,27.413886 47.402413,27.570136 C47.855533,27.656073 48.320383,27.519354 48.738313,27.917796 C48.847693,28.023266 49.406283,27.679516 49.746113,27.515456 C50.714863,27.046706 51.648413,26.492056 52.648413,26.113156 C53.167943,25.917846 53.800713,26.003786 54.382813,25.992066 C55.761713,25.964722 56.945313,25.578006 57.750013,24.343666 C57.972673,24.003826 58.339853,23.738196 58.687513,23.515546 C59.324233,23.109296 59.390633,22.874926 58.925793,22.312446 C58.792983,22.152286 58.660173,21.996036 58.535173,21.831976 C58.496111,21.777289 58.453142,21.691356 58.468767,21.640566 C58.625017,21.179626 58.796887,20.722596 58.972677,20.269466 C58.988302,20.23431 59.082057,20.195248 59.128927,20.206966 C59.574237,20.300716 60.011737,20.433526 60.460927,20.492126 C60.863267,20.542907 61.335927,20.632746 61.667927,20.472595 C62.066367,20.285095 62.460897,19.906185 62.652307,19.511655 C62.910117,18.984315 63.312467,18.968685 63.757807,18.917905 C63.890617,18.90228 64.070307,18.93353 64.144527,18.855405 C64.484367,18.503845 64.808587,18.136655 65.105467,17.749905 C65.406247,17.359285 65.597657,16.863185 65.957027,16.554605 C66.277337,16.277265 66.832027,16.269445 67.164027,15.996015 C67.710907,15.542895 68.277327,15.453045 68.953127,15.492105 C69.292967,15.511636 69.644537,15.285075 69.992227,15.167885 C69.824257,14.843665 69.730507,14.429605 69.472697,14.210855 C68.996137,13.812415 68.425797,13.523355 67.890697,13.195255 C67.257887,12.808535 66.660197,12.984315 66.300897,13.636665 C66.261835,13.706977 66.105587,13.734321 65.996207,13.742135 C65.472767,13.785104 64.898507,13.699166 64.437607,13.890575 C64.156357,14.007765 63.988387,14.109325 63.816517,13.871044 C63.625107,13.601514 63.226677,13.316354 63.726673,12.945264 C63.812611,12.882764 63.812611,12.695264 63.836053,12.562454 C63.906365,12.148394 63.941523,11.726514 64.043083,11.320254 C64.175893,10.792914 64.347773,10.269454 64.543083,9.761654 C64.582145,9.660094 64.828243,9.538994 64.929803,9.574154 C65.507923,9.769464 66.058703,10.007744 66.621203,9.51556 C66.988393,9.19525 67.421983,8.95306 67.781403,8.62494 C67.914213,8.50385 67.961093,8.24603 67.976713,8.04682 C67.992339,7.78901 67.890776,7.51557 67.922026,7.26166 C67.968901,6.914 68.066556,6.56635 68.191556,6.23436 C68.429836,5.60155 68.769676,5.00386 68.933746,4.35546 C69.043126,3.91796 68.941558,3.41796 68.863433,2.95706 C68.851714,2.886748 68.441553,2.89456 68.222813,2.85159 C68.172032,2.839871 68.086093,2.753934 68.090003,2.74221 C68.297033,2.32815 68.511883,1.91409 68.730623,1.50391 C68.781404,1.414066 68.851713,1.3125 68.941563,1.26953 C69.375153,1.05078 69.808753,0.82812 70.257963,0.64844 C70.847803,0.41406 71.453263,0.21485 72.050963,0 L72.230653,0 C72.914243,0.14062 73.527553,0.73047 74.300953,0.31641 C74.347828,0.292972 74.449393,0.332034 74.504073,0.371097 C75.078293,0.781257 75.668173,1.179687 76.211073,1.628897 C76.418103,1.800767 76.519663,2.101557 76.664193,2.347647 C77.050913,3.011707 77.425913,3.683547 77.820393,4.343747 C78.207113,4.992187 78.582113,5.656247 79.031293,6.265647 C79.253953,6.566427 79.593793,6.851587 79.937543,6.968767 C80.148483,7.03908 80.566453,6.613297 80.730513,6.703147 C81.406293,7.078147 82.300813,6.71096 82.867213,7.378927 C82.933619,7.457051 83.082053,7.566427 83.144553,7.539087 C83.910173,7.238307 83.796893,8.066427 84.125023,8.316427 C84.257833,8.417987 84.253933,8.695337 84.312523,8.890647 C84.335961,8.968772 84.339867,9.082057 84.398461,9.125027 C84.632831,9.296907 84.863301,9.527367 85.125021,9.574247 C85.378931,9.621122 85.675801,9.480497 85.945331,9.394557 C86.476581,9.214867 87.046931,9.117217 87.257831,8.433617 C87.324238,8.210957 87.671891,8.074237 87.894551,7.902367 C87.964864,7.84768 88.066431,7.828148 88.132831,7.769557 C88.398461,7.519557 88.636741,7.230497 88.929711,7.015647 C89.058621,6.921897 89.308621,6.941429 89.484401,6.980491 C89.554714,6.996116 89.578151,7.210961 89.621121,7.335961 C89.683621,7.507841 89.761741,7.671901 89.816431,7.843771 C89.878931,8.042991 90.039091,8.343771 89.960961,8.437521 C89.511741,8.980491 89.644551,9.582021 89.664081,10.191421 C89.683613,10.753921 89.691425,11.324221 89.632831,11.882821 C89.578144,12.390631 89.285171,12.906221 89.347671,13.386721 C89.441421,14.078131 89.230481,14.269531 88.605481,14.203131 C88.527356,14.195319 88.445321,14.21485 88.363291,14.218756 C87.921881,14.238287 87.410171,14.066416 87.261691,14.753916 C87.222628,14.945326 86.953101,15.082036 86.792941,15.250006 C86.753878,15.289069 86.691381,15.359386 86.703097,15.382816 C87.152317,16.167976 87.574187,16.937516 87.726497,17.871116 C87.824154,18.457056 87.831967,19.121116 87.328057,19.531316 C87.230401,19.613347 87.167897,19.750066 87.117117,19.871156 C87.097585,19.918031 87.167898,20.000066 87.195241,20.066466 C87.050711,20.031309 86.890551,20.01959 86.765551,19.945376 C86.671801,19.890688 86.648361,19.722716 86.554611,19.668036 C86.449141,19.605536 86.304611,19.589911 86.175701,19.597724 C86.132732,19.60163 86.085858,19.730534 86.062421,19.808664 C85.945231,20.214914 86.351481,20.855564 85.554611,20.968864 C85.535079,20.972771 85.511642,21.043083 85.511642,21.082144 C85.492111,21.726674 84.999922,21.914174 84.511642,22.058704 C83.863202,22.250114 83.851482,22.285264 84.277262,22.812614 C84.386642,22.945424 84.35148,23.195424 84.386642,23.386834 C83.820232,23.379022 83.234342,23.796994 82.683542,23.316522 C82.60151,23.246209 82.414012,23.168082 82.371042,23.203242 C82.199162,23.347772 82.027292,23.519652 81.921822,23.714962 C81.609322,24.296992 81.437442,24.988362 81.015572,25.468862 C80.363232,26.211052 79.464772,26.742262 79.234372,27.812662 C79.210935,27.922042 78.992182,28.000162 78.847652,28.066572 C78.335932,28.304852 77.730452,28.429852 77.316452,28.781412 C76.476612,29.488442 75.738352,30.316612 74.953152,31.093912 C74.906277,31.140787 74.816432,31.140787 74.750032,31.160319 C74.726594,31.078287 74.656282,30.957189 74.687532,30.918129 C74.843782,30.722819 75.050812,30.570469 75.191442,30.367349 C75.308632,30.203289 75.359412,29.992349 75.437532,29.804849 C75.441438,29.797036 75.402376,29.769692 75.382844,29.765786 C74.835974,29.660316 74.777374,29.632976 74.875034,29.218906 C74.937534,28.961096 75.140654,28.738436 75.265654,28.496246 C75.457064,28.121246 75.671904,27.750156 75.800814,27.355646 C75.832064,27.265802 75.570344,27.050956 75.414094,26.933766 C75.242224,26.804856 75.007844,26.597826 74.851594,26.636886 C74.312534,26.765796 73.722694,26.863446 73.519594,27.535326 C73.425844,27.851736 73.328184,28.211106 73.117254,28.441576 C72.738344,28.851736 72.226624,29.140796 71.855554,29.558776 C71.589934,29.855656 71.464934,30.281436 71.265714,30.640776 C71.199308,30.757966 71.121184,30.914216 71.011804,30.961086 C70.722744,31.078276 70.406334,31.132966 70.109464,31.230616 C69.839934,31.316554 69.453214,31.347806 69.339934,31.535306 C68.988374,32.105616 69.211024,32.668106 69.910244,33.230606 C69.996182,33.300918 70.160244,33.386856 70.234464,33.351696 C70.941494,33.019666 71.699264,33.44154 71.769664,34.214976 C71.785289,34.394666 71.832164,34.687636 71.937634,34.722786 C72.265754,34.836066 72.738414,35.011846 72.953234,34.867316 C73.296984,34.632936 73.546984,34.187626 73.722764,33.785316 C74.011824,33.101726 74.441514,32.945476 75.097764,33.297036 C75.492294,33.507976 75.906354,33.754066 76.414164,33.429846 C76.644634,33.281406 77.144634,33.211096 77.293074,33.347815 C77.507914,33.547035 77.515734,33.968905 77.597764,34.300935 C77.609483,34.351717 77.566514,34.437655 77.523546,34.472815 C77.449327,34.531408 77.308706,34.621255 77.269636,34.593905 C76.925886,34.355625 76.718856,34.496249 76.453226,34.757965 C76.117286,35.086085 75.699316,35.328275 75.347726,35.640775 C75.195386,35.777495 75.019606,35.992335 75.015696,36.175935 C75.003977,36.711095 74.828196,36.863435 74.316476,36.664215 C74.265695,36.644683 74.199286,36.668121 74.140696,36.668121 C74.152415,36.718902 74.171946,36.765777 74.171946,36.816561 C74.171946,36.937651 74.207102,37.082181 74.152415,37.172031 C73.972725,37.461091 73.726635,37.715001 73.562575,38.015781 C73.347735,38.406401 73.171955,38.820471 73.011795,39.238481 C72.968826,39.347861 73.000076,39.582231 73.074295,39.621291 C73.378985,39.789261 73.703205,39.961131 74.039135,40.031451 C74.726635,40.175981 75.234435,40.496291 75.476635,41.179851 C75.539135,41.359541 75.671945,41.511881 75.753975,41.683761 C76.027415,42.250171 76.199285,42.898561 76.589915,43.363461 C76.906325,43.742371 77.582105,43.703301 77.890715,44.273621 C78.062595,44.593931 78.511805,44.765811 78.824305,45.015811 C78.882898,45.062686 78.929775,45.211121 78.90243,45.250191 C78.851648,45.316598 78.72665,45.383001 78.64852,45.367381 C78.07821,45.261911 77.50792,45.136911 76.94152,45.004101 C76.875114,44.988475 76.82433,44.855661 76.76574,44.855661 C76.4923,44.855661 76.21496,44.886911 75.94152,44.906442 C75.949333,44.937692 75.953239,44.972849 75.961052,45.004099 C76.293082,44.797069 76.492302,44.879099 76.828242,45.140819 C77.300902,45.508009 77.968842,45.613479 78.511842,45.906439 C78.691532,46.004096 78.894652,46.476749 78.839962,46.531439 C78.230582,47.136909 77.761862,47.933739 76.839962,48.160339 C76.714962,48.191589 76.605582,48.265809 76.488402,48.324399 C76.484496,48.324399 76.507933,48.394711 76.519652,48.394711 C76.875122,48.40643 77.359492,48.562681 77.566552,48.390805 C78.031392,48.007995 78.367332,47.953305 78.785352,48.379087 C79.027542,48.625177 79.234572,48.629087 79.371292,48.250177 C79.398636,48.175958 79.562702,48.078297 79.629102,48.097837 C79.820512,48.160337 79.996292,48.273617 80.168162,48.386897 C80.191599,48.402522 80.183787,48.550957 80.144724,48.574397 C79.933784,48.718927 79.711134,48.843927 79.492384,48.972837 C79.425977,49.074397 79.351754,49.175957 79.289254,49.281427 C79.265817,49.32049 79.265817,49.375177 79.254098,49.425957 C79.293161,49.414239 79.363478,49.414239 79.371288,49.390801 C79.418163,49.254081 79.453319,49.113461 79.492378,48.976741 C79.523628,49.082211 79.593938,49.195491 79.582221,49.297051 C79.535346,49.773611 79.480661,50.246271 79.398631,50.718951 C79.359568,50.937701 79.129101,51.222861 79.203321,51.336141 C79.480661,51.758021 79.480661,52.070521 79.050981,52.359541 C78.996294,52.394697 78.961138,52.453291 78.918171,52.504071 C78.89864,52.437664 78.883014,52.371261 78.855671,52.308761 C78.828327,52.242355 78.785358,52.175951 78.750201,52.109541 C78.683795,52.18376 78.590041,52.250161 78.558791,52.336101 C78.508009,52.476721 78.515822,52.636881 78.468947,52.777511 C78.332227,53.187671 78.179887,53.590011 78.031447,53.996311 C77.968947,54.172091 77.922067,54.363501 77.820507,54.515841 C77.582227,54.879121 77.312697,55.226781 77.058787,55.582241 C77.039255,55.609585 77.058787,55.672085 77.039255,55.687711 C76.984568,55.726774 76.922065,55.765836 76.855665,55.781461 C76.769727,55.800992 76.672075,55.777555 76.593945,55.808805 C76.566601,55.820524 76.566601,55.996305 76.601757,56.015835 C76.961137,56.226775 76.929887,56.461145 76.793167,56.828335 C76.672077,57.156455 76.675977,57.590055 76.769729,57.929935 C76.914259,58.449465 76.832229,58.562745 76.340039,58.340095 C76.258007,58.738535 76.148629,59.101815 75.902539,59.461195 C75.800979,59.609635 75.836133,59.812755 75.562699,59.808855 C75.508011,59.808855 75.453319,59.832292 75.402539,59.844011 C75.429883,59.898699 75.461133,59.953391 75.488476,60.011981 C75.519726,60.078387 75.590036,60.176041 75.570507,60.211201 C75.496289,60.320581 75.390817,60.476821 75.285347,60.488541 C74.687687,60.551041 74.449407,60.785421 74.500187,61.301041 C74.504093,61.351823 74.453312,61.418231 74.410343,61.461201 C74.242373,61.636981 74.050963,61.793231 73.906433,61.988541 C73.773623,62.164321 73.695493,62.375261 73.590023,62.570571 C73.590023,62.574477 73.574398,62.566665 73.570491,62.566665 C73.355651,62.679945 73.140801,62.789325 72.933771,62.910415 C72.894708,62.933852 72.886896,63.011975 72.859552,63.058855 C72.800958,63.164325 72.765802,63.297135 72.679862,63.371355 C72.570482,63.469011 72.129082,63.281511 72.418142,63.707295 C72.422048,63.715108 72.363454,63.761983 72.340017,63.793233 C72.234547,63.949483 72.132987,64.105733 72.031427,64.265893 C72.004083,64.312768 71.976739,64.402613 71.957208,64.398703 C71.375178,64.332296 71.039238,65.195583 70.375208,64.812763 C70.359583,64.804951 70.304896,64.840107 70.293177,64.863544 C70.191617,65.094014 70.218958,65.691674 69.804897,65.035424 C69.793178,65.015892 69.726771,65.011986 69.703337,65.027611 C69.508027,65.164331 69.324427,65.316671 69.125217,65.445581 C69.031467,65.508081 68.914277,65.543237 68.804907,65.570581 C68.781469,65.578393 68.730688,65.504175 68.699437,65.465111 C68.660374,65.410424 68.63303,65.351831 68.597877,65.293231 C68.523659,65.36745 68.453347,65.449481 68.371317,65.519791 C68.301004,65.578385 68.222877,65.633071 68.140847,65.668231 C68.051003,65.703387 67.949437,65.7112 67.851787,65.730731 C67.867413,65.765887 67.898663,65.797137 67.898663,65.832291 C67.910381,65.972921 67.910381,66.113541 67.914287,66.254171 C67.832256,66.250264 67.718977,66.277608 67.672097,66.234639 C67.558817,66.133079 67.140847,66.402609 67.308817,65.949479 C67.312723,65.93776 67.261942,65.910417 67.238504,65.890885 C67.097884,65.789325 66.965064,65.676045 66.820534,65.586195 C66.691624,65.504164 66.551004,65.441665 66.418194,65.371355 C66.406475,65.422136 66.375225,65.480735 66.386944,65.523695 C66.449444,65.765885 66.543194,66.000255 66.578354,66.246355 C66.597885,66.367445 66.547104,66.531515 66.465074,66.625265 C66.363514,66.746355 66.211164,66.844015 66.062734,66.910425 C65.968984,66.949487 65.840074,66.926049 65.730704,66.906518 C65.676016,66.894799 65.636954,66.828393 65.590084,66.785428 C65.570552,66.816678 65.53149,66.851834 65.535396,66.875271 C65.621334,67.273711 65.504146,67.488551 65.062736,67.551051 C64.668206,67.605739 64.293206,67.761991 63.906536,67.867461 C63.789346,67.898711 63.648726,67.883086 63.547156,67.937773 C63.195596,68.129183 62.863566,68.355743 62.511956,68.539333 C62.258046,68.668243 61.968986,68.722923 61.722896,68.859643 C61.277586,69.105733 60.840086,69.383083 60.418196,69.672143 C60.347883,69.719018 60.312726,69.926053 60.355696,70.008083 C60.468976,70.215113 60.605696,70.433863 60.789286,70.578393 C61.140846,70.859643 61.004126,71.097923 60.72288,71.238553 C60.50804,71.344023 60.22679,71.312772 59.97288,71.316679 C59.945536,71.316679 59.914286,71.168239 59.883036,71.090119 C59.855693,71.027619 59.824443,70.969029 59.793193,70.906529 C59.633033,70.594029 59.406473,70.293249 59.332253,69.961219 C59.281472,69.734659 59.394753,69.433879 59.523663,69.219029 C59.699443,68.922149 59.750223,68.722939 59.324443,68.824499 C59.168193,68.859655 58.894753,68.047159 58.871323,68.87528 C58.871323,68.879187 58.840073,68.894811 58.83226,68.890905 C58.59788,68.765905 58.21507,69.398715 58.07445,68.746375 C58.066637,68.711219 57.95336,68.707312 57.89867,68.676062 C57.66039,68.547152 57.4182,68.422152 57.18773,68.285442 C57.121324,68.246379 57.07835,68.172162 57.02757,68.109662 C56.992414,68.183881 56.96507,68.269822 56.91429,68.332322 C56.75804,68.515912 56.61351,68.808882 56.4221,68.844042 C55.97679,68.92998 55.51194,68.887011 55.051,68.894823 C54.996313,68.894823 54.93381,68.871386 54.88694,68.840136 C54.50413,68.625296 54.08225,68.457326 53.75414,68.179976 C53.49633,67.961226 53.31664,67.621386 53.18383,67.301066 C53.136955,67.191696 53.34789,66.984656 53.41039,66.812786 C53.453359,66.695596 53.468984,66.457316 53.445546,66.449506 C53.054926,66.336226 52.625236,66.109666 52.269746,66.191696 C51.695526,66.324506 51.394746,65.992476 51.015846,65.742476 C50.894756,65.664351 50.711156,65.480756 50.672096,65.512006 C50.383036,65.711226 50.136936,65.976846 49.851786,66.183886 C49.527566,66.414356 49.086166,66.844046 48.851786,66.762006 C48.402566,66.597946 48.410376,66.883096 48.250226,67.062786 C48.199445,67.12138 48.054916,67.140911 47.976786,67.113567 C47.777566,67.043255 47.636946,66.449507 47.371316,67.05888 C47.36741,67.070599 47.27366,67.066693 47.265846,67.051067 C47.008036,66.519817 46.816626,66.910447 46.652566,67.109661 C46.426006,67.387001 46.273656,67.457321 45.980686,67.144817 C45.773656,66.926067 45.453346,66.590127 45.117406,67.133099 C45.000216,67.324509 44.640846,67.445599 44.383026,67.461219 C43.605686,67.512 43.492406,67.652629 43.777556,68.422159 C43.843962,68.601849 43.965056,68.781539 43.965056,68.961219 C43.972868,69.320599 43.914274,69.679969 43.883024,70.043219 C43.558804,69.836189 43.004114,70.261969 42.824424,69.558839 C42.629114,68.797119 42.508014,68.832279 41.851764,69.308839 C41.629104,69.468999 41.187704,69.582279 40.996294,69.468999 C40.738484,69.316659 40.472854,68.914309 40.480674,68.629159 C40.492393,68.207279 40.308794,68.156499 40.015834,68.113529 C39.797084,68.082279 39.574424,68.078373 39.367394,68.015873 C39.246304,67.980717 39.039264,67.828373 39.050984,67.785403 C39.207234,67.289313 39.406454,66.804933 39.582234,66.316603 C39.613484,66.226759 39.636922,66.113473 39.601765,66.035353 C39.578328,65.980665 39.457235,65.961134 39.375205,65.941603 C39.156455,65.890821 38.824425,65.925977 38.734585,65.793163 C38.554895,65.527543 38.468965,65.179883 38.418175,64.851753 C38.3713,64.547063 37.925985,64.258003 38.355675,63.922063 C38.3713,63.910345 38.359581,63.863469 38.359581,63.832219 C37.797081,63.890813 37.187681,63.461129 36.668181,64.023629 C36.562711,64.136909 36.332241,64.140819 36.160371,64.199409 C36.14084,64.129097 36.082246,64.027529 36.10959,63.996289 C36.39475,63.617379 36.27365,63.277539 36.133027,62.875189 C36.070527,62.695499 36.468967,62.390809 36.457247,62.152529 C36.410372,61.297059 37.199437,61.191589 37.613447,60.754129 C37.800947,60.554909 38.090007,60.410379 38.183757,60.179909 C38.328287,59.824439 38.382977,59.422099 38.406417,59.035409 C38.445479,58.312749 38.445479,57.586209 38.429855,56.859609 C38.425948,56.754139 38.242355,56.648669 38.129075,56.562729 C38.101731,56.543198 38.011885,56.621323 37.949385,56.636948 C37.90251,56.648667 37.816575,56.640854 37.804855,56.61351 C37.668135,56.31664 37.574385,56.00414 37.410325,55.72289 C37.250165,55.44555 37.043135,55.19555 36.832205,54.95336 C36.410325,54.47289 36.273615,55.023673 36.031425,55.18383 C35.996269,55.207267 35.933769,55.21508 35.890805,55.207267 C34.664205,55.031487 33.437705,54.843987 32.211105,54.676017 C31.535325,54.582267 30.832205,54.379147 30.183805,54.484607 C29.336145,54.621327 28.519705,54.988517 27.711105,55.312727 C27.062665,55.574447 26.445505,55.656477 25.800905,55.359602 C25.394655,55.172102 24.992315,54.980692 24.586105,54.789292 C24.242355,54.625232 23.914225,54.426012 23.554905,54.304912 C23.234595,54.195532 22.808815,54.027572 22.562715,54.148662 C22.004125,54.429912 21.527515,54.875222 21.011915,55.250262 C20.875195,55.351822 20.722855,55.433852 20.578325,55.523702 C20.582231,55.324482 20.574419,55.125262 20.586138,54.926042 C20.590044,54.85573 20.679888,54.781512 20.664262,54.726822 C20.621294,54.539322 20.558792,54.203382 20.484572,54.195572 C20.148632,54.168228 19.793162,54.191666 19.468972,54.273697 C18.777562,54.449477 17.941672,54.582287 17.523672,54.070577 C17.019762,53.461197 16.234572,54.070577 15.867472,53.437767 C15.867472,53.437767 15.812784,53.457298 15.797159,53.47683 C15.570599,53.77761 15.543249,53.547142 15.469039,53.36745 C15.422164,53.26198 15.320599,53.17995 15.246379,53.0862 C14.937789,52.69167 13.984679,52.91042 14.219079,52.0042 C14.156579,51.996387 14.090169,51.996387 14.035489,51.97295 C13.691739,51.82842 13.359709,51.66045 13.012089,51.53936 C12.492559,51.35577 12.617559,50.96514 12.644899,50.58233 C12.652712,50.48858 12.527709,50.3753 12.441779,50.29327 C12.426154,50.277645 12.277719,50.351864 12.242559,50.41046 C12.058969,50.73077 11.848029,50.7464 11.672249,50.433897 C11.515999,50.148737 11.500369,49.742487 11.285529,49.531557 C10.640999,48.894837 9.848029,48.394857 9.266029,47.711257 C8.746499,47.101877 8.469149,47.535477 8.086329,47.765944 C8.031641,47.797194 7.910549,47.812819 7.883199,47.781569 C7.527729,47.375319 7.180079,46.961259 6.836299,46.539369 C6.570669,46.215149 6.363639,45.836249 6.055049,45.566709 C5.598019,45.164369 5.062859,44.851869 4.586249,44.472909 C4.480779,44.386971 4.426089,44.156499 4.445619,44.008069 C4.531557,43.445569 4.652649,42.902569 4.387026,42.340069 C4.312807,42.183819 4.457338,41.926009 4.500306,41.715069 C4.679996,41.843979 4.855776,41.965069 5.031556,42.097879 C5.086244,42.136941 5.144836,42.250219 5.176086,42.238499 C5.426086,42.172093 5.867496,42.117409 5.887026,42.000219 C5.988586,41.414279 6.242496,40.758019 5.601866,40.281419 C5.562804,40.250169 5.523742,40.172039 5.53546,40.129079 C5.67608,39.550949 5.574523,38.855679 6.30108,38.558779 C6.347955,38.539248 6.39483,38.398619 6.371393,38.347839 C5.953423,37.523619 5.523733,36.707239 5.090193,35.890839 C5.058943,35.828339 4.992537,35.754119 4.930033,35.742399 C4.148783,35.562709 3.437833,35.261929 2.918333,34.613499 C2.844114,34.519749 2.672243,34.500219 2.605833,34.406469 C2.433953,34.152559 2.156613,33.871309 2.168333,33.613499 C2.199583,33.078339 2.445673,32.539299 1.723023,32.265799 C1.660523,32.242362 1.652711,32.109549 1.594113,32.050959 C1.465203,31.918149 1.336303,31.781429 1.183953,31.687679 C0.984733,31.570489 0.742543,31.519709 0.555043,31.386899 C0.437853,31.300961 0.390983,31.121279 0.308953,30.980649 C0.430043,30.953305 0.562863,30.879089 0.676143,30.902524 C1.238643,31.004084 1.441763,30.816587 1.390983,30.226744 C1.348014,29.738464 1.437858,29.238464 1.469108,28.746244 C1.47692,28.632964 1.547233,28.441554 1.50817,28.418124 C1.20739,28.230624 0.84411,27.898594 0.57848,27.957184 C0.21129,28.03531 0.12145,28.031403 0.11364,27.672024 C0.078484,27.58218 0.027703,27.500144 0,27.418114 L0,27.417952 Z" id="Path" fill="#D8D8E2" fill-rule="nonzero"></path>
            <circle id="Oval-Copy" fill="#63ADEC" cx="78" cy="48" r="4"></circle>
            <path d="M59.3518,75.789952 C59.2268,75.735264 59.1018,75.633702 58.98071,75.633702 C58.15259,75.629796 57.73851,75.329012 57.53151,74.536002 C57.31276,73.703972 57.613541,73.157102 58.43776,72.856302 C58.476822,72.840677 58.488541,72.711772 58.492448,72.633642 C58.496354,72.567236 58.441666,72.469582 58.46901,72.434422 C58.53151,72.364109 58.62917,72.328952 58.7151,72.282082 C58.86354,72.203957 59.01198,72.129742 59.16432,72.055522 C59.230727,72.024272 59.29713,71.989115 59.36354,71.973491 C60.12916,71.801611 60.89474,71.629741 61.66044,71.461771 C61.715128,71.450052 61.8206,71.453958 61.8245,71.465677 C61.890906,71.832867 62.0745,72.235207 61.98466,72.563377 C61.81278,73.192287 61.49638,73.786077 61.21904,74.383677 C61.160446,74.504767 61.01982,74.594617 60.91045,74.688367 C60.84795,74.743055 60.74248,74.754774 60.69561,74.813367 C60.48858,75.082897 60.33624,75.375867 59.91045,75.387587 C59.77764,75.391493 59.65264,75.645397 59.52764,75.786027 C59.469046,75.789952 59.41045,75.789952 59.35186,75.789952 L59.3518,75.789952 Z" id="Path" fill="#D8D8E2" fill-rule="nonzero"></path>
        </g>
    </g>
</svg>