<?xml version="1.0" encoding="UTF-8"?>
<svg width="58px" height="78px" viewBox="0 0 58 78" version="1.1" xmlns="http://www.w3.org/2000/svg" xmlns:xlink="http://www.w3.org/1999/xlink">
    <title>np_germany_3947720_000000</title>
    <g id="UI-Designs" stroke="none" stroke-width="1" fill="none" fill-rule="evenodd">
        <g id="np_germany_3947720_000000" transform="translate(0.000000, 0.757064)">
            <path d="M57.1447359,35.4066162 C56.9025459,35.0394262 56.8009859,34.5941162 56.8556759,34.1566162 C56.8791129,33.8792762 56.6837959,33.6292762 56.4064559,33.5823962 C56.0666159,33.4573962 55.7384859,33.3050562 55.4181759,33.1331762 C55.1681759,33.0198962 55.1291159,32.8441162 55.2931759,32.6722362 C55.7072359,32.2464562 55.5197359,31.9339562 55.1564559,31.6097362 C55.0353659,31.4808262 54.9259859,31.3441162 54.8322359,31.1956762 C54.3830159,30.6566162 54.3556759,30.3714562 54.7697359,29.8089762 C55.0470759,29.4964762 55.1525459,29.0628862 55.0431759,28.6566762 C55.0197379,28.6058942 55.0197379,28.5472962 55.0431759,28.4965162 C55.4298959,28.1215162 55.1447359,27.8207362 54.9181759,27.5590162 C54.7502059,27.3832362 54.7150459,27.1215162 54.8322379,26.9066762 C55.1056779,26.3324562 55.0431779,26.1957362 54.5197379,25.8207762 C53.9220779,25.3949962 53.7580179,24.5824762 54.1447379,23.9574762 C54.2072379,23.8246662 54.2345819,23.6801362 54.2306759,23.5316962 C54.2462999,23.3207562 54.2462999,23.1098162 54.2306759,22.8949762 L54.3673959,22.7699762 C54.1056759,22.6449762 53.7423959,22.5941962 53.5783359,22.3832562 L53.5822419,22.3832562 C53.1564619,21.8949762 52.6603619,21.4730962 52.1056419,21.1332562 C51.7697019,20.8754462 51.4493919,20.6020062 51.1447019,20.3090362 C51.1876709,20.0473162 51.1876709,19.7816962 51.1447019,19.5199762 C51.0157919,19.2660662 51.1056399,18.9574762 51.3439219,18.8090362 L51.8556419,18.4457562 C52.2228319,18.1879462 52.4220519,17.7543462 52.3829819,17.3090562 C52.4064199,16.9848362 52.4454819,16.6645262 52.5079819,16.3442162 C52.5704819,16.1371862 52.5704819,15.9145262 52.5079819,15.7074962 C52.1720419,15.0942162 52.5079819,14.2933962 51.9845419,13.7465962 L51.9845419,13.6723772 C51.9845419,13.3208172 51.9845419,12.9848772 51.8829819,12.6489772 L51.8829819,12.6450712 C51.8165759,12.2349112 51.6642319,11.8442912 51.4337619,11.4966712 C51.2579819,11.2076112 51.1603219,11.0826112 50.8829819,11.2583912 C50.5782919,11.4537012 50.1837619,11.4263612 49.9064219,11.1958912 L48.9064219,10.5708912 C48.6329819,10.4068312 48.5431419,10.1958912 48.7189219,9.93417116 C48.8947019,9.67245116 48.8439219,9.24667116 48.5197019,8.95761116 C48.1954819,8.66855116 48.1954819,8.57089116 48.2462619,8.44589116 C48.4337619,7.89511116 47.9728219,7.69589116 47.8478219,7.45761116 L46.6837219,7.66855116 L45.8321619,7.24277116 L45.8321619,7.24667716 C45.7188819,7.17636516 45.6095019,7.09433716 45.5079419,7.00839716 C45.2774719,6.80527716 45.0196619,6.63339716 44.7462219,6.49667716 C44.3868519,6.39120716 44.1329419,6.07870716 44.1056019,5.70761716 C44.0821639,5.48105716 44.0313829,5.25839716 43.9571619,5.04745716 C43.8438819,4.69589716 43.6212219,4.64901716 43.3438819,4.89901716 L43.3438819,4.89511116 C43.2618509,4.97714216 43.1876319,5.07089116 43.1329419,5.17245116 C43.0665359,5.30136116 42.9532519,5.40292116 42.8126319,5.44589116 C42.6720119,5.48886116 42.5196619,5.46932916 42.3946619,5.39511016 C42.2032519,5.32089116 41.9884119,5.32089116 41.7931019,5.39511016 C41.4181019,5.62167016 41.0821619,5.91855016 40.7189019,6.16855016 C40.5821819,6.28183016 40.4298419,6.36777016 40.2814019,6.46933016 L40.1446819,6.36777016 C40.2931219,6.12949016 40.3829619,5.81699016 40.5821819,5.66855016 L40.5821819,5.67245616 C41.0899919,5.16073616 41.7735819,4.85995616 42.4962819,4.83261616 C42.6837819,4.83261616 42.8947219,4.65683616 43.0978419,4.57089616 L43.0978419,4.38339616 L42.3322219,4.38339616 C42.0666019,4.40292716 41.7970619,4.40292716 41.5314419,4.38339616 C40.9181619,4.25839616 40.8205019,4.30917716 40.4923419,4.84433616 L40.4962479,4.84433616 C40.0157779,5.71933616 39.3634479,6.48883616 38.5821479,7.10993616 C38.5274599,7.15681216 38.4649579,7.19196816 38.3946479,7.20759316 L37.3321479,7.44587316 C37.1407379,7.52009216 36.9376179,7.56696316 36.7305879,7.58259316 C36.0235579,7.53571816 35.3477879,7.88728316 34.9805879,8.49665316 L35.3555879,8.49665316 C35.3516809,8.55134116 35.3516809,8.60603316 35.3555879,8.65681316 C35.0977779,8.73884416 34.8438679,8.82868316 34.5938679,8.93415316 C34.4454279,9.01618416 34.3087079,9.11774316 34.1837079,9.23493316 L34.4727679,9.54743316 C34.5587049,9.63337116 34.6837079,9.71149316 34.7227679,9.80915316 L34.7188619,9.80915316 C34.7266739,9.90681016 34.6797989,10.0044632 34.5938619,10.0591532 C34.4883919,10.0943102 34.3751119,10.0943102 34.2696419,10.0591532 C34.0313619,9.95759316 33.8087019,9.83259316 33.5196419,9.69587316 C33.5196419,9.69587316 33.5196419,9.38337316 33.3946419,9.37165316 C32.9844819,9.29352816 32.5626119,9.25446316 32.1446419,9.25837316 C31.9219819,9.28962316 31.7071419,9.37165316 31.5196419,9.49665316 C31.4102619,9.55134116 31.3282319,9.65290316 31.2930819,9.77009316 C31.3165189,9.89118316 31.3829249,10.0005632 31.4805819,10.0708732 C31.5899519,10.1177482 31.7032419,10.1411852 31.8204219,10.1450922 L31.8204219,10.2818122 C31.6993319,10.3404052 31.5665119,10.3755622 31.4337019,10.3833722 C30.9102619,10.3091532 30.3907019,10.5513422 30.1056019,10.9966522 C30.0509139,11.0669652 29.9806019,11.1294622 29.9063819,11.1841522 L29.7931019,11.0591522 C30.0626319,10.8247722 30.3087219,10.5708722 30.5313819,10.2974322 C30.7384119,9.96931216 30.9181019,9.62556216 31.0704419,9.27013216 C30.3438819,9.14513216 30.3087219,9.02013216 30.7462219,8.37169216 C31.0821619,8.63341216 31.2462219,8.52013216 31.3321619,8.13341216 C31.3321619,8.00841216 31.5313819,7.89513216 31.6563819,7.82091216 C31.9063819,7.66857216 32.1681019,7.53185216 32.4337219,7.40685216 C32.4454409,7.08263216 32.4180979,6.75451216 32.3555979,6.43419216 C32.1915379,5.95763216 32.6173179,5.77013216 32.7423179,5.43419216 C32.9805979,4.80919216 33.3555979,5.28575216 33.6680979,5.28575216 L33.8048179,5.28575216 L33.8087239,5.28184616 C33.6173139,4.84043616 33.3009139,4.46543616 32.8946639,4.20764616 C32.6563839,4.02014616 32.3946639,3.82092616 32.1446639,4.07092616 C31.9806039,4.32483616 31.8516939,4.60217616 31.7696639,4.89514616 L32.3321639,4.89514616 C32.4181019,5.46936616 32.3321639,5.52014616 31.8438839,5.49670616 C31.6954439,5.48498716 31.5470039,5.52795616 31.4181039,5.60998616 C31.1837239,5.75842616 30.9649739,5.92248616 30.7579439,6.10998616 C30.4845039,6.34826616 30.2579439,6.38342616 30.0196639,6.02404916 L30.0196639,6.02014316 C29.9259139,5.89123316 29.8009139,5.78967316 29.6563839,5.71936316 C29.2423239,5.48108316 28.8204439,5.28186316 28.4063839,5.03186316 C28.2813839,4.91858316 28.1095039,4.87170316 27.9415439,4.89514316 C27.7774839,4.92248616 27.6290439,5.02405316 27.5431039,5.17248316 L26.9181039,5.96154316 L26.9181039,5.95763716 C26.9102909,5.60216716 26.9727909,5.24279716 27.0938839,4.90683716 C27.1954439,4.61777716 27.0938839,4.46933716 26.8321639,4.48105716 L26.8321639,4.48496316 C26.4923239,4.51230716 26.1524739,4.55527616 25.8204639,4.62168316 L25.0939039,4.70762116 C26.5548039,3.28182116 26.6056039,3.16852116 26.0079639,2.45762116 C26.1720239,2.21934116 26.0079639,1.45762116 25.7696839,1.34432116 C25.5314039,1.23104116 25.4337439,1.49276116 25.3321839,1.54354116 L24.3556239,1.05526116 C24.2696859,1.05526116 24.1446839,0.969324163 24.0939039,0.891201163 C23.8556239,0.465421163 23.5939039,0.555261163 23.2931239,0.891201163 L23.2931239,0.895108163 C23.1993739,0.969327163 23.0939039,1.03182816 22.9806239,1.08260816 C22.8165639,0.695888163 22.6056239,0.606048163 22.2931239,0.906828163 C22.1134339,1.00838816 21.9220339,1.08651816 21.7189039,1.13338816 C21.8204639,0.582608163 21.5939039,0.508388163 21.1798439,0.496668163 L21.1837499,0.496668163 C20.7501599,0.492762163 20.3204699,0.387288163 19.9337499,0.195888163 C19.5470299,-0.00333183665 19.2462499,-0.0931718366 19.0587499,0.133388163 C18.6720299,0.133388163 18.3595299,0.00838816335 18.1837499,0.133388163 C18.0079699,0.258388163 17.9962499,0.684168163 18.1837499,0.969328163 C18.3712499,1.25838816 18.4220299,1.28182816 18.3946899,1.40682816 C18.2814099,2.16854816 19.2306299,2.46932816 19.1564099,3.20762816 C19.1564099,3.28184716 19.3556299,3.38340816 19.4689099,3.44590816 C19.8478199,3.63340816 20.1095299,4.00059816 20.1564099,4.42246816 C19.9806299,4.54746816 19.7931299,4.60996816 19.6954699,4.74668816 C19.5001599,5.07090816 19.0899999,5.19590816 18.7462499,5.03184816 C18.3595299,4.91856816 18.0470299,5.11778516 17.6720499,5.36778816 L18.1329899,5.55528816 L17.5939299,6.10606816 L18.1056499,6.58262816 C18.3165899,6.47715816 18.5392399,6.39903816 18.7697099,6.34434816 L19.6212699,6.34434816 C19.1720499,6.59043816 18.9493999,7.10606816 19.0822099,7.59434816 C19.0822099,7.74278816 19.3712699,7.83262816 19.5314299,7.94590816 C19.6954899,8.05918816 19.7579899,8.30918816 19.8556499,8.52012816 C19.8947119,8.62168816 19.9220559,8.72715816 19.9337739,8.83262816 C19.8322139,8.84434716 19.7306539,8.84434716 19.6329939,8.83262816 C19.5470569,8.83262816 19.4689339,8.74669016 19.3829939,8.74669016 C19.2697139,8.75840916 19.1642439,8.78575316 19.0587739,8.82090916 C19.0743999,8.93028916 19.1017429,9.03184916 19.1447119,9.13340916 C19.1447119,9.24668916 19.3829919,9.32090916 19.4064319,9.43418916 C19.5704919,10.0826292 20.0314319,10.0474692 20.5705319,10.0982492 L20.5705319,10.0943432 C21.1056919,10.1099672 21.6252319,10.2779332 22.0705319,10.5826232 C22.4963119,10.9341832 22.6564719,11.5826232 23.0080319,12.0435232 L23.0080319,12.0474292 C23.3674119,12.4653992 23.6916219,12.9185192 23.9689719,13.3951292 C23.9689719,13.4966892 24.2072519,13.5318492 24.3322519,13.5943492 L24.7580319,13.7818492 C23.8205319,13.7935672 22.9689319,13.2427892 22.5939319,12.3834492 C22.3400219,11.8912592 22.0314319,11.4303292 21.6681519,11.0084492 C21.4689319,10.7311092 21.1056519,10.6178292 20.7814319,10.7350092 C19.9533119,11.1139192 18.9806319,10.9850092 18.2814319,10.3951692 C18.2345569,10.3365752 18.1681519,10.2936092 18.0939319,10.2701692 L17.7814319,10.2701692 C17.3829919,10.8834492 16.8829919,11.5201692 17.1564319,12.3092692 C17.2579919,12.6334892 17.3829919,12.9577092 17.5079919,13.2858292 L17.5079919,13.2819232 C17.6369019,13.8678632 17.4689299,14.4733232 17.0587719,14.9069232 C16.8634619,14.6178632 16.8634619,14.2389532 17.0587719,13.9459832 C17.1603319,13.7702032 17.3087719,13.4967632 16.9572119,13.4577032 C16.6759619,13.4303592 16.4220519,13.2741132 16.2697119,13.0319232 C16.1408019,12.9186432 15.9923719,12.8248932 15.8322119,12.7584832 C15.6915919,13.0006732 15.5626819,13.2506732 15.4572119,13.5084832 C15.4415869,13.6491032 15.4923679,13.7858232 15.5939319,13.8834832 C16.0197119,14.1959832 16.0548719,14.4967632 15.6681509,14.9576832 L14.4181509,14.1959632 L14.6290909,13.8951832 C15.0275309,13.3561232 15.0158109,13.2701832 14.6290909,12.7584832 L14.6329969,12.7584832 C14.5119069,12.6061432 14.4259669,12.4303632 14.3712769,12.2467632 C14.1837769,11.6842632 14.1212769,11.6842632 13.5587769,11.7858232 C12.7853369,11.9225432 11.9962769,11.9967632 11.1954769,12.0748832 L11.1954769,12.0709772 C11.0626669,12.0826962 10.9298569,12.0592582 10.8087569,12.0084772 C10.4728169,11.8405072 10.0821969,11.8248872 9.73455687,11.9576962 C9.38689687,12.0905062 9.10955687,12.3600362 8.96893687,12.7076962 C8.80487687,12.9576962 8.71893687,13.2819162 8.32049687,13.3209762 C8.24627787,13.3209762 8.15643687,13.5475362 8.13299687,13.6842562 C8.11346587,13.8483162 8.11346587,14.0162862 8.13299687,14.1842562 C8.13299687,14.4967562 7.99627687,14.9576962 8.13299687,15.1100362 C8.26971687,15.2584762 8.75799687,15.2233162 9.09393687,15.2350362 C9.42987687,15.2467552 9.53143687,15.3717562 9.42987687,15.6959762 C9.32831687,16.0201962 9.24237687,16.5201962 9.07831687,16.9459762 L9.08222287,16.9459762 C8.84394287,17.4733162 8.81660287,18.0748762 9.00800387,18.6217762 C9.13691387,19.0241162 8.97675387,19.4655262 8.62128387,19.6959762 C8.26581387,19.9537862 8.07050387,20.3717562 8.10566387,20.8092762 L8.10566387,21.4459962 C8.10566387,22.0709962 7.89472387,22.2975562 7.26972387,22.2467762 L6.23062387,22.1452162 C5.90640387,22.1452162 5.75406387,22.2819362 5.85562387,22.5827162 C5.94156087,22.8288062 5.85562387,23.0983362 5.64468387,23.2467762 C5.46890387,23.3952162 5.33218387,23.6334962 5.64468387,23.8092762 C6.08999387,24.1608362 6.65638387,24.3170862 7.21888387,24.2467762 C7.39466387,24.2155262 7.57044387,24.2819332 7.68763387,24.4108362 C7.80482387,24.5436462 7.84388387,24.7272462 7.79310387,24.8952162 C7.64466387,25.3444362 7.46888387,25.7936562 7.35560387,26.2702162 C7.24622387,26.7194362 6.89466387,27.0709962 6.44544387,27.1842762 C6.11732387,27.3209962 5.80872387,27.4928662 5.51966387,27.6959962 C5.28138387,27.8444362 5.26966387,28.0319362 5.51966387,28.2077162 C5.76966387,28.3834962 6.07044387,28.6686562 6.34388387,28.8952162 L6.24232387,29.0436562 L5.24232387,29.3952162 L5.24622987,29.3952162 C4.36731987,29.9225562 3.28142987,29.9459962 2.38292987,29.4577162 C2.28136987,29.3952162 1.95714987,29.4577162 1.92198987,29.5436532 C1.77354987,29.8795932 1.52354987,29.8795932 1.21104987,29.8952132 C0.898549865,29.9069322 0.796989865,29.9811502 0.761829865,30.0827132 L0.757922865,30.0827132 C0.742297865,30.2702132 0.785266865,30.4577132 0.882922865,30.6217732 C1.03136287,30.9967732 1.20714287,31.3600532 1.35948287,31.7233732 L1.35557687,31.7194672 C1.41416987,31.9577472 1.49619687,32.1882172 1.59385687,32.4069672 C1.91416687,33.0280572 2.08604687,33.7116672 2.09385687,34.4069672 C2.16026287,34.8444672 1.93760687,35.2702472 1.54307687,35.4694672 C0.769636865,35.9304072 0.769636865,36.2077472 1.54307687,36.7194672 L1.70713687,36.8561872 L0.281336865,37.6061872 L0.281336865,37.6100932 C0.152426865,37.6413432 0.0508668654,37.7429032 0.0157168654,37.8718132 C-0.0233461346,38.0007232 0.0118108654,38.1374332 0.105560865,38.2350932 C0.257900865,38.4186832 0.418060865,38.5944732 0.593840865,38.7585332 C0.808680865,38.8952532 0.941500865,39.1296232 0.941500865,39.3835332 C0.941500865,39.6374432 0.808690865,39.8718132 0.593840865,40.0085332 C0.503996865,40.1296232 0.472750865,40.2858732 0.507902865,40.4343132 C0.996182865,40.9850932 1.04696287,41.8327132 1.75790287,42.2234132 C1.99618287,42.3366932 2.00790287,42.5124732 1.75790287,42.7116932 C1.50790287,42.9109132 1.42196287,43.2116932 1.75790287,43.4734132 L2.21884287,43.7624732 L2.21884287,43.7585672 C2.33603287,43.8132552 2.42587287,43.9148172 2.46103287,44.0398172 C2.50009587,44.1648172 2.48447087,44.2976272 2.41806487,44.4070072 C2.34775187,44.5749772 2.34775187,44.7663772 2.41806487,44.9343472 C2.58212487,45.2351272 2.48056487,45.3327872 2.19150487,45.4226272 C1.90244487,45.5085652 1.75400487,45.5710672 1.75400487,45.6491872 C1.75400487,46.0359072 1.51572487,46.1257472 1.24228487,46.2234072 L1.24619087,46.2195012 C1.17587887,46.2507512 1.12510087,46.3132512 1.10557087,46.3835612 C0.742290865,47.1648112 0.660260865,48.0476612 0.871190865,48.8835612 C1.26963087,48.8835612 1.34775087,49.1843412 1.39463087,49.5202812 C1.44931887,49.9616912 1.80479087,50.3015312 2.24619087,50.3445012 L2.89463087,50.4577812 C2.91416187,50.7195012 2.91416187,50.9851212 2.89463087,51.2468412 C2.86728687,51.4460612 2.77744087,51.6335612 2.64463087,51.7820012 C2.18369087,52.3210612 1.90635087,52.9890012 1.85557087,53.6961012 C2.71885087,54.0320412 2.71885087,54.0320412 3.33217087,55.0594012 C3.27357687,55.2390912 3.27357687,55.4304912 3.33217087,55.6101812 C3.65639087,56.0984612 4.01967087,56.5594012 4.39467087,57.0242812 L4.39467087,57.0203752 C4.48842087,57.1336552 4.62514087,57.1961552 4.76967087,57.1961552 C4.85560887,57.1961552 4.96889087,57.0594352 5.03139087,56.9578752 C5.05092187,56.8641252 5.05092187,56.7664652 5.03139087,56.6727152 C5.89467087,56.4344352 6.03139087,57.0086552 6.11729087,57.7235152 L6.12119687,57.7196092 C6.23057687,57.5985192 6.35166687,57.4852292 6.48057687,57.3836692 C6.56651387,57.3836692 6.74229687,57.2703892 6.79307687,57.3094502 C7.31651687,57.7352302 7.71885687,57.5086702 8.16807687,57.1610102 C8.61729687,56.8094502 8.73057687,56.9969502 8.94151687,57.3602302 L8.94542287,57.3602302 C9.05480287,57.5750702 9.18370287,57.7782002 9.33214287,57.9696102 C9.85558287,58.6571102 10.7462429,58.3328902 11.4063429,58.6571102 L11.5313429,58.6571102 C11.8321229,58.3680502 12.0938429,58.5203902 12.3946229,58.6571102 C12.6954029,58.7938302 13.0313429,58.9071102 13.3438429,59.0438302 L13.3438429,59.0477362 C13.4727529,59.1180492 13.5977529,59.1961762 13.7188429,59.2821162 C13.6329049,59.4071162 13.5704029,59.5555562 13.4571229,59.6180562 C13.0079029,59.9305562 12.6563429,60.2664962 12.7696229,60.7196562 C12.3711829,61.0712162 12.0430629,61.3329362 11.7305229,61.6180962 C11.6289629,61.7196562 11.5547429,61.8563762 11.4414629,61.9696562 L11.4453689,61.9696562 C11.0313089,62.3993462 10.8047489,62.9774562 10.8203689,63.5712562 C10.7852129,63.8485962 10.7148989,64.1220362 10.6055289,64.3837562 C10.5195909,64.6962562 10.4414689,65.0087562 10.3555289,65.3095362 C10.3164659,65.4462562 10.2617789,65.5790662 10.1953689,65.7079762 C10.0352089,65.9267262 9.88677887,66.1571962 9.75786887,66.3954762 C9.60942887,66.6845362 9.53130887,67.0204762 9.35942887,67.2939162 L9.35552287,67.2978222 C9.06646287,67.7157922 9.06255287,68.2704822 9.34380387,68.6962222 C9.53130387,69.0126322 9.49224387,69.4110622 9.24614687,69.6845022 C8.96489687,70.0165322 8.79302687,70.4266922 8.74614687,70.8603022 C8.74614687,71.2587422 9.08208687,71.6610822 8.63286687,72.0244022 L8.63286687,72.0204962 C8.75786687,72.3447162 8.90630687,72.6572162 9.08208687,72.9579962 C9.14458687,73.0595562 9.41802687,72.9579962 9.59380687,73.0322152 C9.48052687,73.5947152 9.65630687,73.7587752 10.1797469,73.5829952 L10.1836529,73.5829952 C10.5274029,73.4540852 10.8672429,73.3056552 11.1953529,73.1337752 C11.1953529,73.6454952 11.5469129,73.7079952 11.9570729,73.5595552 L12.4062929,73.5595552 C12.6133229,73.5009622 12.7969129,73.3876752 12.9453529,73.2353352 C13.3320729,72.7236152 13.5586329,72.6728352 13.9687529,73.2353352 C14.2109429,73.5986152 14.6835929,73.7314252 15.0820529,73.5478352 C15.2187729,72.9228352 15.2812729,72.9111152 15.8554929,73.3368952 L15.8554929,73.3329892 C15.9492429,73.2431452 16.0312729,73.1376792 16.0937729,73.0204892 C16.1445539,72.8329892 16.1797099,72.6415792 16.2070529,72.4462692 C16.0039329,72.4267382 15.7968929,72.4267382 15.5937729,72.4462692 C15.4453329,72.4462692 15.3203329,72.6220492 15.1797129,72.6220492 L15.1836189,72.6220492 C15.0468989,72.6181432 14.9179989,72.5517372 14.8320589,72.4462692 C14.7969029,72.3134592 14.8359649,72.1689292 14.9336189,72.0712692 C15.0859589,71.9072092 15.2578389,71.7587692 15.4453389,71.6337692 C15.9023689,71.3642392 16.4922389,71.4931492 16.7930389,71.9345492 C17.0156989,72.2939292 17.4492889,72.4657992 17.8555389,72.3603292 C18.0039789,72.8212692 18.2813189,72.8837692 18.6797589,72.6103292 L18.6836649,72.6103292 C19.0547549,72.3407992 19.5586649,72.3407992 19.9336649,72.6103292 C20.2110049,72.7470492 20.5039749,72.8525192 20.8086649,72.9228292 C21.1094449,73.0361092 21.4961649,73.0986092 21.6602249,73.3212692 C21.9610049,73.7587692 22.3594449,73.7704892 22.7852249,73.8603292 L22.7813189,73.8603292 C22.9922589,73.9345482 23.2227289,73.9150172 23.4180389,73.8134552 C23.6133489,73.7118952 23.7578789,73.5361152 23.8203789,73.3212652 C23.8203789,73.2353272 23.8945979,73.1572052 23.9453789,73.0204852 C24.3086589,73.7822052 24.3438189,73.7079852 25.0820789,74.0321852 C25.4570789,74.1962452 25.6953589,74.6962452 25.9805189,75.0555852 L25.9805189,75.1415222 C25.9180189,75.7665222 25.9805189,75.8055822 26.5547389,75.5673022 L26.5586449,75.5712082 C26.6133329,75.5594892 26.6758349,75.5594892 26.7305249,75.5712082 C26.8281809,75.5633962 26.9219349,75.5633962 27.0195849,75.5712082 L27.0195849,75.8602682 C27.0195849,75.9344872 26.7188049,76.3602682 26.4961449,76.7118282 L26.4961449,76.7079222 C26.6133349,76.6844842 26.7266149,76.6493282 26.8320849,76.5946422 C27.4180249,76.1962022 28.0078849,75.7938622 28.5586849,75.3446422 C28.6758749,75.1883922 28.7149349,74.9852622 28.6563419,74.7977622 C28.4922819,74.5399522 28.4571219,74.2196422 28.5704039,73.9344822 L29.6563039,73.9344822 L30.2070839,73.9344822 C30.5547439,74.2352622 31.0586439,74.2821422 31.4570839,74.0477622 L31.5703639,74.0477622 C31.5898949,74.4579222 31.7578639,74.8485422 32.0430239,75.1454622 C32.2930239,75.4970222 32.5039639,75.4970222 32.8164639,75.2587422 C33.4180239,74.7978022 33.4297439,74.8095222 33.8281639,75.5321822 L33.8320699,75.5321822 C34.2148799,75.2235922 34.5820699,74.8954622 34.9336699,74.5478022 C35.0703899,74.3720222 35.1719499,74.2860822 35.3828899,74.3212422 C35.7578899,74.4188982 36.1406999,74.1962422 36.2461699,73.8212422 C36.3438269,73.4696822 36.6992999,73.2548322 37.0586699,73.3329622 C37.3946099,73.4071812 37.7461699,73.4071812 38.0820699,73.3329622 C38.7305099,73.1181222 39.4179699,73.0517122 40.0937699,73.1337422 C40.3945499,73.1337422 40.4570499,73.0087422 40.4062699,72.7470222 C40.3554899,72.4853022 40.4062699,72.2978022 40.3320509,72.0712422 C40.9062709,72.5712422 41.4687509,72.3446822 42.0586509,72.2196822 C42.1328699,72.3446822 42.1953709,72.4735922 42.2461509,72.6103022 C42.3594309,72.9970222 42.5469309,72.9853022 42.8477109,72.7860822 L42.8438049,72.7821762 C43.1016149,72.6024862 43.3789649,72.4501462 43.6680249,72.3329562 C43.8320849,72.3329562 44.1563049,72.2587372 44.1914649,72.3329562 L44.1953709,72.3329562 C44.3320909,72.5868662 44.3906809,72.8720162 44.3711509,73.1571762 C44.3711509,73.5087362 44.3711509,73.7313962 44.7227109,73.8212362 L44.7188049,73.8212362 C44.9609949,73.8954552 45.1875549,74.0048262 45.3945849,74.1454562 C45.5547449,74.2587362 45.7109949,74.3798362 45.8555249,74.5087362 C45.9297429,74.4071762 46.0039649,74.3602962 46.0195849,74.2977962 C46.1563049,73.7587362 46.3086449,73.2235962 46.3945849,72.6727962 C46.4336469,72.4774862 46.3789599,72.2743562 46.2461449,72.1259262 C46.1133349,71.9774862 45.9180249,71.8993662 45.7188049,71.9227962 L45.1445849,71.9227962 C45.3359949,71.6493562 45.5078649,71.3681062 45.6563049,71.0712362 C45.7305239,70.9227962 45.7305239,70.7470162 45.6563049,70.5946762 C45.3828649,70.1688962 45.0547449,69.7821762 44.7578649,69.3446762 C44.6914589,69.2313962 44.6367749,69.1102962 44.5938049,68.9852962 C44.5234919,68.8173262 44.4336449,68.6571762 44.3320849,68.5087362 C43.8711449,67.9227962 43.8438049,67.9071762 44.4453649,67.4228362 C44.6602049,67.2861162 44.8789549,67.1572162 45.1055249,67.0478362 C45.2422449,66.9853362 45.3633349,66.8954962 45.4570849,66.7822162 C45.6367749,66.4579962 45.9648949,66.2431562 46.3320849,66.2079962 C46.7227049,66.1650272 47.1055249,66.0673762 47.4687849,65.9228362 C47.7656649,65.8017462 48.0156649,65.5947162 48.1836249,65.3212762 C48.3476849,64.8681562 48.4297149,64.3915862 48.4336249,63.9071762 C48.4336249,63.3681162 48.8320649,63.0829562 49.3203449,63.3212362 C49.5195649,63.4227962 49.6953449,63.5829562 49.8945649,63.6727962 C50.0937849,63.7587342 50.2578449,63.6727962 50.3203449,63.6727962 C50.8594049,63.3134262 51.1523749,62.6884262 51.0820649,62.0477962 C51.0390959,61.7313862 51.0117529,61.4149862 51.0078459,61.0946762 C50.9844089,60.6923362 50.7539359,60.3329562 50.3945659,60.1454562 C50.1406559,59.9931162 49.9101859,59.7977962 49.7187859,59.5712362 C49.3203459,59.1102962 49.2422259,59.0829562 48.7187859,59.4970172 C48.4648759,59.1845172 48.2344059,58.8563972 48.0312859,58.5087372 C47.8555059,58.1727972 47.6953459,57.9071772 47.2422259,57.9852972 L47.2461319,57.9852972 C47.1094119,57.9852972 46.9844119,57.9188912 46.9062919,57.8095172 C46.6562919,57.5204572 46.4180119,57.1962372 46.1953519,56.8837372 C45.8711319,56.2587372 45.2461319,55.8446372 44.5430519,55.7978372 C44.3985219,55.7822132 44.2657119,55.7197132 44.1563319,55.6220572 C43.9297719,55.4228372 43.7188319,55.1962772 43.5078919,54.9736172 C43.2969519,54.7470572 43.2578919,54.7743972 43.2188319,54.6493972 L43.2188319,54.6454912 C42.9297719,53.6259912 42.3672719,52.7079912 41.5938319,51.9852912 C41.4649219,51.8915412 41.3868019,51.7392012 41.3868019,51.5790412 C41.3868019,51.4149812 41.4649259,51.2665412 41.5938319,51.1727912 L41.8828919,50.8720112 C42.2461719,50.4462312 42.2696119,50.1727912 41.8828919,49.7587112 C41.4961719,49.3446312 40.9961719,48.8954312 40.5586919,48.5087112 C40.4141619,48.3602712 40.2891619,48.1962112 40.1836919,48.0204312 C39.9571319,47.6337112 39.7696319,47.2313712 39.5704119,46.7704312 C39.4883809,46.6415212 39.4180719,46.5087112 39.3555719,46.3719912 C39.3477589,46.2587112 39.3790089,46.1493312 39.4454149,46.0594912 L39.7188549,46.0594912 C39.9454149,46.3329312 40.1329149,46.6454312 40.3438549,46.9344912 C40.5547949,47.2235512 40.6055749,47.1962112 40.7305749,47.3212112 C40.8321349,47.1766812 40.9180749,47.0282412 40.9961949,46.8719912 C41.0743209,46.5712112 41.1797849,46.2782412 41.3086949,45.9969912 C41.5508849,45.6532412 41.8126049,45.3212112 42.0938549,45.0087112 L42.6446349,45.0829302 C43.0586949,45.0829302 43.4805749,45.1844902 43.8087349,44.7704302 C43.8087349,44.6844922 44.1954549,44.7704302 44.3595149,44.7704302 C44.8204549,44.9969902 45.1485749,44.9071502 45.2345149,44.4071502 L45.2306089,44.4071502 C45.2618589,44.0946502 45.5157689,43.8524602 45.8321689,43.8329302 C46.1876389,43.7743362 46.4884189,43.5399602 46.6329489,43.2079302 C46.8477889,42.9071502 47.1485689,42.6727702 47.4962289,42.5321502 C47.6095089,42.5321502 47.8477889,42.6805902 48.0821689,42.8055902 L48.0821689,42.8094962 C48.2618589,42.4618362 48.4806089,42.1337162 48.7306089,41.8329362 C49.0587289,41.5829362 49.4102989,41.3641862 49.7814089,41.1844962 C49.8595339,41.2899662 49.9415689,41.3876162 50.0314089,41.4852762 C50.2814089,41.7235562 50.5079689,41.6844962 50.5704689,41.3602762 C50.6329689,41.0360562 50.9220289,40.8368362 51.2814089,40.7235562 C51.8946889,40.5360562 52.5314089,40.4618362 52.7697089,39.6493562 L52.7697089,39.6454502 C52.9220489,39.6649812 53.0782989,39.6649812 53.2306489,39.6454502 C53.3478389,39.6767002 53.4650189,39.6923252 53.5822089,39.6962312 C53.5509589,39.5556112 53.4962709,39.4188912 53.4181489,39.2977912 C53.3165889,39.1727912 53.1173689,39.1220112 53.0314289,38.9970112 C52.9493979,38.8407612 52.9103389,38.6688912 52.9181489,38.4970112 C52.9181489,38.4345112 53.0822089,38.3212312 53.1681489,38.3212312 C53.4806489,38.2704502 53.7970589,38.2704502 54.1056489,38.3212312 C54.3673689,38.4071692 54.7540889,38.6337312 54.7697089,38.8095112 C54.7697089,39.2079512 54.9337689,39.3329512 55.2814289,39.3485712 C55.2814289,39.5477912 55.2189289,39.7235712 55.1954909,39.8602912 C55.4845509,39.9306042 55.7658009,40.0321712 56.0314309,40.1571712 C56.3439309,40.3329512 56.4064309,40.1571712 56.4806509,39.9188912 C56.5548689,39.6806112 56.7814309,39.0438912 56.9181509,38.6063912 L56.9181509,38.6102972 C57.0040879,38.3681072 57.0626809,38.1220172 57.0939309,37.8720172 C57.1681499,37.3095172 57.2306509,36.7587172 57.2697109,36.1962172 C57.2189299,35.9579372 57.3322109,35.5829372 57.1447109,35.4071572 L57.1447359,35.4066162 Z" id="Path" fill="#D8D8E2" fill-rule="nonzero"></path>
            <circle id="Oval-Copy-3" fill="#63ADEC" cx="20" cy="48.2429362" r="4"></circle>
        </g>
    </g>
</svg>