<?xml version="1.0" encoding="UTF-8"?>
<svg width="81px" height="88px" viewBox="0 0 81 88" version="1.1" xmlns="http://www.w3.org/2000/svg" xmlns:xlink="http://www.w3.org/1999/xlink">
    <title>India@1.5x</title>
    <g id="UI-Designs" stroke="none" stroke-width="1" fill="none" fill-rule="evenodd">
        <g id="India">
            <path d="M12.30097,52.2526504 C12.50019,52.2526504 12.69941,52.4518704 12.69941,52.7526504 C12.69941,52.9518704 12.50019,53.1510904 12.30097,53.1510904 C12.19941,53.7526504 12.19941,54.4518904 12.10175,55.0494904 C12.10175,55.4479304 12.10175,55.7487104 12.20331,56.1510904 C12.20331,56.2526504 12.30487,56.4518704 12.40253,56.5495304 C12.50409,56.6510904 12.60175,56.6510904 12.60175,56.6510904 C12.80097,56.7526504 13.00019,56.9518704 13.00019,57.1510904 C13.00019,57.4518704 12.69941,57.7526504 12.60175,58.0495304 C12.50019,58.3503104 12.60175,58.5495304 12.70331,58.8503104 C12.90253,59.6510904 13.10175,60.4519104 13.40253,61.2487104 C13.60175,61.6471504 13.70331,62.1471504 13.80097,62.6471104 C13.90253,63.3463304 14.10175,63.9479104 14.10175,64.6471104 C14.10175,65.2486704 14.40253,65.8463104 14.80097,66.3463104 C15.19941,66.8463104 15.50019,67.3463104 15.69941,67.9479104 C15.69941,68.1471304 15.80097,68.4479104 15.80097,68.6471304 C15.90253,69.0455704 16.30097,69.3463504 16.60175,69.5455704 C16.70331,69.6471304 16.80097,69.7447904 16.80097,69.8463504 C16.90253,69.9479104 16.90253,70.0455704 16.90253,70.1471304 C17.00409,70.5455704 17.10175,71.1471304 17.40253,71.4479304 C18.10175,72.2487104 18.00409,73.5495304 18.30097,74.5495304 C18.40253,74.8503104 18.50019,75.0495304 18.60175,75.3503104 C18.60175,75.4518704 18.60175,75.6510904 18.70331,75.7487504 C18.80487,75.8503104 18.80487,75.9479704 18.90253,76.0495304 C19.10175,76.3503104 19.30097,76.6510904 19.30097,77.0495304 C19.60175,77.3503104 19.90253,77.5495304 20.19941,77.7487504 C20.30097,77.8503104 20.39863,77.8503104 20.50019,77.9479704 C20.60175,78.1471904 20.60175,78.3464104 20.69941,78.4479704 C20.80097,78.6471904 20.89863,78.7487504 21.09785,78.9479704 C21.19941,79.1471904 21.29707,79.2487504 21.29707,79.4479704 C21.49629,80.0495304 21.69551,80.6471704 21.89863,81.2487704 C22.00019,81.4479904 22.09785,81.7487704 22.19941,81.9479904 C22.39863,82.2487704 22.69941,82.4479904 22.80097,82.7487704 C22.90253,83.0495504 22.69941,83.3503304 22.60175,83.5495504 C22.70331,84.0495504 22.80097,84.4479904 23.00019,84.9479504 C23.10175,85.1471704 23.10175,85.3463904 23.30097,85.5495104 C23.40253,85.6510704 23.50019,85.6510704 23.60175,85.7487304 C23.90253,86.0495104 23.90253,86.5495104 24.20331,86.8503304 C24.40253,87.0495504 24.80487,87.1511104 25.00409,87.3503304 C25.10565,87.5495504 25.20331,87.7487704 25.30487,87.8503304 C25.40643,87.9518904 25.60565,87.9518904 25.80487,87.9518904 C26.30487,87.8503304 26.70331,87.6511104 27.20327,87.5534504 C27.60171,87.4518904 27.90249,86.9518904 27.90249,86.5534504 L27.90249,86.1550104 C28.00405,85.9557904 28.10171,85.9557904 28.20327,85.7565704 C28.20327,85.6550104 28.20327,85.5573504 28.30483,85.4557904 C28.30483,85.3542304 28.50405,85.2565704 28.60561,85.2565704 C29.30483,84.9557904 30.10561,84.7565704 30.80481,84.7565704 C30.60559,84.6550104 30.40637,84.6550104 30.20325,84.5573504 C30.00403,84.4557904 29.90247,84.2565704 29.90247,84.0573504 C29.90247,83.8581304 30.00403,83.7565704 30.00403,83.6589104 C30.10559,83.3581304 30.30481,83.0573504 30.50403,82.9596904 C30.60559,82.8581304 30.70325,82.8581304 30.70325,82.7604704 C30.70325,82.6589104 30.70325,82.5612504 30.80481,82.4596904 C30.90637,82.1589104 31.10559,81.9596904 31.40637,81.8581304 C31.80481,81.7565704 32.10559,81.6589104 32.50797,81.7565704 C32.40641,80.6549704 32.10953,79.3581704 32.20719,78.1549704 C32.30875,77.5534104 32.40641,76.9557704 32.70719,76.3541704 C32.90641,76.0533904 33.20719,75.8541704 33.30875,75.5533904 C33.70719,74.9518304 33.70719,74.2525904 33.60953,73.5533904 C33.50797,72.8541704 33.30875,72.2525904 33.10953,71.5533904 C33.10953,71.3541704 33.00797,71.1549504 33.00797,70.9518304 C33.00797,70.6510504 33.20719,70.3502704 33.20719,70.0533904 C33.20719,69.5533904 32.90641,69.1549504 32.70719,68.7525904 C32.50797,68.3541504 32.60563,67.8541504 32.80875,67.4517904 C32.80875,67.3502304 32.91031,67.3502304 32.91031,67.2525704 C32.91031,67.1510104 32.91031,67.0533504 33.01187,66.9517904 C33.11343,66.4517904 33.51187,66.0533504 34.01187,65.9517904 C34.21109,65.9517904 34.41031,65.9517904 34.51187,65.8502304 C34.61343,65.8502304 34.71109,65.7486704 34.81265,65.7486704 C34.81265,65.7486704 34.91421,65.7486704 34.91421,65.8502304 C35.11343,66.0494504 35.51577,65.8502304 35.61343,65.5494504 C35.71499,65.2486704 35.71499,64.9478904 35.91421,64.7486704 C36.11343,64.4478904 36.61343,64.3502304 36.91421,64.3502304 C37.41421,64.2486704 37.81265,64.1510104 38.31261,64.0494504 C38.51183,63.9478904 38.81261,63.8502304 38.81261,63.6510104 C38.91417,63.2525704 38.51183,62.9517904 38.51183,62.5494104 C38.51183,62.3501904 38.71105,62.1509704 38.91027,62.0494104 C39.71105,61.5494104 40.60947,61.2486304 41.21107,60.5494104 C41.31263,60.3501904 41.51185,60.1509704 41.60951,59.9478504 C41.91029,59.5494104 42.41029,59.3462904 42.80871,59.1470704 C43.70715,58.5455104 44.41031,57.6470704 45.10951,56.8462704 C45.41029,56.5454904 45.60951,56.2447104 45.80873,55.8462704 C46.20717,55.7447104 46.50795,55.3462704 46.60951,54.9478304 L46.30873,54.9478304 C46.41029,54.7486104 46.50795,54.5493904 46.60951,54.4478304 C46.71107,54.2486104 46.91029,54.0493904 47.10951,53.9478304 C47.30873,53.8462704 47.60951,54.0493904 47.60951,54.2486104 C48.30873,54.2486104 49.00791,54.2486104 49.41031,53.6470504 C49.41031,53.5454904 49.51187,53.5454904 49.51187,53.5454904 L49.61343,53.5454904 C49.81265,53.5454904 49.91421,53.3462704 50.11343,53.2447104 C50.31265,53.0454904 50.41421,52.8462704 50.51187,52.6431504 C50.51187,52.5415904 50.51187,52.3423704 50.71109,52.2447104 L50.91031,52.2447104 C51.01187,52.2447104 51.10953,52.0454904 51.10953,51.9439304 C51.10953,51.8423704 50.91031,51.7447104 50.80875,51.7447104 C50.80875,51.6431504 50.91031,51.5454904 51.00797,51.4439304 C51.10953,51.3423704 51.20719,51.3423704 51.30875,51.2447104 C51.41031,51.1431504 51.41031,50.8462704 51.30875,50.8462704 C51.00797,50.6470504 50.91031,50.2447104 51.10953,49.9478304 C51.30875,49.6470504 51.50797,49.3462704 51.91031,49.2486104 C52.21109,49.1470504 52.60953,49.0493904 52.91031,48.9478304 C53.21109,48.8462704 53.51187,48.7486104 53.71109,48.6470504 C53.81265,48.6470504 53.91031,48.5454904 54.01187,48.4478304 C54.31265,48.2486104 54.31265,47.7486104 54.11343,47.5493904 L54.61343,47.5493904 C54.61343,47.4478304 54.51187,47.3501704 54.61343,47.2486104 C54.71499,47.1470504 54.81265,47.1470504 54.81265,47.2486104 L54.81265,47.9478304 C55.11343,48.0493904 55.41421,47.8462704 55.41421,47.5493904 C55.61343,47.5493904 55.71499,47.6509504 55.91421,47.6509504 C55.91421,47.5493904 55.91421,47.3501704 56.01577,47.2525104 C56.11733,47.2525104 56.21499,47.3540704 56.21499,47.4517304 C56.41421,47.1509504 56.51577,46.9517304 56.71499,46.6509504 C56.81655,46.5493904 56.81655,46.4517304 56.71499,46.3501704 C56.61343,46.1509504 56.21499,46.3501704 56.11343,46.1509504 C56.31265,46.0493904 56.51187,46.0493904 56.71499,46.0493904 C56.71499,46.0493904 56.81655,46.1509504 56.91421,46.1509504 C56.91421,46.0493904 57.11343,45.7525104 57.01577,45.6509504 C56.81655,45.3501704 56.81655,45.0493904 56.91421,44.7525104 C56.91421,44.6509504 57.01577,44.4517304 56.91421,44.3540704 C56.91421,44.3540704 56.81265,44.3540704 56.81265,44.2525104 C56.61343,44.1509504 56.51187,43.9517304 56.51187,43.7525104 C56.51187,43.5532904 56.51187,43.3540704 56.61343,43.1509504 C56.41421,43.0493904 56.21499,42.8501704 56.01187,42.7525104 C56.01187,42.5532904 56.11343,42.4517304 56.21109,42.3540704 C56.51187,41.9556304 56.60953,41.3540704 56.51187,40.7524704 C56.21109,40.7524704 56.01187,40.3540304 55.71109,40.3540304 L55.41031,40.3540304 C55.10953,40.3540304 54.91031,40.0532504 54.80875,39.8540304 C54.70719,39.5532504 54.80875,39.2524704 54.91031,39.0532504 C55.01187,39.1548104 55.10953,39.0532504 55.10953,38.9516904 C55.21109,38.8501304 55.21109,38.7524704 55.30875,38.7524704 L55.50797,38.7524704 C55.60953,38.7524704 55.60953,38.5532504 55.70719,38.4516904 C55.80875,38.2524704 56.00797,38.1509104 56.20719,38.0532504 L56.80875,38.0532504 C56.91031,38.0532504 57.00797,38.0532504 57.10953,37.9516904 C57.21109,37.8501304 57.21109,37.7524704 57.10953,37.6509104 C57.00797,37.7524704 56.80875,37.6509104 56.80875,37.5493504 C56.80875,37.4477904 56.70719,37.3501304 56.60953,37.2485704 C56.50797,37.1470104 56.30875,37.0493504 56.21109,37.0493504 C56.10953,37.1509104 55.81265,37.1509104 55.71109,37.0493504 C55.60953,36.9477904 55.51187,36.7485704 55.41031,36.6509104 C55.41031,36.5493504 55.30875,36.4516904 55.21109,36.4516904 L55.01187,36.4516904 C54.81265,36.4516904 54.71109,36.1509104 54.71109,35.9516904 C54.71109,35.7524704 54.91031,35.5532504 54.91031,35.4516904 C54.91031,35.3501304 54.91031,35.1509104 55.01187,35.0532504 C55.11343,34.9516904 55.41031,34.9516904 55.51187,34.7524704 C55.61343,34.6509104 55.61343,34.4516904 55.61343,34.3540304 C55.61343,34.2524704 55.81265,34.1548104 55.91421,34.2524704 C56.01577,34.2524704 56.11343,34.3540304 56.11343,34.4516904 C56.11343,34.5532504 56.11343,34.6509104 56.21499,34.7524704 C56.31655,34.9516904 56.61343,34.9516904 56.81655,34.9516904 C57.01577,34.8501304 57.31655,34.8501304 57.51577,34.9516904 C57.61733,35.0532504 57.71499,35.2524704 57.81655,35.4516904 C57.91811,35.5532504 58.01577,35.5532504 58.11733,35.6509104 C58.31655,35.7524704 58.41811,35.7524704 58.61733,35.8501304 C58.71889,35.8501304 58.81655,35.9516904 58.91811,35.8501304 C59.01967,35.7485704 59.01967,35.6509104 59.01967,35.5493504 C59.01967,35.4477904 59.12123,35.2485704 59.21889,35.2485704 C59.32045,35.4477904 59.51967,35.5493504 59.61733,35.7485704 C59.91811,36.2485704 59.51577,36.8501704 59.61733,37.4477704 C59.71889,37.6469904 59.81655,37.8462104 60.01577,37.9477704 C60.21499,38.1469904 60.51577,38.1469904 60.81655,38.1469904 C61.01577,38.1469904 61.31655,38.2485504 61.51577,38.2485504 C61.71499,38.2485504 61.91421,38.3501104 62.11733,38.2485504 C62.31655,38.2485504 62.41811,38.1469904 62.61733,38.1469904 C62.91811,38.1469904 63.31655,38.2485504 63.61733,38.2485504 C64.31655,38.3501104 64.91813,38.0493304 65.61733,38.0493304 C66.11733,38.0493304 66.51577,38.2485504 66.81653,38.5493304 C66.91809,38.7485504 66.81653,38.8501104 66.71497,39.0493304 C66.71497,39.1508904 66.61341,39.2485504 66.61341,39.2485504 C66.51185,39.6469904 66.41419,39.9477704 66.21497,40.3501504 C65.91419,40.5493704 65.81653,40.8501504 65.61341,41.0493704 L65.51185,41.1509304 C65.31263,41.2524904 65.11341,41.3501504 64.91029,41.3501504 C64.30873,41.4517104 63.71109,41.8501504 63.60949,42.4517504 C63.50793,42.9517504 63.71105,43.4517504 63.91027,43.8501504 C64.01183,44.0493704 64.21105,44.2485904 64.41027,44.4517104 C64.51183,44.5532704 64.60949,44.6509304 64.80871,44.7524904 C64.91027,44.8540504 65.10949,44.7524904 65.20715,44.6509304 C65.40637,44.3501504 65.10559,43.8501504 65.30871,43.5493304 C65.41027,43.4477704 65.50793,43.4477704 65.60949,43.3501104 C65.80871,43.1508904 65.71105,42.8501104 65.80871,42.6508904 C65.91027,42.3501104 66.30871,42.3501104 66.60949,42.5493304 C66.80871,42.7485504 66.91027,43.0493304 67.00793,43.3501104 C67.10949,43.7485504 67.10949,44.0493304 67.10949,44.4517104 L67.10949,44.8501504 C67.10949,44.9517104 67.21105,45.0493704 67.30871,45.1509304 C67.60949,45.5493704 67.50793,46.1509304 67.70715,46.6509304 C67.80871,46.9517104 67.90637,47.1509304 68.20715,47.4517104 C68.40637,47.6509304 68.80871,47.7524904 68.90637,47.5532704 C69.00793,47.4517104 69.00793,47.2524904 69.10559,47.1548304 C69.20715,47.0532704 69.50403,46.9556104 69.40637,46.7563904 C69.20715,46.0571704 69.20715,45.3579904 69.30481,44.6547904 C69.40637,44.7563504 69.60559,44.7563504 69.80481,44.6547904 C69.80481,44.5532304 69.80481,44.4555704 69.90637,44.3540104 L70.00793,44.2524504 L70.00793,44.1508904 C70.00793,43.9516704 70.00793,43.7524504 70.10949,43.4516704 C70.10949,42.9516704 70.21105,42.3500704 69.91027,41.8500704 C69.80871,41.7485104 69.80871,41.5492904 69.91027,41.5492904 C70.21105,41.4477304 70.41027,41.8500704 70.71105,41.8500704 C71.01183,41.8500704 71.31261,41.6508504 71.60949,41.8500704 C71.71105,41.8500704 71.71105,41.9516304 71.80871,42.0492904 C72.00793,42.1508504 72.20715,41.8500704 72.20715,41.6508504 C72.30871,41.3500704 72.40637,41.0492904 72.50793,40.7524104 C72.50793,40.6508504 72.60949,40.4516304 72.60949,40.3539704 C72.80871,39.9555304 73.21105,39.7524104 73.41027,39.3539704 C73.51183,39.1547504 73.60949,38.8539704 73.71105,38.6547504 C73.81261,38.4555304 73.81261,38.1547504 73.60949,38.1547504 C73.50793,38.0531904 73.30871,38.1547504 73.21105,38.0531904 C73.21105,37.5531904 73.51183,37.1547504 73.91027,37.0531904 C74.10949,36.9516304 74.10949,36.5531904 74.30871,36.4516304 C74.41027,36.4516304 74.41027,36.4516304 74.50793,36.3500704 C74.60949,36.2485104 74.60949,36.0492904 74.60949,35.8500704 C74.60949,35.6508504 74.80871,35.6508504 74.91027,35.4516304 C75.01183,35.2524104 74.71105,34.9516304 74.71105,34.7524104 C74.60949,34.5531904 74.71105,34.3539704 74.71105,34.1508504 C74.71105,34.0492904 74.81261,33.8500704 74.91027,33.7524104 C75.01183,33.6508504 75.21105,33.6508504 75.30871,33.5531904 C75.60949,33.4516304 75.80871,33.0531904 76.00793,32.8539704 C76.30871,32.5531904 76.90637,32.3539704 77.10953,31.9555304 C77.10953,31.8539704 77.21109,31.7563104 77.21109,31.7563104 C77.21109,31.7563104 77.31265,31.7563104 77.41031,31.6547504 C77.60953,31.6547504 77.80875,31.5531904 78.01187,31.5531904 C78.31265,31.4516304 78.51187,31.3539704 78.71109,31.1547504 C79.01187,31.2563104 79.41031,31.3539704 79.60953,31.6547504 C79.71109,31.7563104 79.71109,31.8539704 79.80875,31.9555304 C79.91031,32.0570904 80.00797,32.0570904 80.10953,31.9555304 C80.21109,31.6547504 80.00797,31.4555304 79.91031,31.1547504 C79.80875,30.9555304 79.71109,30.5531904 79.80875,30.3539704 C80.00797,30.1547504 80.41031,30.1547504 80.50797,29.8539704 C80.60953,29.6547504 80.60953,29.4555304 80.60953,29.2524104 C80.71109,28.9516304 80.91031,28.6508504 80.71109,28.3539704 C80.60953,28.2524104 80.51187,28.2524104 80.51187,28.1547504 C80.31265,28.0531904 80.01187,27.9555304 79.81265,27.8539704 C79.21109,27.6547504 78.61345,27.5531904 78.01185,27.6547504 C78.11341,27.1547504 78.41029,26.7563104 78.81263,26.5531504 C78.81263,26.4515904 78.81263,26.3539304 78.71107,26.2523704 C78.60951,26.1508104 78.51185,25.9515904 78.41029,25.7523704 C78.21107,25.7523704 78.10951,25.8539304 77.91029,25.8539304 C77.71107,25.8539304 77.51185,25.7523704 77.51185,25.6547104 C77.51185,25.3539304 78.11341,25.2562704 78.11341,24.9554904 C77.81263,24.9554904 77.41419,24.7562704 77.31263,24.4554904 C77.11341,24.5570504 77.01185,24.6547104 76.81263,24.7562704 C76.41419,24.9554904 76.01185,25.1547104 75.81263,25.5570504 C75.81263,25.6586104 75.71107,25.6586104 75.71107,25.7562704 C75.60951,25.8578304 75.51185,25.8578304 75.31263,25.7562704 C75.21107,25.6547104 75.11341,25.5570504 75.01185,25.5570504 C74.71107,25.4554904 74.41029,25.4554904 74.01185,25.4554904 C73.91029,25.4554904 73.71107,25.4554904 73.61341,25.3539304 C73.41419,25.1547104 73.41419,24.8539304 73.21497,24.9554904 C73.11341,25.2562704 72.71497,25.3539304 72.41419,25.5570504 C72.11341,25.7562704 72.01575,26.0570504 71.81263,26.3578304 C71.51185,26.7562704 71.01185,27.0570504 70.41423,27.0570504 C70.11345,27.0570504 69.81267,27.0570504 69.61345,27.1586104 C69.31267,27.3578304 69.41423,27.9593904 69.11345,28.2602104 C69.01189,28.3617704 68.81267,28.4594304 68.61345,28.5609904 C68.41423,28.6625504 68.21501,28.7602104 68.01189,28.8617704 C67.91033,28.9633304 67.81267,28.9633304 67.81267,29.0609904 C67.81267,29.1625504 67.81267,29.2602104 67.91423,29.2602104 C68.01579,29.3617704 67.81267,29.4594304 67.71501,29.5609904 C67.41423,29.6625504 67.21501,29.7602104 66.91423,29.8617704 C66.61345,29.5609904 66.01579,30.0609904 65.61343,29.9633304 C65.51187,29.9633304 65.41421,29.8617704 65.31265,29.8617704 C65.01187,29.8617704 64.81265,30.0609904 64.81265,30.3617704 C64.81265,30.6625504 65.11343,30.8617704 65.31265,30.8617704 C65.51187,30.8617704 65.71109,30.8617704 65.81265,30.9633304 C66.11343,31.1625504 65.91421,31.6625504 66.01187,32.0649304 C66.11343,32.2641504 66.31265,32.4633704 66.21109,32.6664904 C66.10953,32.8657104 65.91031,32.8657104 65.71109,32.8657104 C64.71109,32.9672704 63.81269,32.9672704 62.81269,33.0649304 C62.61347,33.0649304 62.41425,33.0649304 62.31269,32.9633704 C62.21113,32.8618104 62.11347,32.6625904 61.91425,32.6625904 C61.71503,32.5610304 61.41425,32.5610304 61.21503,32.7641504 C61.01581,32.9633704 60.81659,33.1625904 60.61347,33.2641504 C60.11347,33.4633704 59.61347,33.3657104 59.11347,33.1625904 C58.81269,33.0610304 58.61347,32.9633704 58.31269,32.8618104 C58.01191,32.7602504 57.81269,32.6625904 57.51191,32.5610304 C57.41035,32.5610304 57.31269,32.4594704 57.21113,32.3618104 C57.01191,32.1625904 57.01191,31.8618104 57.10957,31.6625904 C57.21113,31.5610304 57.30879,31.4633704 57.30879,31.3618104 C57.41035,31.1625904 57.10957,30.9633704 57.00801,30.6625904 C56.90645,30.2641504 57.30879,29.8618104 57.20723,29.4633904 C57.10567,29.1626104 56.80879,28.9633904 56.50801,28.8618304 C56.20723,28.8618304 55.90645,28.9633904 55.50801,29.0610504 C55.30879,29.1626104 55.20723,29.1626104 55.10957,29.3618304 C55.10957,29.4633904 55.00801,29.5610504 55.00801,29.6626104 C54.90645,30.0610504 54.90645,30.4633904 54.80879,30.8618104 C54.80879,31.1625904 54.70723,31.4633704 54.80879,31.7602504 C54.91035,32.2602504 55.30879,32.8618504 55.10957,33.3618504 C55.00801,33.6626304 54.71113,33.8618504 54.41035,33.9634104 C54.10957,34.0649704 53.80879,34.0649704 53.41035,34.0649704 C53.10957,34.0649704 52.91035,34.0649704 52.60957,33.9634104 C52.50801,33.9634104 52.41035,33.8618504 52.30879,33.8618504 C52.10957,33.7602904 51.80879,33.8618504 51.60957,33.8618504 C51.21113,33.8618504 50.71113,33.7602904 50.30877,33.7602904 C49.91033,33.6587304 49.50799,33.6587304 49.00797,33.5610704 C48.90641,33.5610704 48.70719,33.5610704 48.60953,33.4595104 C48.41031,33.3579504 48.30875,33.1587304 48.10953,33.0610704 C47.91031,32.9595104 47.71109,32.8618504 47.50797,32.9595104 C47.40641,33.0610704 47.30875,33.1587304 47.20719,33.1587304 C47.00797,33.1587304 46.90641,33.0571704 46.80875,32.9595104 C46.10172,32.9516984 45.70325,32.5532604 45.10175,32.4517004 L45.10175,31.8501404 C44.80097,31.5493604 44.30097,31.6509204 44.00015,31.4517004 C43.89859,31.3501404 43.80093,31.3501404 43.69937,31.2524804 C43.30093,31.1509204 43.00015,31.5532604 42.59777,31.5532604 C42.39855,31.5532604 42.29699,31.4517004 42.19933,31.3540404 C42.09777,31.2524804 41.89855,31.2524804 41.80089,31.2524804 C41.69933,31.3540404 41.60167,31.4517004 41.50011,31.5532604 C41.30089,31.6548204 41.00011,31.4517004 40.80089,31.3540404 C40.40245,31.1548204 39.90245,31.2524804 39.69929,30.8540404 C39.69929,30.7524804 39.59773,30.7524804 39.59773,30.6548204 C39.500074,30.5532604 39.2032,30.5532604 39.00007,30.5532604 C38.60163,30.5532604 38.30085,30.2524804 37.89847,30.1548204 C37.50003,30.0532604 37.09769,30.0532604 36.69927,29.8540404 C36.39849,29.7524804 36.09771,29.4556004 35.89849,29.1548204 C35.79693,28.9556004 35.59771,28.8540404 35.50005,28.6548204 C35.39849,28.5532604 35.39849,28.5532604 35.30083,28.4556004 C35.19927,28.4556004 35.19927,28.3540404 35.10161,28.3540404 C34.60161,28.1548204 34.20317,27.8540404 33.70321,27.6548204 C33.70321,27.6548204 33.60165,27.5532604 33.50399,27.5532604 L33.30477,27.5532604 C32.90633,27.6548204 32.50399,27.3540404 32.40633,27.0532604 C32.30477,26.6548204 32.40633,26.2524804 32.70711,26.0532604 C32.80867,25.9517004 32.90633,25.9517004 32.90633,25.8540404 C32.90633,25.7524804 32.90633,25.6548204 32.80477,25.5532604 C32.80477,25.3540404 32.90633,25.1548204 33.00399,24.9517004 C33.00399,24.7524804 32.90243,24.4517004 33.10555,24.2524804 C33.10555,24.1509204 33.20711,24.1509204 33.20711,24.1509204 C33.50789,23.9517004 33.70711,23.7524804 34.00789,23.5493604 C34.00789,23.1509204 34.30867,22.8501404 34.70711,22.7485804 C34.80867,22.7485804 34.90633,22.6470204 34.90633,22.6470204 C34.90633,22.6470204 34.90633,22.5454604 34.80477,22.5454604 C34.60555,22.4439004 34.30477,22.4439004 34.10555,22.2446804 C34.00399,22.1431204 33.90633,22.0454604 33.90633,21.9439004 C33.70711,21.7446804 33.20711,21.8423404 33.00789,21.5454604 C32.90633,21.4439004 32.90633,21.3462404 32.80867,21.2446804 C32.70711,21.1431204 32.60945,21.1431204 32.60945,21.0454604 C32.21101,20.8462404 31.91023,20.5454604 31.50785,20.3462404 C31.40629,20.2446804 31.30863,20.2446804 31.20707,20.2446804 L30.70707,20.2446804 C30.40629,20.2446804 30.20707,20.0454604 30.00785,19.8462404 C29.90629,19.6470204 29.70707,19.5454604 29.70707,19.2446804 C29.70707,18.9439004 29.80863,18.7446804 30.10551,18.7446804 C30.20707,18.7446804 30.40629,18.8462404 30.40629,19.0454604 C30.40629,19.2446804 30.30473,19.3462404 30.10551,19.3462404 C30.30473,19.3462404 30.50395,19.2446804 30.60551,19.0454604 C30.60551,18.7446804 30.30473,18.4439004 30.10551,18.2446804 C29.90629,18.1431204 29.80473,18.0454604 29.60551,18.0454604 C29.40629,18.0454604 29.20707,18.2446804 29.20707,18.4439004 C29.30863,18.5454604 29.50785,18.4439004 29.60551,18.3423404 C29.70707,18.2407804 29.90629,18.2407804 29.90629,18.4439004 C29.80473,18.5454604 29.70707,18.6431204 29.50785,18.7446804 C29.30863,18.8462404 29.20707,18.9439004 29.00785,18.9439004 C29.00785,19.0454604 28.90629,19.1431204 28.90629,19.3423404 C28.80473,19.3423404 28.70707,19.2407804 28.70707,19.1431204 C28.60551,18.8423404 28.70707,18.4439004 28.50785,18.1431204 C28.50785,18.0415604 28.40629,17.9439004 28.40629,17.8423404 C28.40629,17.7407804 28.40629,17.6431204 28.50785,17.5415604 C28.60941,17.1431204 28.20707,16.7407804 27.80863,16.4399604 L28.20707,16.0415204 C28.00785,15.8423004 27.80863,15.8423004 27.60551,15.8423004 C27.50395,15.6430804 27.60551,15.3423004 27.80473,15.1430804 C28.00395,14.9438604 28.30473,14.9438604 28.50395,14.9438604 C28.50395,15.2446404 28.70317,15.6430804 29.00395,15.7446404 L29.10551,15.7446404 C29.20707,15.7446404 29.20707,15.6430804 29.20707,15.6430804 C29.30863,15.4438604 29.60551,15.2446404 29.80863,15.2446404 C30.10941,15.1430804 30.30863,15.1430804 30.50785,14.9438604 C30.70707,14.7446404 30.80863,14.4438604 30.50785,14.2446404 C30.40629,14.2446404 30.30863,14.1430804 30.30863,14.0454204 C30.30863,13.9438604 30.30863,13.8462004 30.20707,13.7446404 L30.10551,13.6430804 C29.90629,13.4438604 30.40629,13.0415204 30.30473,12.8423004 C30.00395,12.7407404 29.70317,12.7407404 29.50395,12.9438604 C29.40239,13.0454204 29.30473,13.1430804 29.20317,13.2446404 C29.10161,13.3462004 28.90239,13.3462004 28.80473,13.2446404 C28.70317,13.0454204 28.80473,12.8462004 29.00395,12.8462004 C29.10551,12.8462004 29.20317,12.7446404 29.20317,12.6469804 C29.20317,12.5454204 29.00395,12.5454204 29.00395,12.5454204 C28.90239,12.5454204 28.80473,12.3462004 28.80473,12.2446404 C28.80473,12.1430804 28.90629,12.0454204 29.00395,11.8462004 C29.20317,11.5454204 29.20317,11.0454204 28.80473,10.8462004 C28.80473,10.8462004 28.70317,10.8462004 28.70317,10.7446404 L28.70317,10.6430804 C28.80473,10.4438604 29.00395,10.3423004 29.20317,10.3423004 C29.40239,10.3423004 29.60161,10.3423004 29.80473,10.2407404 C30.00395,10.1391804 30.10551,10.0415204 30.30473,9.84230035 C30.40629,9.74074035 30.50395,9.64308035 30.50395,9.44386035 C30.50395,9.24464035 30.40239,9.14308035 30.30473,9.14308035 C30.50395,9.04152035 30.60551,8.94386035 30.60551,8.74464035 C30.60551,8.64308035 30.60551,8.64308035 30.70707,8.54542035 C30.70707,8.44386035 30.80863,8.44386035 30.90629,8.44386035 C31.20707,8.24464035 31.40629,7.84230035 31.60551,7.64308035 L31.90629,7.34230035 C32.00785,7.24074035 32.00785,7.14308035 32.00785,6.94386035 C32.10941,6.44386035 32.20707,6.04542035 32.30863,5.54546035 C32.41019,5.24468035 32.41019,4.94390035 32.20707,4.84624035 C32.00004,4.55327035 31.80082,4.55327035 31.70316,4.45171035 C31.50394,4.35015035 31.40238,4.15093035 31.20316,4.05327035 L30.90238,4.05327035 C30.6016,4.05327035 30.20316,4.05327035 29.90238,3.85405035 C29.80082,3.65483035 29.6016,3.65483035 29.40238,3.75249035 C28.90238,3.85405035 28.30078,3.95171035 27.80078,4.15093035 C27.60156,4.15093035 27.40234,4.25249035 27.19922,4.35015035 C27,4.45171035 26.89844,4.54937035 26.69922,4.74859035 C26.19922,5.14703035 25.69922,5.35015035 25.09762,5.54937035 C24.99606,5.54937035 24.79684,5.65093035 24.69918,5.54937035 C24.3984,5.44781035 24.30074,5.04937035 23.99996,4.74859035 C23.80074,4.54937035 23.3984,4.44781035 22.99996,4.44781035 C22.69918,4.34625035 22.30074,4.14703035 22.30074,3.74859035 C22.30074,3.64703035 22.4023,3.44781035 22.30074,3.35015035 C22.30074,3.24859035 22.10152,3.15093035 21.99996,3.15093035 C21.49996,2.95171035 20.99996,2.65093035 20.60156,2.25249035 C20.5,2.15093035 20.40234,2.05327035 20.30078,2.05327035 L20,2.05327035 C19.69922,2.05327035 19.5,1.75249035 19.30078,1.55327035 C19.10156,1.25249035 19,1.05327035 18.80078,0.854050351 C18.40234,0.553270351 17.90234,0.455610351 17.40238,0.252490351 C17.00394,0.0532703508 16.50394,-0.145949649 16.20318,0.150930351 C16.10162,0.252490351 16.10162,0.350150351 16.00396,0.451710351 C15.9024,0.650930351 15.70318,0.752490351 15.50396,0.850150351 C15.00396,1.15093035 14.40236,1.54937035 13.70316,1.54937035 C13.30472,1.54937035 13.00394,1.44781035 12.60156,1.54937035 C12.20312,1.74859035 12,2.15093035 11.60156,2.44781035 C11.30078,2.74859035 10.90234,2.94781035 10.70312,3.24859035 C10.5,3.55328035 10.70312,3.95172035 11.10156,4.15484035 C11.5,4.35406035 12.20316,3.95562035 12.40236,4.35406035 C12.50392,4.45562035 12.50392,4.55328035 12.50392,4.65484035 C12.70314,5.15484035 13.3047,5.25640035 13.80472,5.25640035 C13.90628,5.25640035 14.00394,5.25640035 14.1055,5.35796035 C14.20706,5.45952035 14.1055,5.65874035 14.00394,5.85796035 C13.90238,6.15874035 14.40238,6.45952035 14.70316,6.45952035 C14.80472,6.56108035 15.00394,6.45952035 15.1016,6.56108035 C15.20316,6.56108035 15.20316,6.66264035 15.1016,6.76030035 C15.1016,7.15874035 14.80082,7.56108035 14.50004,7.76030035 C14.30082,7.86186035 14.00004,7.95952035 13.89848,8.15874035 C13.89848,8.26030035 13.79692,8.26030035 13.79692,8.35796035 C13.79692,8.45952035 13.69536,8.45952035 13.5977,8.45952035 C13.19926,8.65874035 13.19926,9.15874035 13.19926,9.56112035 C13.19926,9.76034035 13.19926,9.95956035 13.30082,10.1626804 C13.6016,10.5611204 13.6016,10.9634604 13.6016,11.4634804 C13.6016,11.8619204 13.6016,12.3619204 13.70316,12.7642804 C13.80472,13.1627204 14.00394,13.6627204 14.50394,13.7642804 C14.70316,13.8658404 14.80472,13.8658404 14.90238,13.9635004 C15.00394,13.9635004 15.00394,14.0650604 15.1016,14.1627204 C15.20316,14.2642804 15.30082,14.2642804 15.40238,14.2642804 C15.80082,14.3658404 16.1016,14.4635004 16.50398,14.4635004 C16.60554,14.4635004 16.60554,14.4635004 16.7032,14.5650604 C16.90242,14.7642804 16.80476,15.1666204 16.90242,15.3658404 C17.00398,15.5650604 17.2032,15.6666204 17.40242,15.6666204 C17.7032,15.6666204 18.00398,15.6666204 18.2032,15.7681804 C18.50398,15.8697404 18.7032,15.9674004 18.80476,16.2681804 C18.80476,16.3697404 18.80476,16.5689604 18.7032,16.6666204 C18.60164,16.7681804 18.40242,16.7681804 18.30476,16.8658404 C17.80476,16.9674004 17.30476,17.0650604 17.00396,17.3658404 C16.50396,17.7642804 16.4024,18.5650404 16.4024,19.2642404 C16.4024,19.4634604 16.4024,19.6626804 16.50396,19.7642404 C16.60552,19.8658004 16.70318,19.8658004 16.80474,19.9634604 C16.9063,20.0650204 17.00396,20.1626804 17.00396,20.2642404 C17.00396,20.3658004 16.9024,20.3658004 16.9024,20.3658004 L15.3008,21.9674004 C15.19924,22.0689604 15.00002,22.2681804 15.00002,22.4674004 C15.00002,22.6666204 15.00002,22.9674004 15.19924,23.0689604 C15.00002,23.4674004 14.50002,23.6705204 14.09764,23.6705204 C13.89842,23.6705204 13.79686,23.6705204 13.6992,23.7720804 C13.59764,23.8736404 13.59764,23.9713004 13.59764,24.0728604 C13.49608,24.6744204 13.1992,25.1744604 12.89842,25.7720604 C12.79686,26.0728404 12.59764,26.2720604 12.49998,26.5728404 C12.39842,26.7720604 12.30076,26.9712804 12.1992,27.0728404 C11.80076,27.4712804 11.0976,27.4712804 10.8008,27.9712804 C10.60158,28.2720604 10.69924,28.7720604 10.50002,29.0728804 C10.3008,29.3736604 9.89846,29.4713204 9.89846,29.7721004 L9.89846,30.0728804 C9.7969,30.3736604 9.50002,30.3736604 9.2969,30.5728804 C9.09768,30.7721004 8.7969,30.9713204 8.49612,30.8736604 C8.39456,30.8736604 8.39456,30.7721004 8.2969,30.7721004 C8.19534,30.7721004 8.09768,30.7721004 7.99612,30.8736604 C7.69534,30.9752204 7.49612,31.0728804 7.19534,31.1744404 C6.89456,31.2760004 6.49612,31.3736604 6.2969,31.1744404 C6.19534,31.0728804 6.19534,30.7760004 6.09768,30.6744404 C5.99612,30.4752204 5.59768,30.3736604 5.39846,30.4752204 C5.19924,30.5767804 5.00002,30.8736604 4.7969,31.0767804 C4.69534,31.2760004 4.49612,31.5767804 4.39846,31.7760004 C4.39846,31.8775604 4.2969,31.9752204 4.19924,32.0767804 L4.00002,32.2760004 C3.69924,32.4752204 3.39846,32.7760004 3.19924,33.1744404 C3.00002,33.4752204 2.89846,33.7760004 3.00002,34.0728804 C3.10158,34.2721004 3.10158,34.5728804 3.3008,34.6744404 C3.60158,34.8736604 4.00002,34.7760004 4.4024,34.7760004 C4.70318,34.7760004 5.00396,34.9752204 5.10162,35.2760004 C5.20318,35.5767804 5.10162,35.8775604 4.9024,36.1744404 C4.80084,36.2760004 4.70318,36.3736604 4.60162,36.4752204 C4.60162,36.5767804 4.60162,36.7760004 4.70318,36.8736604 C4.80474,37.0728804 4.9024,37.2721004 5.00396,37.4752204 C5.00396,37.4752204 5.00396,37.5767804 5.10552,37.5767804 C5.4063,37.7760004 5.80474,37.8775604 6.10552,37.7760004 L6.30474,37.7760004 C6.10162,37.5533404 6.10162,37.7525634 6.10162,37.8541254 C6.10162,38.0533454 6.20318,38.2525654 6.30084,38.5533454 C6.4024,38.7525654 6.60162,39.0533454 6.69928,39.2525654 C6.69928,39.3541254 6.80084,39.3541254 6.80084,39.4517854 C6.9024,39.6510054 7.00006,39.8502254 7.10162,40.0533454 C7.10162,40.1549054 7.20318,40.2525654 7.20318,40.2525654 L7.20318,40.4517854 C7.20318,40.7525654 7.30474,41.0533454 7.20318,41.3502254 C7.10162,41.5494454 6.9024,41.7486654 6.70318,41.7486654 C6.50396,41.8502254 6.30474,41.8502254 6.20318,41.7486654 C6.00396,41.6471054 5.9024,41.4478854 6.00396,41.2486654 C5.50396,41.4478854 5.10552,41.5494454 4.70316,41.8502254 C4.6016,41.9517854 4.40238,42.0494454 4.30472,42.0494454 C3.80472,42.1510054 3.40628,41.7486654 3.00392,41.7486654 C2.40236,41.6471054 1.70312,42.1471054 1.20312,41.8502254 C1.20312,42.1510054 1.20312,42.4517854 1.10156,42.7486654 C0.80078,42.7486654 0.60156,42.7486654 0.30078,42.6471054 L0,42.6471054 C0.19922,42.8463254 0.5,42.9478854 0.69922,42.8463254 L0.69922,43.2447654 C0.39844,43.2447654 0.19922,43.5455454 0.19922,43.8463254 C0.19922,44.1471054 0.30078,44.3463254 0.5,44.6471054 C0.60156,44.8463254 0.80078,45.1471054 1,45.2486654 C1.30078,45.5494454 1.80078,45.7486654 2.1992,45.9478854 C2.59764,46.1471054 2.99998,46.2486654 3.3984,46.1471054 C3.59762,46.1471054 3.79684,46.0455454 3.99996,45.9478854 C4.10152,45.9478854 4.19918,45.8463254 4.30074,45.7486654 C4.4023,45.6471054 4.49996,45.5494454 4.60152,45.4478854 C4.70308,45.3463254 4.9023,45.3463254 4.99996,45.3463254 C5.10152,45.4478854 5.19918,45.6471054 5.3984,45.5455454 C5.49996,45.5455454 5.59762,45.3463254 5.69918,45.2447654 C5.80074,45.1432054 5.99996,45.0455454 5.99996,45.2447654 C5.99996,45.3463254 5.99996,45.3463254 5.8984,45.3463254 C5.69918,45.6471054 5.49996,45.8463254 5.3984,46.1471054 C5.3984,46.4478854 5.19918,46.7486654 4.8984,46.8463254 L4.49996,46.8463254 C4.3984,46.9478854 4.3984,47.0455454 4.30074,47.0455454 C4.19918,47.1471054 4.10152,47.1471054 3.99996,47.1471054 C3.80074,47.1471054 3.60152,47.2486654 3.49996,47.2486654 C2.99996,47.3502254 2.30076,47.5494454 1.89836,47.1471054 C1.7968,47.2486654 1.59758,47.3463254 1.59758,47.5455454 C1.59758,47.6471054 1.7968,47.7447654 1.89836,47.8463254 C2.2968,48.1471054 2.49992,48.6471054 2.7968,48.9479254 C3.09758,49.2487054 3.49602,49.4479254 3.8984,49.4479254 C3.79684,49.6471454 3.99996,49.9479254 4.19918,50.1471454 C4.3984,50.3463654 4.49996,50.5455854 4.69918,50.6471454 C4.99996,50.9479254 5.30074,51.2487054 5.59762,51.5455854 C5.8984,51.7448054 6.09762,51.8463654 6.3984,51.9440254 C6.69918,52.0455854 7.09762,52.1432454 7.09762,52.4440254 C7.19918,52.5455854 7.19918,52.4440254 7.29684,52.4440254 C7.29684,52.3424654 7.3984,52.3424654 7.3984,52.2448054 C7.49996,52.1432454 7.59762,52.0455854 7.69918,52.0455854 C8.19918,51.8463654 8.69918,51.5455854 9.19918,51.2448054 C9.8984,50.8463654 10.49998,50.4440254 10.69918,49.7448054 C10.80074,49.3463654 10.69918,48.8463654 10.69918,48.3464054 C10.69918,48.0456254 10.69918,47.7448454 10.8984,47.6471854 C10.99996,47.6471854 11.09762,47.6471854 11.19918,47.5456254 C11.3984,47.5456254 11.59762,47.5456254 11.80074,47.4440654 C11.49996,47.8425054 11.30074,48.4440654 11.60152,48.8424654 C11.70308,48.9440254 11.80074,49.0416854 11.9023,49.2409054 L11.9023,49.6393454 C11.80074,50.0377854 11.9023,50.3385654 12.00386,50.7409454 C12.101516,51.4518854 12.4023,51.8542454 12.30074,52.2526454 L12.30097,52.2526504 Z" id="Path" fill="#D8D8E2" fill-rule="nonzero"></path>
            <circle id="Oval-Copy-3" fill="#63ADEC" cx="26" cy="71" r="4"></circle>
        </g>
    </g>
</svg>