<?xml version="1.0" encoding="utf-8"?>
<!-- Generator: Adobe Illustrator 25.3.1, SVG Export Plug-In . SVG Version: 6.00 Build 0)  -->
<svg version="1.1" id="Ebene_1" xmlns="http://www.w3.org/2000/svg" xmlns:xlink="http://www.w3.org/1999/xlink" x="0px" y="0px"
	 viewBox="0 0 833 245.1" style="enable-background:new 0 0 833 245.1;" xml:space="preserve">
<style type="text/css">
	.st0{fill:#FFFFFF;}
	.st1{fill:#63ADEC;}
</style>
<g id="Ebene_2_1_">
	<g id="Ebene_1-2">
		<path class="st0" d="M339.5,220.2L339.5,220.2c0,12.9-10.4,23.3-23.3,23.3h-82.1c-12.9,0-23.3-10.4-23.3-23.3l0,0
			c0-12.9,10.4-23.3,23.3-23.3h82.1C329,196.9,339.5,207.3,339.5,220.2z"/>
		<path class="st0" d="M340.5,92.3L340.5,92.3c0,12.9-10.4,23.3-23.3,23.3h-82.1c-12.9,0-23.3-10.4-23.3-23.3l0,0
			c0-12.9,10.4-23.3,23.3-23.3h82.1C330,69,340.5,79.4,340.5,92.3z"/>
		<path class="st0" d="M314.1,155.2L314.1,155.2c0,12.9-10.4,23.3-23.3,23.3h-56.7c-12.9,0-23.3-10.4-23.3-23.3l0,0
			c0-12.9,10.4-23.3,23.3-23.3h56.7C303.6,131.9,314.1,142.3,314.1,155.2z"/>
		<path class="st0" d="M165.2,69L165.2,69c-12.4-6.3-27.5-1.4-33.8,11c0,0,0,0,0,0l-42.6,83.7L46.5,80.9
			c-6.3-12.4-21.4-17.3-33.8-11s-17.3,21.4-11,33.8c0,0,0,0,0,0l64.5,126.7c6.3,12.4,21.4,17.3,33.8,11c0,0,0,0,0,0l0,0
			c3.8-1.9,7-4.8,9.4-8.3c0.7-1,1.3-2,1.8-3l64.8-127.2C182.5,90.5,177.6,75.3,165.2,69C165.2,69,165.2,69,165.2,69z"/>
		<path class="st0" d="M781.1,156.9l45-45c9.2-9.2,9.2-24.1,0-33.3s-24.1-9.2-33.3,0l-45,45l-45-45c-9.2-9.2-24.1-9.2-33.3,0
			c0,0,0,0,0,0l0,0c-9.2,9.2-9.2,24.1,0,33.3c0,0,0,0,0,0l45,45l-45,45c-9.2,9.2-9.2,24.1,0,33.3c0,0,0,0,0,0l0,0
			c9.2,9.2,24.1,9.2,33.3,0c0,0,0,0,0,0l45-45l45,45c9.2,9.2,24.1,9.2,33.3,0s9.2-24.1,0-33.3L781.1,156.9z"/>
		<path class="st1" d="M557.1,245.1c-48.8-0.1-88.4-39.8-88.3-88.6c0.1-48.8,39.8-88.4,88.6-88.3c48.8,0.1,88.4,39.8,88.3,88.6
			c0,23.4-9.4,45.8-25.9,62.4l0,0C603.2,235.8,580.6,245.2,557.1,245.1z M557.1,110.4c-25.4,0.1-45.9,20.8-45.8,46.2
			c0.1,25.4,20.8,45.9,46.2,45.8c12.1,0,23.7-4.9,32.3-13.4l0,0c18-17.9,18.1-47,0.2-65.1C581.3,115.2,569.4,110.3,557.1,110.4
			L557.1,110.4z"/>
		<path class="st1" d="M427.4,6c-4.3-3.9-9.9-6-15.7-6H365c-13,0.3-23.4,11-23.1,24.1c0.3,12.6,10.5,22.8,23.1,23.1h22.6v173.2
			c0,13.4,10.9,24.3,24.3,24.3c0,0,0,0,0,0h0.2c13.4,0,24.3-10.9,24.3-24.3c0,0,0,0,0,0V24.8C436.4,17.5,433.1,10.6,427.4,6z"/>
	</g>
</g>
</svg>
