<svg viewBox="0 0 737.86 305.83" xmlns="http://www.w3.org/2000/svg" xmlns:xlink="http://www.w3.org/1999/xlink"><clipPath id="a"><path d="m0 0h737.86v305.83h-737.86z"/></clipPath><g clip-path="url(#a)"><g fill="#22223d"><path d="m207.93 275c1.61-.83 3.39-1.24 5.2-1.2 2.19-.07 4.35.52 6.2 1.7 1.9 1.14 3.43 2.81 4.4 4.8 2.14 4.6 2.14 9.9 0 14.5-.99 2-2.52 3.7-4.4 4.9-1.85 1.18-4.01 1.77-6.2 1.7-1.8.07-3.59-.31-5.2-1.1-1.41-.76-2.64-1.82-3.6-3.1v3.8h-6.8v-35.8h6.8v12.9c.88-1.35 2.13-2.43 3.6-3.1zm9.5 8.3c-.62-1.11-1.52-2.03-2.6-2.7-1.07-.6-2.27-.91-3.5-.9-1.21-.02-2.4.33-3.4 1-1.13.63-2.07 1.57-2.7 2.7-1.21 2.67-1.21 5.73 0 8.4.66 1.14 1.59 2.1 2.7 2.8 1.03.6 2.21.91 3.4.9 2.55-.05 4.88-1.46 6.1-3.7.72-1.32 1.06-2.8 1-4.3.05-1.46-.3-2.91-1-4.2z"/><path d="m262.43 274.2v26.8h-6.9v-3.4c-.87 1.21-2.04 2.18-3.4 2.8-3.27 1.33-6.95 1.19-10.1-.4-1.62-.9-2.94-2.26-3.8-3.9-.96-1.92-1.45-4.05-1.4-6.2v-15.7h6.8v14.8c-.12 1.78.45 3.53 1.6 4.9 1.12 1.16 2.69 1.78 4.3 1.7 1.64.1 3.25-.52 4.4-1.7 1.15-1.37 1.72-3.12 1.6-4.9v-14.8z"/><path d="m276.33 269.9c-.8-.75-1.24-1.81-1.2-2.9 0-1.06.43-2.07 1.2-2.8.79-.72 1.83-1.12 2.9-1.1 1.1-.02 2.17.37 3 1.1.77.73 1.21 1.74 1.2 2.8.04 1.09-.4 2.15-1.2 2.9-.83.73-1.9 1.12-3 1.1-1.07.02-2.11-.38-2.9-1.1zm6.3 4.3v26.8h-6.8v-26.8z"/><path d="m302.83 265.2v35.8h-6.8v-35.8z"/><path d="m316.13 280.3c1.01-2 2.57-3.67 4.5-4.8 1.85-1.18 4.01-1.77 6.2-1.7 1.72.02 3.43.39 5 1.1 1.47.72 2.76 1.74 3.8 3v-12.7h6.8v35.8h-6.8v-4c-.9 1.36-2.14 2.47-3.6 3.2-1.64.83-3.46 1.24-5.3 1.2-2.16.06-4.28-.54-6.1-1.7-1.92-1.2-3.47-2.89-4.5-4.9-2.14-4.6-2.14-9.9 0-14.5zm18.5 3.1c-.57-1.15-1.48-2.09-2.6-2.7-1.05-.67-2.26-1.01-3.5-1-1.23-.01-2.43.3-3.5.9-1.06.69-1.95 1.62-2.6 2.7-1.34 2.64-1.34 5.76 0 8.4.59 1.15 1.49 2.12 2.6 2.8 1.05.67 2.26 1.01 3.5 1 1.22 0 2.43-.31 3.5-.9 1.11-.67 2.01-1.64 2.6-2.8.73-1.28 1.07-2.73 1-4.2.05-1.46-.3-2.91-1-4.2z"/><path d="m386.43 279.8h-4.7v21.2h-6.9v-21.2h-3v-5.6h3v-1.3c0-3.3 1-5.8 2.8-7.3s4.7-2.3 8.5-2.2v5.7c-1.2-.12-2.41.2-3.4.9-.7.5-1 1.6-1 3.1v1.1h4.7z"/><path d="m397.53 280.3c.94-2.01 2.47-3.69 4.4-4.8 1.85-1.18 4.01-1.77 6.2-1.7 3.43-.08 6.7 1.48 8.8 4.2v-3.8h6.9v26.8h-6.9v-3.9c-.91 1.33-2.15 2.4-3.6 3.1-1.64.83-3.46 1.24-5.3 1.2-2.16.06-4.28-.54-6.1-1.7-1.91-1.17-3.44-2.88-4.4-4.9-2.27-4.57-2.27-9.93 0-14.5zm18.5 3.1c-.63-1.13-1.57-2.07-2.7-2.7-1.03-.69-2.26-1.04-3.5-1-1.22 0-2.43.31-3.5.9-1.04.72-1.92 1.64-2.6 2.7-1.21 2.67-1.21 5.73 0 8.4.6 1.18 1.54 2.15 2.7 2.8 1 .67 2.19 1.02 3.4 1 1.23.02 2.44-.29 3.5-.9 1.11-.7 2.04-1.66 2.7-2.8.65-1.3.96-2.75.9-4.2.03-1.45-.28-2.89-.9-4.2z"/><path d="m441.53 300.3c-1.63-.73-3.04-1.87-4.1-3.3-1.01-1.29-1.61-2.86-1.7-4.5h6.8c.13 1.03.67 1.97 1.5 2.6 1.93 1.22 4.36 1.33 6.4.3.66-.46 1.06-1.2 1.1-2 0-.9-.55-1.7-1.4-2-1.36-.59-2.76-1.06-4.2-1.4-1.66-.4-3.3-.9-4.9-1.5-1.29-.49-2.43-1.32-3.3-2.4-.97-1.22-1.46-2.75-1.4-4.3.03-1.46.48-2.89 1.3-4.1.96-1.27 2.23-2.27 3.7-2.9 1.78-.71 3.68-1.05 5.6-1 2.77-.15 5.5.7 7.7 2.4 1.89 1.6 3.01 3.93 3.1 6.4h-6.5c-.05-.98-.53-1.89-1.3-2.5-.92-.68-2.05-1.04-3.2-1-.98-.02-1.95.22-2.8.7-.64.42-1.02 1.14-1 1.9.03.91.57 1.72 1.4 2.1 1.36.57 2.77 1.04 4.2 1.4l4.8 1.5c1.25.52 2.35 1.35 3.2 2.4.95 1.23 1.48 2.74 1.5 4.3-.02 1.47-.47 2.89-1.3 4.1-.93 1.3-2.21 2.31-3.7 2.9-1.78.71-3.68 1.05-5.6 1-2.02.07-4.04-.3-5.9-1.1z"/><path d="m478.23 279.8v12.9c-.07.72.15 1.44.6 2 .64.45 1.42.66 2.2.6h3.2v5.7h-4.3c-5.7 0-8.5-2.8-8.5-8.3v-12.9h-3.2v-5.6h3.2v-6.6h6.8v6.6h6v5.6z"/><path d="m520.63 289.6h-19.6c.01 1.74.74 3.4 2 4.6 1.21 1.08 2.78 1.65 4.4 1.6 2.29.17 4.45-1.11 5.4-3.2h7.3c-.78 2.56-2.36 4.8-4.5 6.4-4.51 2.92-10.24 3.19-15 .7-2.02-1.12-3.68-2.78-4.8-4.8-2.27-4.6-2.27-10 0-14.6 1.05-2.03 2.69-3.7 4.7-4.8 2.14-1.18 4.56-1.77 7-1.7 2.4-.06 4.77.49 6.9 1.6 1.98 1.08 3.62 2.72 4.7 4.7 1.15 2.12 1.73 4.49 1.7 6.9 0 .87-.07 1.74-.2 2.6zm-6.9-4.5c.06-1.62-.65-3.17-1.9-4.2-1.26-1.05-2.86-1.62-4.5-1.6-1.55-.03-3.06.54-4.2 1.6-1.16 1.12-1.9 2.6-2.1 4.2z"/><path d="m542.63 275c1.5-.83 3.19-1.24 4.9-1.2v7.1h-1.8c-2.2 0-3.8.5-4.8 1.5-1.1 1-1.7 2.8-1.7 5.3v13.3h-6.7v-26.8h6.7v4.2c.84-1.39 2.01-2.56 3.4-3.4z"/><path d="m302.63 195.4c0 11.32-9.18 20.5-20.5 20.5h-72.27c-11.32 0-20.5-9.18-20.5-20.5 0-11.32 9.18-20.5 20.5-20.5h72.27c11.32 0 20.5 9.18 20.5 20.5z"/><path d="m302.73 85.4c0 11.32-9.18 20.5-20.5 20.5h-72.27c-11.32 0-20.5-9.18-20.5-20.5 0-11.32 9.18-20.5 20.5-20.5h72.27c11.32 0 20.5 9.18 20.5 20.5z"/><path d="m280.33 140.5c0 11.32-9.18 20.5-20.5 20.5h-49.89c-11.32 0-20.5-9.18-20.5-20.5 0-11.32 9.18-20.5 20.5-20.5h49.89c11.32 0 20.5 9.18 20.5 20.5z"/><path d="m143.83 66.1c-10.53-5.36-23.42-1.17-28.78 9.36 0 .01-.01.03-.02.04l-36.3 71.3-36-70.6c-5.38-10.55-18.3-14.73-28.85-9.35s-14.73 18.3-9.35 28.85l55.1 108c5.38 10.52 18.28 14.68 28.8 9.3 3.27-1.58 6.04-4.04 8-7.1.59-.8 1.13-1.63 1.6-2.5l55.2-108.4c5.38-10.58 1.17-23.51-9.4-28.9z"/><path d="m690.63 139.7 39.7-39.7c7.55-8.66 6.65-21.8-2.01-29.35-7.85-6.84-19.56-6.82-27.39.05l-39.6 39.6-39.7-39.6c-8.08-8.09-21.18-8.1-29.27-.03 0 0-.02.02-.03.03-8.09 8.08-8.1 21.18-.03 29.27 0 0 .02.02.03.03l39.6 39.7-39.6 39.6c-8.11 8.12-8.11 21.28 0 29.4 8.08 8.09 21.18 8.1 29.27.03 0 0 .02-.02.03-.03l39.7-39.6 39.6 39.6c8.38 7.85 21.55 7.42 29.4-.96 7.49-8 7.49-20.44 0-28.44z"/></g><path d="m493.43 217.3c-43.08-.05-77.96-35.01-77.91-78.09s35.01-77.96 78.09-77.91 77.96 35.01 77.91 78.09c-.02 20.68-8.26 40.5-22.89 55.11-14.62 14.67-34.49 22.88-55.2 22.8zm0-118.6c-22.42 0-40.61 18.16-40.62 40.58 0 22.42 18.16 40.61 40.58 40.62 10.78 0 21.12-4.28 28.73-11.9 15.85-15.86 15.84-41.57-.02-57.42-7.61-7.6-17.93-11.88-28.68-11.88z" fill="#63adec"/><path d="m379.23 6.8c-3.78-3.43-8.7-5.32-13.8-5.3h-41.1c-11.49 0-20.8 9.31-20.8 20.8s9.31 20.8 20.8 20.8h19.9v152.5c0 11.82 9.58 21.4 21.4 21.4h.1c11.82 0 21.4-9.58 21.4-21.4v-172.2c0-6.44-2.9-12.54-7.9-16.6z" fill="#63adec"/><path d="m693.23-9.7 38.7-38.6c7.42-8.4 6.62-21.23-1.78-28.65-7.66-6.76-19.14-6.78-26.82-.05l-38.7 38.7-38.6-38.7c-7.93-7.92-20.77-7.92-28.7 0-7.92 7.93-7.92 20.77 0 28.7l38.7 38.6-38.7 38.7c-7.9 7.88-7.91 20.67-.03 28.57.01.01.02.02.03.03 7.93 7.92 20.77 7.92 28.7 0l38.6-38.6 38.7 38.6c7.9 7.9 20.7 7.9 28.6 0s7.9-20.7 0-28.6l-38.7-38.7z" fill="none"/><path d="m693.23 291.5 38.7-38.6c7.9-7.9 7.9-20.7 0-28.6s-20.7-7.9-28.6 0l-38.7 38.6-38.6-38.6c-7.85-7.93-20.64-7.98-28.57-.13-.04.04-.09.09-.13.13-7.9 7.88-7.91 20.67-.03 28.57.01.01.02.02.03.03l38.7 38.6-38.7 38.7c-7.9 7.88-7.91 20.67-.03 28.57l.03.03c7.93 7.92 20.77 7.92 28.7 0l38.6-38.6 38.7 38.6c7.9 7.9 20.7 7.9 28.6 0s7.9-20.7 0-28.6z" fill="none"/><path d="m-43.87 140.9 38.6-38.6c7.9-7.9 7.9-20.7 0-28.6s-20.7-7.9-28.6 0l-38.7 38.6-38.6-38.6c-7.72-7.9-20.38-8.04-28.28-.32-.11.1-.21.21-.32.32-7.9 7.72-8.04 20.38-.32 28.28.1.11.21.21.32.32l38.6 38.6-38.6 38.7c-7.9 7.72-8.04 20.38-.32 28.28.1.11.21.21.32.32 7.88 7.9 20.67 7.91 28.57.03.01-.01.02-.02.03-.03l38.6-38.6 38.7 38.6c7.9 7.9 20.7 7.9 28.6 0s7.9-20.7 0-28.6z" fill="none"/><path d="m568.85 295.6c0 4.19-3.29 7.47-7.56 7.47s-7.6-3.28-7.6-7.47 3.38-7.38 7.6-7.38 7.56 3.29 7.56 7.38zm-13.28 0c0 3.29 2.43 5.9 5.76 5.9s5.62-2.61 5.62-5.85-2.38-5.94-5.67-5.94-5.71 2.66-5.71 5.89zm4.54 3.87h-1.71v-7.38c.68-.13 1.62-.22 2.83-.22 1.4 0 2.03.22 2.57.54.4.31.72.9.72 1.62 0 .81-.63 1.44-1.53 1.71v.09c.72.27 1.12.81 1.35 1.8.22 1.12.36 1.58.54 1.84h-1.85c-.22-.27-.36-.95-.58-1.8-.13-.81-.58-1.17-1.53-1.17h-.81zm.04-4.18h.81c.95 0 1.71-.32 1.71-1.08 0-.67-.5-1.12-1.58-1.12-.45 0-.76.04-.95.09v2.12z" fill="#22223d"/></g></svg>