<?xml version="1.0" encoding="UTF-8"?>
<svg width="99px" height="61px" viewBox="0 0 99 61" version="1.1" xmlns="http://www.w3.org/2000/svg" xmlns:xlink="http://www.w3.org/1999/xlink">
    <title>NewYork@1.5x</title>
    <g id="UI-Designs" stroke="none" stroke-width="1" fill="none" fill-rule="evenodd">
        <g id="NewYork">
            <path d="M97.8281094,8.19923 C97.8281094,7.89845 97.5273294,7.80079 97.3281094,7.69923 C97.1288894,7.59767 97.2265494,8 96.9296694,7.5 C96.8281094,7.39845 96.8281094,7.10157 96.8281094,7 C96.8281094,7 96.9296694,6.89845 96.7265494,6.80079 C96.5273294,6.69923 96.4257694,7 96.2265494,6.69923 C96.1288924,7 96.0273294,6.39845 96.0273294,6.39845 C95.8281094,5.79689 95.6288894,5.09765 95.4257694,4.50005 C95.2265494,4.00005 95.2265494,3.69927 94.7265494,3.50005 C94.2265494,3.30083 94.3281094,3.30083 93.9257694,3.60161 C93.8242094,3.70317 93.6249894,3.90239 93.4257694,3.90239 C93.1249894,3.90239 93.2265494,3.80083 93.0273294,3.70317 C92.8281094,3.60161 93.0273294,3.30473 92.6288894,3.50395 C92.5273294,3.60551 92.5273294,3.90239 92.4296694,4.10551 C92.2304494,4.70707 92.0312294,5.20711 91.9296694,5.80471 C91.9296694,6.20315 91.9296694,6.90631 91.8281094,7.20311 C92.1288894,7.30467 91.9296694,7.80467 91.8281094,7.90233 C91.6288894,8.40233 91.4296694,8.40233 91.7265494,8.90233 C91.3281094,8.90233 91.5273294,9.00389 91.4257694,9.40233 C91.3242094,9.30077 91.1249894,9.00389 91.1249894,9.30077 L91.1249894,9.19921 C91.1249894,9.30077 90.6249894,9.59765 90.5234294,9.59765 C90.7226494,9.69921 90.6249894,10.09765 90.5234294,10.19921 C90.3242094,10.39843 89.6249894,10.49999 89.3242294,10.59765 C88.3242294,10.89843 87.3242294,11.19921 86.3242294,11.39843 C85.8242294,11.49999 85.5234494,11.59765 85.1250294,11.79687 C84.3242494,12.19531 84.3242494,12.89847 83.8242294,13.59767 C83.8242294,13.59767 83.8242294,13.49611 83.9257894,13.49611 C83.8242294,13.49611 83.8242294,13.59767 83.7265694,13.69533 L83.7265694,13.59377 L83.6250094,13.59377 L83.6250094,13.39455 C83.6250094,13.49611 83.5234494,13.69533 83.4257894,13.69533 C83.3242294,13.69533 83.2265694,13.79689 83.3242294,13.89455 L83.4257894,13.89455 C83.3242294,14.09377 83.1250094,14.19533 83.1250094,14.49611 C83.1250094,14.49611 83.2265694,14.49611 83.3242294,14.69533 C83.4257894,14.69533 83.4257894,14.59377 83.5234494,14.49611 C83.5234494,14.69533 83.7226694,14.49611 83.7226694,14.49611 C83.6211094,14.59767 83.7226694,14.79689 83.5234494,14.79689 L83.5234494,14.69533 C83.2226694,14.79689 83.6250094,14.99611 83.6250094,15.19533 C83.6250094,15.69533 83.6250094,15.39455 83.3242294,15.69533 C82.8242294,16.19533 82.5234494,16.59377 81.7226294,16.59377 C81.0234094,16.69533 80.4218294,16.49221 79.7226294,16.79299 C79.6210694,16.79299 79.1210694,16.99221 79.0234094,17.19143 C78.9218494,17.39065 79.1249694,17.79299 79.3241894,17.79299 C79.2226294,17.89455 79.5234094,18.09377 79.5234094,18.19143 C79.5234094,18.39065 79.3241894,18.58987 79.2226294,18.69143 C78.9218494,18.99221 78.7226294,19.39065 78.3241894,19.69143 L78.3241894,19.49221 C78.1249694,19.59377 78.0234094,19.79299 77.8241894,19.89065 C77.7226294,19.78909 77.4257494,20.39065 77.2226294,20.28909 C77.0234094,20.58987 76.5234094,20.68753 76.2226294,20.89065 C75.9218494,21.08987 75.6210694,21.58987 75.3241894,21.69143 C75.1249694,21.79299 74.9257494,21.79299 74.6249694,21.89065 C74.1249694,22.08987 74.1249694,22.08987 73.6249694,22.08987 L73.4257494,22.08987 C73.5273094,21.98831 73.5273094,21.98831 73.6249694,22.08987 C73.6249694,21.89065 73.4257494,21.89065 73.3241894,21.98831 C73.4257494,21.88675 73.3241894,21.88675 73.3241894,21.88675 C73.0234094,22.08597 72.6249694,22.08597 72.3241894,21.68753 C72.3241894,21.78909 72.3241894,21.78909 72.2226294,21.78909 C72.1210694,21.68753 72.4218494,21.08987 72.5234094,21.08987 C72.3241894,20.58987 72.8241894,20.28909 72.9218494,19.89067 C72.9218494,19.78911 73.0234094,19.58989 73.0234094,19.58989 C73.0234094,19.58989 73.3241894,19.19145 73.2226294,19.48833 L73.3241894,19.48833 C73.2226294,19.48833 73.2226294,19.58989 73.3241894,19.58989 C73.0273094,19.601608 73.0273094,19.601608 73.0273094,19.69927 C73.8280894,19.30083 73.1288694,17.69927 72.9257494,17.09767 C72.8241894,16.69923 72.7265294,16.09767 72.2265294,16.09767 C72.0273094,16.09767 71.3280894,16.59767 71.4257494,16.59767 C71.1249694,16.79689 71.2265294,17.39845 70.7265294,17.29689 C70.3280894,17.19533 70.3280894,16.39845 70.8280894,16.49611 C70.8280894,16.39455 71.0273094,15.89455 71.1288694,15.79689 C71.3280894,15.59767 71.4296494,15.09767 71.3280894,14.69529 C71.2265294,14.19529 70.6288694,13.79685 71.3280894,13.89451 C71.2265294,13.89451 71.1288694,13.79295 71.2265294,13.69529 C70.9257494,13.39451 70.9257494,13.19529 70.4257494,12.99607 C70.1249694,12.89451 69.9257494,12.79685 69.7265294,12.79685 C69.5273094,12.69529 69.5273094,12.59763 69.3280894,12.59763 C69.6288694,12.29685 69.0273094,12.19919 68.9296494,12.29685 C68.8280894,12.39841 69.2304294,12.59763 69.2304294,12.59763 C69.1288694,12.79685 68.7304294,12.39841 68.6288694,12.39841 C68.5273094,12.39841 68.3280894,12.49997 68.1288694,12.49997 C68.3280894,12.60153 67.7304294,13.39841 68.4296494,13.30075 C68.0312094,13.69919 67.8280894,13.49997 67.7304294,13.90231 C67.6288694,14.20309 67.9296494,14.70309 67.5312094,14.90231 C67.5312094,14.70309 67.7304294,14.50387 67.6327694,14.30075 C67.5312094,14.30075 67.5312094,14.49997 67.4335494,14.60153 C67.6327694,14.60153 67.4335494,14.80075 67.4335494,14.80075 C67.4335494,14.69919 67.5351094,14.40231 67.4335494,14.30075 L67.4335494,14.19919 C67.4335494,14.09763 67.4335494,13.99997 67.3319894,13.89841 L67.3319894,13.99997 L67.3319894,13.69919 C67.2304294,13.80075 66.8319894,14.49997 66.7304294,14.30075 C66.6288694,14.49997 66.3319894,14.80075 66.3319894,14.99997 C66.2304294,15.30075 66.4335494,15.80075 66.2304294,16.19917 C66.2304294,16.30073 66.0312094,16.49995 66.0312094,16.59761 C66.0312094,16.79683 66.1327694,16.99605 66.2304294,17.29683 C66.2304294,17.49605 66.0312094,17.49605 66.1288694,17.69527 C66.1288694,17.89449 66.3280894,18.09371 66.4296494,18.29683 C66.9296494,19.29683 67.1288694,19.99603 66.7304294,21.09763 C66.5312094,21.59763 66.4296494,21.89841 66.1288694,22.09763 C65.9296494,22.19919 65.0272694,22.49607 65.1288694,22.39841 L65.0273094,22.39841 C65.0273094,21.89841 64.5273094,21.49997 64.4257494,21.09761 C64.3241894,20.69917 64.4257494,20.29683 64.4257494,19.89841 C64.3241894,19.29685 64.1249694,18.99997 64.2265294,18.19921 C64.3280894,17.49999 64.4257494,16.80081 64.5273094,16.09761 C64.5273094,15.89839 65.2265294,14.29681 65.0273094,14.09761 C65.1288694,14.19917 65.1288694,13.99605 65.1288694,13.89839 C65.2304294,13.89839 65.2304294,13.79683 65.2304294,13.69917 C65.5312094,13.89839 65.5312094,13.09761 65.2304294,13.39839 L65.2304294,13.29683 C65.1288694,13.69527 64.9296494,14.09761 64.6288694,14.49603 C64.5273094,14.59759 63.7304294,15.79683 63.6288694,15.69523 C63.4296494,15.39445 64.1288694,14.49603 64.2304294,14.39443 C64.2304294,14.39443 64.8319894,12.79283 64.9296494,12.59363 C64.9296494,12.69519 65.0312094,12.89441 65.0312094,12.99207 C65.0312094,12.89051 65.4296494,12.49207 65.4296494,12.49207 C65.5312094,12.39051 65.6288694,12.49207 65.7304294,12.39051 L65.7304294,12.58973 C65.3319894,12.58973 65.6288694,12.98817 65.7304294,13.08973 C65.6288694,12.89051 66.0312094,12.48817 66.1288694,12.39051 C66.4296494,12.08973 66.7304294,12.19129 67.1288694,11.99207 C67.5273094,11.79285 67.4296494,11.59363 67.9296494,11.69129 C68.0312094,11.69129 68.6288694,12.19129 68.7304294,12.08973 L68.7304294,11.58973 C68.8319894,11.58973 68.9296494,11.58973 68.9296494,11.78895 C69.0312094,11.68739 69.2304294,11.98817 69.2304294,11.89051 C69.4296494,11.49207 70.0312094,11.89051 70.1288694,11.69129 C70.4296494,11.89051 70.7304294,11.69129 70.5273094,11.29285 C70.3280894,11.09363 70.1288694,11.29285 70.1288694,11.49207 C70.0273094,11.39051 69.6288694,11.39051 69.8280894,11.19129 C69.7265294,11.19129 69.6288694,11.08973 69.6288694,11.08973 L69.5273094,10.28895 C69.4257494,10.18739 69.0273094,10.48817 68.9257494,10.58973 L68.2265294,10.58973 C67.8280894,10.39051 68.3280894,9.98817 68.0273094,9.89051 C67.8280894,9.78895 67.5273094,10.08973 67.3280894,10.19129 C67.0273094,10.29285 66.8280894,10.29285 66.5273094,10.29285 C66.0273094,10.39441 65.8280894,10.79285 65.4257094,10.99207 C65.5272694,10.69129 65.0272694,10.79285 65.2264894,10.99207 C65.0272694,10.79285 64.4257094,10.99207 64.1248894,10.89051 C63.7264494,10.69129 63.4256694,9.78891 62.7264894,10.19129 L62.8280494,10.08973 C62.5272694,10.08973 62.4296094,10.39051 62.3280494,10.58973 C62.1288294,10.19129 63.1288294,9.28893 63.0272694,9.19133 C63.0272694,9.19133 63.4257094,9.19133 63.4257094,9.08977 C63.4257094,8.39055 62.0273094,9.58977 61.9257094,9.69133 L61.9257094,9.58977 C61.5272694,10.08977 61.0272694,10.39055 60.4257094,10.69137 L60.0272694,10.69137 C59.9257094,10.79293 59.8280494,10.99215 59.7264894,11.08981 C59.5272694,11.19137 59.1249294,11.48825 58.8280494,11.28903 L58.9296094,11.28903 C58.8280494,11.28903 58.7303894,11.18747 58.6288294,11.08981 L58.7303894,11.08981 L58.5311694,11.08981 L58.6327294,11.08981 C58.5311694,11.19137 58.4335094,11.19137 58.4335094,11.19137 C58.4335094,10.89059 58.5350694,10.69137 58.8319494,10.58981 C58.7303894,10.69137 58.5311694,10.78903 58.5311694,10.98825 C58.6327294,10.88669 58.7303894,10.78903 58.8319494,10.78903 C58.7303894,10.68747 59.1327294,10.58981 59.1327294,10.39059 L59.0311694,10.49215 C59.0311694,10.39059 59.3319494,10.19137 59.2303894,10.09371 C59.0272694,9.99996 59.0272694,10.3984 58.9256994,10.3984 C58.9256994,10.29684 58.8241394,10.29684 58.9256994,10.09762 L58.8241394,10.19918 L58.8241394,10.09762 C58.7225794,10.19918 58.6249194,10.19918 58.6249194,10.29684 C58.4256994,10.09762 58.5233594,10.49606 58.5233594,10.49606 L58.3241394,10.49606 C58.3241394,10.3945 58.3241394,10.3945 58.2225794,10.29684 C58.2225794,10.3984 57.9217994,10.49606 58.1210194,10.59762 C57.9217994,10.79684 56.8202194,11.3984 56.5194194,11.19918 C56.7186394,11.19918 57.1209794,10.69918 57.2186394,10.59762 C57.5194194,10.29684 57.8201994,9.8984 58.1170794,9.59762 C58.5155194,9.19918 58.8162994,8.8984 59.3162794,8.69918 C59.7147194,8.49996 60.3162794,7.99996 60.7146794,7.99996 C60.1131194,8.10152 59.6130794,7.80074 58.9138794,7.8984 L58.9138794,7.79684 C58.6130994,7.8984 58.5154394,7.79684 58.4138794,7.49606 C58.2146594,7.59762 58.0154394,7.79684 57.7146594,7.8945 C57.6130994,7.99606 57.4138794,7.8945 57.2146594,7.99606 C57.3162194,7.79684 57.1130994,7.8945 57.0154394,7.79684 C57.1169994,7.49606 55.7146394,7.09762 56.0154394,7.59762 C55.8162194,7.69918 55.8162194,7.29684 55.7146594,7.29684 C55.6130994,7.19528 55.5154394,7.19528 55.3162194,7.09762 C55.3162194,6.99606 55.4177794,6.99606 55.4177794,6.8984 C55.5193394,6.59762 54.1169794,6.69918 54.1169794,6.79684 C54.0271354,6.8984 54.0271354,6.99996 53.7263594,6.99996 C53.6247994,6.99996 53.7263594,6.80074 53.6247994,6.80074 C53.4255794,6.80074 53.3240194,6.80074 53.1247994,6.69918 C52.6247994,6.59762 52.4255794,6.3984 52.1247994,6.19918 C52.1247994,6.19918 51.7263594,5.80074 51.7263594,5.80074 C51.6247994,5.80074 51.1247994,6.49996 51.0271394,5.99996 C51.0271394,5.8984 51.1286994,5.8984 51.2263594,5.8984 C36.7263594,5.8984 22.3283594,4.1992 8.42535944,0 L8.42535944,0.10156 C8.32379944,0 8.22613944,0.10156 8.32379944,0.20312 C8.12457944,0.30468 8.32379944,0.40234 8.32379944,0.5039 C8.42535944,0.5039 8.22223944,0.70312 8.32379944,0.90234 C8.12457944,0.70312 7.82379944,0.40234 7.72223944,0.90234 C7.72223944,0.60156 7.42145944,0.90234 7.42145944,1.10156 C7.42145944,1.20312 7.81989944,1.40234 7.72223944,1.5 C7.72223944,1.5 7.82379944,1.5 7.92145944,1.60156 C7.92145944,1.5 8.02301944,1.20312 7.92145944,1.40234 C7.92145944,1.20312 8.12067944,1.20312 7.92145944,1.10156 L8.02301944,1 C8.12457944,1.5 7.92145944,1.60156 7.92145944,2 C7.92145944,2.19922 8.12067944,2.39844 8.02301944,2.60156 C8.32379944,2.40234 8.02301944,2.80078 8.32379944,2.80078 C8.22614344,3 8.02691944,3.19922 8.12848944,3.39844 C8.02692944,3.300783 8.02692944,3.80078 8.02692944,3.89844 C7.82770944,3.79688 8.02692944,3.69922 7.92536944,3.5 C7.82380944,3.5 7.72614944,3.69922 7.72614944,3.80078 C7.72614944,3.69922 7.82770944,3.60156 7.92536944,3.5 C7.82380944,3.39844 7.92536944,3.39844 7.82380944,3.39844 C7.92536944,3.5 8.02302944,3.5 7.92536944,3.39844 C8.02692944,3.300783 8.02692944,3.19922 8.12848944,3.10156 L8.02692944,3.10156 C8.12848944,3 8.22614944,2.70312 8.12848944,2.60156 C8.02692944,2.60156 7.92926944,2.60156 8.02692944,2.70312 L7.12848944,3.20312 C7.23004944,3.0039 7.62848944,2.90234 7.52692944,2.70312 L7.52692944,2.80468 L7.52692944,2.70312 L7.52692944,2.80468 C7.52692944,2.90624 7.42536944,2.90624 7.42536944,3.0039 C7.42536944,3.20312 7.82380944,2.40234 7.82380944,2.40234 C8.02302944,2.5039 8.02302944,1.80078 7.72224944,2.20312 L7.72224944,2.10156 C8.02302944,2 7.52302944,1.70312 7.52302944,2.10156 C7.52302944,1.90234 7.32380944,1.90234 7.32380944,2.10156 C7.22224944,1.70312 6.82380944,1.70312 6.42536944,1.60156 C6.32380944,1.60156 5.72614944,1.30078 5.82380944,1.30078 C5.62458944,1.5 5.02302944,-0.09762 4.82380944,1.10156 C4.82771544,1.60156 5.02692944,1.89844 5.02692944,2.39846 C5.02692944,3.00002 4.92536944,3.59766 4.82770944,4.09766 C5.02692944,4.09766 4.92926944,3.79688 5.12848944,3.89844 C5.42926944,4 4.92926944,4.09766 5.42926944,4.19922 C5.23004944,4.19922 5.03082944,4.19922 5.03082944,4.30078 C5.03082944,4.19922 5.03082944,4.10156 4.92926944,4.19922 C4.73004944,4.30078 4.92926944,4.69922 5.12848944,4.80078 L5.12848944,4.69922 C5.23004944,4.69922 5.23004944,4.69922 5.32770944,4.80078 C5.22614944,4.80078 4.92926944,5.19922 4.92926944,5.19922 C4.92926944,5.09766 5.03082944,4.89844 5.03082944,4.80078 C5.03082944,4.69922 4.63238944,5.69922 4.73004944,5.69922 C4.83160944,5.69922 5.23004944,5.89844 5.33160944,5.80078 C5.33160944,5.90234 5.43316944,6 5.53082944,6 L5.33160944,6 L5.33160944,6.10156 C5.13238944,6.10156 5.13238944,5.90234 4.93316944,6 C4.93316944,6.10156 5.03472944,6.10156 5.03472944,6.19922 C5.03472944,6.09766 4.83550944,5.89844 4.73394944,5.89844 C4.73394944,6.39844 4.53472944,6.69922 4.43316944,7.19924 C4.33160944,7.39846 4.43316944,7.50002 4.33160944,7.59768 C4.23004944,7.2969 4.13238944,7.89846 4.03082944,7.99612 C4.02692344,8.000026 3.72613944,8.50003 3.72613944,8.69924 C3.52691944,8.69924 3.42535944,9.19924 3.42535944,9.39846 C3.32379944,9.39846 3.22613944,9.7969 3.22613944,9.7969 C3.02691944,10.00002 2.72613944,11.1016 2.52691944,11.3985 L2.62847944,11.3985 C2.52691944,11.3985 2.12847944,11.8985 2.12847944,12.09772 C2.02691944,12.09772 1.52691944,12.8985 1.52691944,12.99616 C1.42535944,13.3946 1.52691944,13.79694 1.32769944,14.19536 L1.42925944,14.19536 C1.12847944,14.49614 1.32769944,15.19536 1.32769944,15.49616 C1.32769944,15.8946 1.32769944,16.3946 1.12847944,16.79696 C0.929259441,17.39852 0.628479441,17.6954 0.230039441,18.19536 C-0.168400559,18.79692 0.0308194413,18.99614 0.230039441,19.59376 C0.628479441,20.4922 0.0308194413,21.39456 0.0308194413,22.29296 C0.0308194413,23.1914 1.23001944,23.99216 0.632379441,24.89456 L0.831599441,24.89456 C0.831599441,24.793 1.43315944,25.49612 1.53081944,25.49612 C0.929259441,25.69534 1.42925944,27.39452 1.63237944,27.59772 C1.92534944,28.00006 2.42534944,28.00006 2.12846944,28.50006 C1.92924944,28.80084 1.82768944,28.50006 1.73002944,28.69928 C1.42924944,29.19928 2.03080944,30.09768 2.23002944,30.59768 C2.33158944,30.99612 2.42924944,31.2969 2.73002944,31.69928 C2.83158944,31.80084 3.03080944,31.8985 3.03080944,32.09772 C3.03080944,32.19928 2.83158944,32.29694 2.92924944,32.3985 C3.02690544,32.60162 3.12846944,32.69928 3.22612944,33.00006 C3.22612944,33.19928 3.02690944,33.69928 3.02690944,33.8985 C3.02690944,34.59772 4.12850944,34.59772 4.72610944,34.8985 C5.22610944,35.19928 5.32766944,36.0001 6.02690944,36.3008 C6.42534944,36.50002 6.52690944,36.10158 6.72612944,36.8008 C6.82768944,37.00002 6.62456944,37.00002 6.72612944,37.19924 C6.92534944,37.39846 6.92534944,37.09768 6.92534944,37.19924 C7.12456944,37.19924 7.42534944,37.8008 7.52690944,37.69924 C7.72612944,38.09768 8.12846944,38.39846 8.22612944,38.89844 C8.32768944,39.09766 8.12456944,39.79688 8.22612944,40.00004 C8.12456944,40.1016 8.22612944,40.19926 8.22612944,40.30082 C7.82768944,40.69926 9.52692944,40.80082 9.52692944,40.80082 C10.7261294,40.90238 11.8277294,41.1016 13.0269294,41.19926 C12.8277094,41.5977 12.7261494,41.50004 13.0269294,41.80082 C13.3277094,42.19926 14.3277294,42.6016 14.7261294,42.80082 C15.9253294,43.50004 17.1245294,44.19922 18.2261294,44.90242 C18.7261294,45.2032 19.2261294,45.60164 19.8277294,45.80086 C20.2261694,45.90242 20.8277294,45.90242 21.2261294,46.00008 C22.6245294,46.1993 24.0269294,46.39852 25.3277294,46.60164 C25.3277294,46.30086 25.3277294,45.7032 25.5269494,45.60164 C25.7261694,45.50008 26.7261494,45.7032 27.0269494,45.80086 C27.5269494,45.90242 28.3277494,45.80086 28.7261494,46.00008 C29.0269294,46.1993 29.1245894,46.50008 29.3277094,46.80086 C29.6284894,47.1993 30.1284894,47.60164 30.4293094,48.00006 C30.8277494,48.3985 31.4293094,48.69928 31.7301094,49.19926 C32.0308894,49.80082 31.9293294,50.50006 32.2301094,51.09766 C32.6285494,51.89844 33.4293094,52.19926 34.0309094,52.59766 C34.6324694,52.9961 35.0309094,53.39844 35.6325094,52.59766 C35.9332894,52.09766 35.9332894,51.29686 36.8317094,51.39846 C36.8317094,51.00002 37.6324894,51.39846 37.9333094,51.39846 C38.2341294,51.39846 38.5348694,51.39846 38.8317494,51.50002 C38.9333094,51.60158 39.0309694,52.00002 39.1325294,51.8008 C39.0309694,52.00002 39.9333094,52.69924 40.1325294,52.9024 C40.3317494,53.30084 40.4333094,54.3008 40.8317494,54.504 C40.5309694,54.80478 41.4333094,55.504 41.5309694,55.7032 C41.7301894,56.00398 41.8317494,56.30476 42.1325294,56.50398 C42.2340894,56.60554 42.4333094,56.60554 42.5309694,56.80476 C42.6325294,57.00398 42.5309694,57.30476 42.6325294,57.50398 C42.6325294,57.7032 42.7340894,58.00398 42.8317494,58.2032 C42.9333094,58.50398 43.1325294,58.80476 43.2301894,59.10164 C43.3317494,59.30086 43.3317494,59.40242 43.4294094,59.50008 C43.7301894,59.80086 44.4294094,59.89852 44.8278094,60.10164 C45.2262494,60.30086 45.4293694,60.30086 45.9294094,60.40242 C46.1286294,60.40242 46.3278494,60.40242 46.5309694,60.50398 L46.8317494,60.80476 C46.9333094,60.80476 47.4333094,60.7032 47.6325294,60.60554 C47.9333094,60.10554 47.1325294,59.30474 47.3317494,58.80474 C47.3317494,58.80474 47.3317494,58.9063 47.2301894,58.9063 C46.8317494,57.7071 47.4294094,56.6055 48.2301894,55.8047 C48.2301894,55.50392 49.3317894,55.10548 49.2301894,54.90626 C49.9294094,54.50782 50.6285894,54.20704 51.2301894,53.80466 C51.5309694,53.60544 52.5309894,53.00388 52.6285894,52.60546 L52.5270294,52.60546 C52.8278094,52.40624 53.1285894,52.20702 53.4254694,52.10546 C53.7262494,52.0039 54.1246894,52.0039 54.4254694,51.80468 C55.1246894,51.40624 55.8238694,51.60546 56.5270694,51.90624 C57.0270694,52.10546 57.2262894,52.0078 57.7262694,52.10546 C58.0270494,52.10546 58.4254894,52.40624 58.6247094,52.30468 C58.6247094,52.30468 58.8239294,51.90624 58.6247094,52.0039 C58.5231494,51.80468 58.2262694,51.80468 58.0231494,52.0039 C58.1247094,51.90234 57.7223694,51.90234 57.7223694,51.70312 C57.7223694,51.60156 57.8239294,51.60156 57.8239294,51.80468 C57.9254894,51.80468 58.2223694,51.70312 58.2223694,51.5039 L58.5231494,51.5039 C58.4215894,51.80468 58.6247094,51.80468 58.9215894,51.60546 C58.9215894,51.70702 59.1208094,52.10546 59.1208094,52.10546 C59.2223694,52.10546 59.3200294,52.0039 59.4215894,52.0039 C59.3200294,52.10546 59.4215894,52.20312 59.5231494,52.10546 C59.5231494,52.20702 59.7223694,52.0039 59.7223694,52.10546 C59.6208094,52.0039 59.7223694,52.30468 59.8239294,52.30468 C59.8239294,52.20312 59.6247094,52.5039 59.7223694,52.40624 L59.5231494,52.40624 C59.4215894,52.70702 60.2223694,52.80468 60.3239294,52.70702 C60.2223694,52.90624 60.8239294,52.90624 60.6247094,52.80858 L60.7262694,52.80858 L60.6247094,52.80858 C60.6247094,52.91014 60.8239294,52.91014 60.8239294,52.80858 C61.0231494,52.80858 60.9254894,52.5078 60.8239294,52.41014 C60.9254894,52.5117 61.0231494,52.60936 61.0231494,52.41014 C61.1247094,52.41014 61.2223694,52.30858 61.3239294,52.30858 C61.3239294,52.30858 61.3239294,52.41014 61.4254894,52.41014 L61.5270494,52.30858 C61.5270494,52.20702 61.7262694,52.60936 61.7262694,52.60936 C61.7262694,52.60936 61.6247094,52.60936 61.6247094,52.71092 L61.8239294,52.71092 C61.6247094,53.0117 62.4254894,52.31248 62.1247094,52.5117 C62.1247094,52.41014 62.1247094,52.31248 62.0231494,52.31248 C62.3239294,52.5117 62.2223694,52.0117 62.1247094,51.81248 L62.2262694,51.81248 C62.3278294,52.0117 62.5270494,51.81248 62.6247094,51.91404 L62.5231494,52.0156 C62.6247094,52.11716 62.6247094,52.11716 62.7223694,52.31638 C62.7223694,52.41794 63.0231494,52.31638 63.0231494,52.31638 L62.9215894,52.31638 C63.0231494,52.41794 63.1208094,52.61716 63.3200294,52.5156 C63.4215894,52.61716 63.5192494,53.0156 63.6208094,52.71482 C63.5192494,53.0156 63.9215894,52.91404 63.8200294,52.71482 C63.9215894,52.81638 63.9215894,52.91404 64.1208094,53.0156 C64.1208094,52.91404 64.1208094,52.81638 64.0192494,52.61716 C64.3200294,53.0156 64.3200294,52.5156 64.2184694,52.5156 L64.3200294,52.41404 C64.2184694,52.31248 64.2184694,52.31248 64.1208094,52.41404 L64.1208094,52.31248 C64.1208094,52.21092 64.0192494,52.11326 63.9215894,52.0117 C63.9215894,52.11326 63.9215894,52.21092 63.8200294,52.21092 C63.8200294,52.0117 63.6208094,52.10936 63.5192494,52.10936 C63.8200294,52.0078 63.4176894,51.91014 63.2184694,52.0078 L63.2184694,51.80858 C63.1169094,51.91014 63.0192494,51.70702 62.8200294,51.70702 C62.8200294,51.60546 62.8200294,51.60546 62.7184694,51.60546 L62.8200294,51.70702 L62.8200294,51.60546 C62.9215894,51.70702 63.0192494,51.60546 62.8200294,51.5039 C62.9215894,51.40234 63.0192494,51.60546 63.2184694,51.5039 C63.2184694,51.40234 63.0192494,51.40234 62.9176894,51.30468 C63.0192494,51.20312 62.7184694,51.30468 62.8161294,51.10546 L63.2145694,51.30468 L63.2145694,51.20312 C63.3161294,51.10156 63.2145694,50.90234 63.4137894,50.90234 L63.3122294,50.80078 C63.3122294,50.69922 63.4137894,50.69922 63.4137894,50.69922 C63.5153494,50.5 63.2145694,50.69922 63.1130094,50.59766 C63.3122294,50.59766 63.3122294,50.39844 63.1130094,50.4961 L63.1130094,50.39454 L63.0114494,50.39454 C63.0114494,50.39454 63.0114494,50.29298 63.1130094,50.29298 C63.1130094,50.19142 62.6130094,50.69142 62.6130094,50.69142 L62.3122294,50.39064 C62.3122294,50.4922 63.5114294,49.4922 63.2106694,49.58986 C63.3122294,49.39064 63.3122294,49.69142 63.4098894,49.69142 C63.5114494,49.58986 64.2106694,49.4922 64.3083294,49.39064 C64.4098894,49.4922 64.8083294,49.69142 64.8083294,49.39064 C64.8083294,49.58986 65.3083294,49.58986 65.2067694,49.28908 L65.5075494,49.39064 C65.5075494,49.4922 65.6091094,49.4922 65.6091094,49.4922 C65.1091094,49.59376 64.5075094,49.4922 64.0075094,49.69142 C64.4059494,49.69142 64.8082894,49.79298 65.3083094,49.69142 L65.2067494,49.69142 C65.2067494,49.69142 65.7067494,49.58986 65.8083094,49.4922 C65.8083094,49.39064 65.7067494,49.39064 65.6090894,49.4922 C65.7106494,49.19142 65.7106494,48.89064 65.7106494,48.59376 C66.1090894,48.59376 65.7106494,49.29298 66.1090894,49.29298 C66.1090894,49.39454 66.2106494,49.4922 66.3083094,49.4922 C66.2067494,49.59376 65.7067494,49.4922 65.7067494,49.69142 C66.0075294,49.58986 66.4059694,49.4922 66.7067494,49.39064 C67.1051894,49.28908 67.5075294,49.08986 67.9059494,48.9922 C68.7067294,48.79298 69.7067494,48.69142 70.4059494,49.29298 L70.4059494,49.19142 C70.6051694,49.29298 70.8043894,49.39064 71.0075094,49.58986 C71.0075094,49.58986 71.5075094,50.19142 71.3082894,50.08986 C71.2067294,50.08986 71.2067294,49.78908 71.2067294,49.69142 C71.3082894,49.89064 71.2067294,50.08986 71.6051694,50.19142 C71.9059494,50.29298 72.0036094,50.39064 72.3043894,50.08986 C72.4059494,50.08986 72.7028294,49.69142 72.6051694,49.69142 C72.3043894,49.69142 72.1051694,50.19142 71.8043894,50.19142 C72.0036094,49.9922 71.7028294,49.9922 71.6051694,49.9922 C71.5036094,49.9922 72.3043894,49.69142 72.2067294,49.69142 C72.1051694,49.79298 72.1051694,49.79298 72.1051694,49.89064 C72.2067294,49.89064 72.7067294,49.39064 72.8043894,49.39064 L73.2028294,49.28908 C73.2028294,49.18752 73.1012694,49.08986 73.2028294,48.9883 C73.2028294,48.9883 73.4020494,48.88674 73.4020494,48.78908 C73.9020494,48.78908 74.2028294,48.78908 74.6012494,49.08986 C74.9020294,49.28908 75.1012494,49.69142 75.3004694,49.9883 C75.4996894,50.18752 75.8004694,50.58986 75.9996894,50.58986 L76.3004694,50.58986 C76.1989094,50.58986 76.9020294,50.9883 76.6989094,50.9883 L76.9996894,51.18752 C77.1012494,51.38674 76.6989094,54.08592 77.1989094,53.98832 C77.1989094,53.88676 77.1989094,53.88676 77.0973494,53.7891 C77.1989094,53.7891 77.2965694,53.89066 77.2965694,53.89066 C77.2965694,53.89066 77.3981294,53.58988 77.2965694,53.49222 C77.2965694,53.39066 77.2965694,53.39066 77.3981294,53.39066 C76.9996894,53.49222 77.1989094,53.2891 77.0973494,53.08988 C77.2965694,53.08988 77.4957894,53.58988 77.5973494,53.58988 C77.7965694,53.58988 77.3981294,53.2891 77.6989094,53.2891 L77.6989094,53.89066 C77.5973494,53.99222 77.4996894,54.19144 77.3981294,54.2891 C77.3981294,54.2891 77.4996894,54.2891 77.4996894,54.18754 L77.3981294,54.2891 L77.3981294,54.39066 C77.2965694,54.2891 77.0973494,54.2891 77.2965694,54.49222 C77.0973494,54.59378 77.4957894,54.89066 77.5973494,54.89066 C77.4957894,54.99222 78.1989094,55.7891 78.2965694,55.99226 L78.2965694,55.8907 C78.3981294,55.8907 78.4957894,55.99226 78.5973494,55.99226 C78.6989094,55.99226 78.4957894,55.59382 78.3981294,55.59382 C78.4996894,55.79304 78.5973494,55.59382 78.6989094,55.59382 C78.3981294,55.79304 78.6989094,56.19538 78.8004694,56.49226 C78.8004694,56.49226 78.6012494,55.99226 78.4996894,56.09382 C78.3981294,56.19538 78.8004694,56.69538 78.8981294,56.69538 C78.7965694,56.79694 78.4996894,56.49616 78.4996894,56.49616 C78.1989094,56.8946 79.3004694,56.8946 78.9996894,56.69538 C78.9996894,56.69538 79.3981294,56.79694 79.3981294,56.69538 C79.4996894,56.79694 79.3981294,56.8946 79.3981294,56.8946 C79.4996894,57.19538 79.6989094,57.69538 79.7965694,57.8946 C79.8981294,57.8946 79.9957894,57.8946 80.0973494,57.79304 C80.0973494,57.8946 80.1989094,57.8946 80.1989094,57.79304 C80.3004694,57.8946 80.4996894,57.79304 80.6989094,57.8946 C80.5973494,57.8946 80.4996894,57.99616 80.3981294,57.99616 L80.5973494,57.99616 C80.4957894,58.09772 80.6989094,57.99616 80.5973494,58.09772 C80.6989094,58.09772 80.7965694,58.19928 80.8981294,58.09772 C80.9996894,58.19928 81.0973494,58.29694 80.9996894,58.3985 L81.1012494,58.3985 C80.9996894,58.50006 81.3004694,58.59772 81.2028094,58.79694 C81.3043694,58.79694 82.0035894,58.99616 81.7028094,59.09772 C81.7028094,59.09772 80.7028094,58.69928 81.3043694,59.19928 C81.5035894,59.3985 81.9059294,59.09772 82.2028094,59.19928 L82.3043694,59.19928 L82.3043694,59.30084 C82.4059294,59.30084 82.5035894,59.10162 82.7028094,59.10162 C82.6012494,59.10162 82.6012494,59.00006 82.6012494,59.00006 C82.7028094,59.00006 82.8004694,59.00006 82.9020294,59.10162 C82.8004694,59.20318 82.7028094,59.50006 82.6012494,59.60162 C82.6012494,59.60162 82.3004694,60.00006 82.3004694,60.00006 L82.3004694,59.8985 L82.1989094,60.00006 C82.0973494,59.80084 81.9996894,60.10162 81.9996894,60.19928 C81.6012494,60.30084 81.4996894,60.3985 81.1989094,60.59772 C81.3981294,60.49616 81.5973494,60.3985 81.4996894,60.69928 C81.6989094,60.30084 81.8981294,60.30084 82.1989094,60.19928 L81.9996894,60.19928 C82.1989094,60.09772 83.3004894,58.59768 83.1012894,58.59768 L82.9997294,58.69924 C82.9997294,58.3008 82.9997294,57.8008 83.1012894,57.39844 L83.2028494,57.69922 C83.3044094,57.39844 83.1012894,56.69922 83.1012894,56.39842 C83.1012894,55.99998 83.1012894,55.6992 82.9020694,55.29682 C82.6012894,54.5976 82.2028494,53.69522 81.7028694,53.09762 L81.8044294,53.09762 C81.4059894,52.69918 81.3044294,52.29684 81.2028694,51.69922 C81.1013094,51.30078 80.9020894,51 80.5036494,50.59762 C79.7028694,49.59762 79.0036494,48.49602 78.7028494,47.19922 L78.6012894,47.19922 C78.6012894,47 78.3005094,45.80082 78.4997294,45.69922 C78.3981694,45.39844 78.8981694,45.39844 78.3981694,45.19922 L78.5973894,45.19922 L78.5973894,45.09766 C78.7966094,44.9961 78.7966094,44.19922 78.6989494,44.29688 L78.6989494,44.19532 C78.8005094,44.19532 78.6989494,44.19532 78.6989494,44.19532 C78.8005094,44.29688 78.9997294,44.09376 78.8981694,43.89454 C78.7966094,43.89454 78.7966094,43.89454 78.7966094,43.79298 C78.8981694,43.79298 78.9958294,43.79298 79.0973894,43.59376 L78.9958294,43.59376 C78.9958294,43.4922 79.0973894,43.4922 79.0973894,43.59376 C79.2966094,43.59376 79.3981694,43.29298 79.1989494,43.29298 C79.3005094,43.09376 79.5973894,43.09376 79.4997294,42.89454 C79.4997294,42.69532 79.1012894,42.89454 79.1989494,42.59376 C79.3005094,42.69532 79.3981694,42.69532 79.4997294,42.79298 L79.4997294,42.69142 C79.4997294,42.79298 79.4997294,43.08986 79.6012894,42.89064 C79.7028494,43.08986 79.9020694,42.4922 79.9020694,42.4922 L79.8005094,42.4922 L79.8005094,42.39064 L79.9020694,42.39064 L79.8005094,42.28908 C79.9020694,42.28908 79.9997294,42.39064 79.9997294,42.18752 C80.1012894,42.38674 80.6989494,41.78908 80.6989494,41.78908 C80.8981694,41.78908 80.9997294,41.39064 80.8005094,41.4883 C80.9997294,41.58986 81.4997294,41.18752 81.4020694,40.9883 L81.3005094,41.08986 C81.3005094,40.9883 81.4997294,40.78908 81.4997294,40.9883 C81.6012894,40.9883 81.6989494,40.88674 81.8981694,40.88674 L81.7966094,40.78518 C81.7966094,40.78518 81.8981694,40.68362 81.9958294,40.68362 C81.9958294,40.68362 81.9958294,40.58206 81.8942694,40.58206 C81.9958294,40.58206 82.3942694,38.38286 82.9958694,38.78126 C83.0974294,38.48048 83.8943094,38.48048 84.1950694,38.48048 C84.1950694,37.17968 85.0935094,36.17968 86.3942694,35.98048 C86.2927094,35.87892 86.2927094,35.87892 86.2927094,35.78126 C86.3942694,35.88282 86.3942694,35.98048 86.4919294,35.98048 C86.3903694,36.08204 86.3903694,36.1797 86.3903694,36.28126 L86.4919294,36.38282 C86.5934894,36.08204 86.7927094,35.78126 86.8903694,35.48438 L86.7888094,35.48438 C86.8903694,35.48438 86.8903694,35.28516 86.7888094,35.28516 L86.8903694,35.28516 C86.7888094,35.1836 86.6911494,35.1836 86.6911494,35.28516 C86.6911494,35.28516 86.6911494,35.38672 86.7927094,35.38672 C86.6911494,35.38672 86.5934894,35.48828 86.5934894,35.48828 C86.6950494,35.38672 86.6950494,35.1875 86.4919294,35.1875 L86.4919294,35.38672 C86.2927094,35.48828 86.1911494,35.6875 86.0934894,35.6875 C85.9919294,35.78906 85.5934894,35.58594 85.5934894,35.48828 C85.8942694,35.48828 85.9919294,35.6875 86.1950494,35.38672 C86.0934894,35.1875 86.4958294,35.08594 86.1950494,34.88672 C86.4958294,34.98828 86.4958294,34.6875 86.2966094,34.58594 L85.6950494,34.48438 L85.6950494,34.58594 C85.6950494,34.38672 85.4958294,34.48438 85.3942694,34.48438 L85.3942694,34.38282 C85.5934894,34.48438 85.9958294,34.48438 86.1950494,34.48438 L86.1950494,34.38282 L86.0934894,34.38282 C86.0934894,34.38282 86.0934894,34.28126 85.9919294,34.1836 L86.0934894,34.1836 L85.9919294,34.1836 C85.9919294,34.1836 85.9919294,34.28516 86.0934894,34.28516 L86.1950494,34.28516 L86.2966094,34.38672 C86.1950494,34.38672 86.3981694,34.1875 86.3981694,34.28516 L86.4997294,34.38672 L86.3981694,34.38672 C86.4997294,34.48828 86.5973894,34.48828 86.6989494,34.38672 L86.8005094,34.38672 L86.8005094,34.28516 C86.9997294,34.58594 87.1012894,34.08594 87.1012894,34.08594 C88.0270694,34.39844 88.0270694,34 88.0270694,34 C88.1286294,33.898442 88.2262894,33.800782 88.1286294,33.601562 C88.2301894,33.902342 88.3278494,33.703122 88.4294094,33.601562 L88.3278494,33.5 C88.5270694,33.5 88.3278494,33 88.2262894,32.898442 C88.6247294,33.097662 89.0270694,33.597662 88.9255094,34.097642 C88.8239494,34.597642 88.1247294,34.496082 88.0270694,35.097642 C88.2262894,34.996082 88.8278494,34.597642 88.9255094,34.496082 C89.2262894,34.097642 88.8239494,33.394482 88.6247294,33.097682 L88.7262894,33.097682 C88.2262894,32.796902 87.7262894,32.097682 87.6246894,31.496082 L87.7262494,31.496082 C87.4254694,31.097642 87.4254694,30.597642 86.8278094,30.695302 C86.6285894,30.695302 86.4293694,30.894522 86.2262494,31.093742 C86.3278094,30.894522 86.3278094,30.894522 86.3278094,30.695302 C85.9293694,30.796862 86.0270294,30.296862 85.8278094,30.195302 C85.8278094,30.093742 86.2262494,30.593742 86.1285894,30.394522 C86.1285894,30.593742 86.4293694,30.695302 86.6285894,30.593742 C86.8278094,30.394522 86.5270294,30.093742 86.4293694,30.195302 C86.4293694,30.093742 86.3278094,29.996082 86.1285894,30.093742 C86.4293694,29.992182 86.3278094,29.894522 86.2301494,29.792962 C86.3317094,29.691402 86.3317094,29.792962 86.5309294,29.894522 C86.5309294,29.894522 86.5309294,29.496082 86.3317094,29.394522 C86.6324894,29.292962 85.8317094,29.195302 85.8317094,29.195302 C85.9332694,28.996082 85.4332694,28.996082 85.4332694,28.695302 C85.5348294,28.796862 85.7340494,28.894522 85.8317094,28.894522 C85.8317094,28.996082 85.9332694,29.195302 86.0309294,29.195302 L86.0309294,29.093742 C86.0309294,29.093742 86.3317094,29.292962 86.4293694,29.093742 C86.4293694,28.992182 86.3278094,28.992182 86.3278094,28.992182 C86.4293694,28.890622 86.3278094,28.792962 86.2262494,28.792962 C86.3278094,28.792962 86.3278094,28.792962 86.3278094,28.691402 C86.5270294,28.492182 85.4293694,27.691402 85.3278094,28.191402 C85.2262494,27.890622 85.0270294,28.089842 84.8278094,27.992182 L84.8278094,27.890622 C85.1285894,27.992182 84.9293694,27.691402 84.8278094,27.589842 C84.9293694,27.589842 85.0270294,27.890622 85.1285894,27.890622 C85.2301494,27.890622 85.2301494,27.789062 85.2301494,27.691402 L85.3317094,27.792962 C85.2301494,27.894522 85.6324894,27.992182 85.7301494,28.093742 C85.8317094,27.992182 85.8317094,27.992182 85.7301494,27.894522 C85.8317094,27.996082 85.8317094,28.195302 86.1285894,28.292962 C86.1285894,28.191402 86.1285894,28.093742 86.0270294,28.093742 L86.0270294,27.992182 L86.1285894,27.992182 C86.1285894,27.890622 85.9293694,27.492182 85.8278094,27.492182 L85.3278094,26.593742 C85.3278094,26.394522 85.4293694,26.195302 85.4293694,25.992182 L85.3278094,25.992182 L85.4293694,25.992182 L85.4293694,25.890622 L85.5309294,25.992182 C85.6324894,25.792962 85.4293694,25.792962 85.3317094,25.691402 C85.4332694,25.589842 85.4332694,25.589842 85.5309294,25.691402 C85.6324894,25.589842 85.4293694,25.292962 85.3317094,25.492182 L85.3317094,25.390622 C85.4332694,25.390622 85.7301494,25.089842 85.7301494,24.992182 C86.0309294,24.992182 85.8317094,24.492182 86.1285894,24.390622 L86.1285894,24.589842 L86.2301494,24.589842 C86.1285894,24.691402 86.1285894,24.789062 86.2301494,24.789062 C86.1285894,24.789062 86.0309294,24.789062 86.0309294,24.890622 C85.9293694,24.890622 85.9293694,24.890622 86.0309294,24.992182 C85.6324894,25.093742 86.1324894,25.691402 86.1324894,25.593742 C86.2340494,25.792962 85.7340494,25.593742 85.8317094,25.593742 C85.8317094,25.593742 85.7301494,26.093742 85.8317094,26.093742 C85.9332694,26.093742 85.9332694,25.992182 85.9332694,25.894522 L86.0348294,25.894522 C86.0348294,25.792962 86.0348294,25.792962 86.1363894,25.792962 L86.1363894,25.992182 C86.1363894,25.992182 86.2379494,25.992182 86.2379494,25.890622 C86.1363894,25.992182 86.1363894,25.992182 86.1363894,26.089842 C86.1363894,26.089842 86.2379494,26.089842 86.1363894,26.089842 L86.1363894,26.191402 C86.1363894,26.191402 86.0348294,26.191402 86.0348294,26.089842 L86.0348294,25.988282 C85.8356094,25.988282 85.8356094,26.488282 85.9332694,26.488282 C86.0348294,26.488282 86.0348294,26.386722 86.0348294,26.386722 C86.0348294,26.488282 86.1363894,26.386722 86.1363894,26.488282 L86.1363894,26.386722 C86.1363894,26.488282 86.2379494,26.488282 86.3356094,26.585942 C86.2340494,26.585942 86.0348294,26.484382 86.0348294,26.687502 C85.9332694,26.687502 86.0348294,26.687502 85.9332694,26.789062 C86.0348294,26.789062 86.0348294,27.187502 86.2340494,27.289062 L86.2340494,27.187502 C86.2340494,27.187502 86.5348294,27.488282 86.6324894,27.488282 C86.5309294,27.488282 86.4332694,27.589842 86.5309294,27.687502 C86.6324894,27.585942 86.6324894,27.687502 86.8317094,27.687502 C86.8317094,27.585942 86.7301494,27.488282 86.7301494,27.289062 C86.9293694,27.687502 86.9293694,27.187502 86.9293694,27.089842 L86.9293694,27.390622 C87.0309294,27.390622 87.0309294,27.390622 87.0309294,27.289062 L87.1324894,27.289062 C87.1324894,27.488282 86.9332694,27.390622 86.9332694,27.488282 C86.9332694,27.589842 87.0348294,27.687502 87.0348294,27.589842 L87.1363894,27.589842 C87.1363894,27.691402 87.0348294,27.691402 87.1363894,27.789062 C87.2379494,27.789062 87.3356094,27.687502 87.3356094,27.687502 C87.3356094,27.886722 87.1363894,27.789062 87.1363894,27.988282 C87.1363894,28.089842 87.3356094,28.289062 87.3356094,28.089842 C87.3356094,28.191402 87.4371694,28.191402 87.5348294,28.191402 L87.5348294,28.292962 L87.6363894,28.292962 C87.5348294,28.292962 87.4371694,28.394522 87.5348294,28.492182 C87.4332694,28.390622 87.2340494,28.593742 87.3356094,28.593742 C87.2340494,28.695302 87.0348294,29.292962 87.1363894,29.394522 C86.8356094,29.695302 87.4371694,30.195302 87.4371694,30.195302 L87.4371694,29.996082 L87.5387294,29.996082 C87.7379494,30.296862 87.7379494,29.796862 87.6402894,29.894522 C87.6402894,29.792962 87.6402894,29.792962 87.7418494,29.792962 C87.6402894,29.691402 87.6402894,29.593742 87.6402894,29.492182 C87.6402894,29.492182 87.7418494,29.492182 87.7418494,29.593742 L87.7418494,29.492182 C87.4410694,29.390622 87.8434094,29.292962 87.8434094,29.191402 L87.8434094,29.292962 C88.0426294,29.093742 87.8434094,28.394522 88.1441894,28.292962 L88.1441894,28.492182 C88.2457494,28.191402 88.3434094,27.992182 88.4449694,27.691402 L88.3434094,27.691402 C88.6441894,27.292962 88.6441894,26.191402 88.2418494,25.793002 C88.2418494,26.093782 87.7418494,25.492222 87.6402894,25.394562 C87.5387294,25.195342 87.4410694,24.593782 87.1402894,24.695342 C87.1402894,24.593782 87.0387294,24.593782 87.0387294,24.496122 C87.3395094,24.496122 87.6402894,24.796902 87.9371694,24.996122 C88.0387294,24.996122 88.2379494,24.796902 88.3356094,24.996122 C88.4371694,25.097682 88.4371694,25.496122 88.2340494,25.496122 C88.4332694,25.496122 88.4332694,25.695342 88.6324894,25.394562 L88.6324894,25.593782 C88.7340494,25.293002 88.7340494,24.992222 88.8317094,24.793002 C88.9332694,24.691442 89.5309294,24.093782 89.3317094,23.894562 C89.5309294,23.894562 89.7301494,21.496162 89.3317094,21.496162 C89.3317094,21.496162 89.3317094,21.597722 89.4332694,21.597722 L88.9332694,21.597722 C89.0348294,21.597722 89.0348294,21.496162 89.1324894,21.398502 L89.2340494,21.500062 C89.2340494,21.398502 89.6324894,21.000062 89.7340494,21.101622 C89.6324894,21.101622 89.6324894,21.203182 89.6324894,21.300842 C90.4332694,21.000062 91.1324894,20.699282 91.7340894,20.199242 C92.0348694,20.000022 92.8356894,19.500022 92.8356894,19.199242 C92.7341294,19.199242 92.6364694,19.199242 92.7341294,19.300802 C92.5349094,19.300802 92.4333494,19.500022 92.1325694,19.500022 L92.2341294,19.398462 C92.1325694,19.398462 92.1325694,19.296902 92.0349094,19.296902 C92.1364694,19.296902 92.1364694,19.195342 92.2341294,19.195342 C92.1325694,18.996122 91.7341294,19.593782 91.7341294,19.593782 C91.5349094,19.793002 91.3356894,19.793002 91.0349094,19.894562 C90.9333494,19.996122 90.2341294,20.195342 90.2341294,20.195342 C90.2341294,20.195342 90.1325694,20.093782 90.0349094,20.093782 L90.0349094,20.195342 L90.0349094,20.093782 C89.9333494,20.093782 89.6364694,20.293002 89.7341294,19.992222 C89.8356894,19.793002 90.4333494,19.691442 90.4333494,19.390662 C90.5349094,19.589882 90.8317894,18.992222 90.8317894,18.992222 L90.8317894,19.191442 C90.9333494,19.089882 91.8317894,18.890662 91.7302294,18.793002 C91.9294494,19.093782 92.1286694,18.492222 92.1286694,18.492222 C92.1286694,18.691442 92.3278894,18.593782 92.4294494,18.593782 C92.4294494,18.793002 93.0310094,18.293002 93.1286694,18.394562 C93.1286694,18.293002 93.1286694,18.195342 93.2302294,18.093782 C93.3317894,18.195342 93.4294494,17.992222 93.4294494,17.894562 C93.5310094,18.093782 93.7302294,17.894562 93.7302294,17.793002 C93.8317894,17.793002 93.9294494,17.793002 93.9294494,17.691442 C94.0310094,17.691442 94.0310094,17.492222 94.0310094,17.390662 C94.1325694,17.390662 94.2302294,17.390662 94.2302294,17.289102 C94.3317894,17.390662 94.3317894,17.187542 94.3317894,17.089882 C94.3317894,17.191442 94.4333494,17.089882 94.4333494,17.089882 C94.5349094,17.289102 94.3317894,17.390662 94.5349094,17.488322 C94.7341294,17.589882 94.9333494,17.187542 95.1364694,17.089882 C95.1364694,17.191442 95.5349094,16.988322 95.6364694,16.890662 L95.6364694,17.089882 C95.6364694,16.890662 95.6364694,16.691442 95.5349094,16.488322 C95.6364694,16.187542 94.8356894,15.789102 94.8356894,16.089882 C94.8356894,16.191442 95.0349094,16.089882 95.0349094,16.089882 C95.2341294,16.191442 95.2341294,16.289102 95.3356894,16.488322 L95.3356894,16.289102 C95.6364694,16.687542 95.0349094,16.890662 94.7341294,16.890662 L94.2341294,16.492222 L94.3356894,16.492222 C94.5349094,16.293002 93.7341294,15.793002 93.5349094,15.890662 C93.6364694,15.890662 93.6364694,15.992222 93.6364694,16.089882 C93.6364694,15.988322 93.5349094,15.988322 93.4372494,16.089882 L93.4372494,15.890662 C93.6364694,15.890662 93.4372494,15.789102 93.4372494,15.691442 C93.5388094,15.793002 93.5388094,15.691442 93.5388094,15.589882 C93.6403694,15.589882 93.7380294,15.390662 93.5388094,15.390662 C94.1403694,14.992222 93.6403694,15.191442 93.4372494,14.691442 C93.3356894,14.293002 93.5388094,13.191442 93.7380294,12.890642 C93.7380294,12.890642 93.8395894,12.890642 93.9372494,12.789082 C94.0388094,12.687522 93.8356894,12.589862 93.8356894,12.488302 C93.8356894,12.386742 93.9372494,11.988302 94.1364694,11.988302 C94.2380294,11.988302 94.0349094,12.289082 94.1364694,12.289082 C94.2380294,12.187522 94.2380294,12.089862 94.2380294,11.988302 C94.2380294,11.988302 94.5388094,12.187522 94.4372494,12.289082 L94.5388094,12.187522 C94.6403694,12.085962 94.6403694,12.085962 94.6403694,11.886742 C94.8395894,12.085962 94.8395894,11.886742 94.8395894,11.785182 C94.9411494,11.984402 94.9411494,11.285182 94.9411494,11.285182 C95.0427094,11.386742 94.9411494,11.683622 95.1403694,11.484402 C95.1403694,11.882842 95.6403694,10.984402 95.3395894,11.085962 C95.3395894,10.984402 95.3395894,10.687522 95.4411494,10.585962 C95.6403694,10.886742 95.5427094,10.386742 95.6403694,10.386742 C95.6403694,10.585962 95.7419294,10.585962 95.7419294,10.386742 C95.8434894,10.386742 95.8434894,10.488302 95.8434894,10.585962 L95.7419294,10.585962 C95.7419294,10.785182 95.9411494,10.886742 96.0427094,10.687522 C96.0427094,10.687522 95.9411494,10.687522 95.9411494,10.585962 C96.0427094,10.484402 96.1403694,10.386742 96.0427094,10.285182 C96.1442694,10.285182 96.3434894,10.386742 96.2419294,10.484402 C96.2419294,10.382842 96.1403694,10.382842 96.1403694,10.285182 C96.1403694,10.386742 96.0388094,10.886742 96.1403694,10.585962 L96.1403694,10.785182 L96.1403694,10.585962 C96.2419294,10.785182 96.2419294,10.484402 96.2419294,10.386742 C96.3434894,10.386742 96.3434894,10.285182 96.3434894,10.187522 C96.7419294,10.187522 96.3434894,9.687522 96.3434894,9.585962 C96.3434894,9.687522 96.7419294,9.886742 96.7419294,9.785182 C96.9411494,9.683622 96.8434894,9.285182 96.9411494,9.183622 L96.9411494,9.382842 C97.0427094,9.382842 97.0427094,9.382842 97.0427094,9.281282 C97.0427094,9.281282 97.0427094,9.382842 97.1442694,9.382842 C97.2458294,9.382842 97.1442694,9.281282 97.3434894,9.281282 C97.5427094,9.281282 97.3434894,8.980502 97.3434894,8.980502 C97.4450494,8.980502 97.5427094,9.082062 97.5427094,8.980502 L97.6442694,9.082062 C97.6442694,8.980502 97.6442694,8.781282 97.7458294,8.781282 C97.7458294,8.882842 97.8473894,9.082062 97.8473894,8.882842 C98.0466094,8.882842 98.0466094,8.582062 98.0466094,8.484402 C98.0466094,8.382842 98.2458294,8.484402 98.1481694,8.285182 C98.0270794,8.398462 97.8278594,8.300807 97.8278594,8.199245" id="Shape" fill="#D8D8E2" fill-rule="nonzero"></path>
            <circle id="Oval-Copy-2" fill="#63ADEC" cx="83" cy="25" r="4"></circle>
        </g>
    </g>
</svg>