<?xml version="1.0" encoding="UTF-8"?>
<svg width="60px" height="90px" viewBox="0 0 60 90" version="1.1" xmlns="http://www.w3.org/2000/svg" xmlns:xlink="http://www.w3.org/1999/xlink">
    <title>UK@1.5x</title>
    <g id="UI-Designs" stroke="none" stroke-width="1" fill="none" fill-rule="evenodd">
        <g id="UK">
            <path d="M49.050937,82.281323 C49.472817,82.371167 49.839997,82.804763 50.293137,82.765703 C50.761887,82.722734 50.972827,82.211013 51.343937,81.980543 C51.793157,81.699293 52.363437,81.656323 52.840037,81.418043 C53.312697,81.179763 53.519727,80.992263 54.043137,81.027423 C55.152537,81.105548 54.593917,81.078204 54.980637,80.253983 C55.257977,79.668043 56.406437,79.148483 57.050937,79.214883 C57.000156,79.199258 57.464997,78.539103 57.492347,78.293003 C57.515785,78.085973 57.484535,77.363313 57.183757,77.316443 C57.324377,77.121133 57.742347,77.113323 57.734537,76.824253 C57.718912,76.316443 57.039227,76.570343 56.746257,76.609413 C55.793137,76.746133 54.925957,76.847693 53.984557,76.832073 C54.265807,76.785198 54.679867,76.74223 54.683777,76.664103 C54.843937,76.152383 53.785337,76.031293 53.507977,75.992233 C53.539227,76.128953 53.379067,76.324263 53.437664,76.210983 C53.066574,76.210983 53.558754,76.550823 53.218914,76.605513 C53.273601,76.578169 53.28532,76.539106 53.25407,76.488323 C52.99235,76.875043 52.84782,76.58598 52.86345,76.543011 C52.68376,76.687541 52.30095,76.187541 52.19548,76.52348 C52.37517,76.07035 53.77748,76.12504 52.98454,75.71879 C52.20329,75.31645 51.56264,75.675821 51.85174,75.50785 C52.15643,75.33207 52.64471,75.44535 52.89084,75.26176 C52.76193,75.175822 52.62522,75.12114 52.47678,75.08988 C52.76194,75.070348 53.91038,75.24613 54.37128,74.82035 C54.6369,74.57426 54.81269,74.02738 54.2619,74.44535 C54.187681,74.12504 54.99628,73.88676 54.86737,73.42975 C54.68768,72.79303 53.83617,73.351624 53.54317,73.59772 C53.8127,73.38288 53.515826,73.36334 53.32833,73.37506 C53.48067,73.300841 53.312705,73.2735 53.20333,73.26568 C53.38302,73.355524 54.25023,73.05865 54.35563,72.98443 C54.281411,72.95318 54.21501,72.902399 54.16422,72.8399 C54.31266,72.94537 54.32047,72.847712 54.47281,72.863337 C54.437654,72.820368 54.25406,72.636777 54.547029,72.625057 C54.351719,72.929747 54.859529,72.859437 54.968909,72.718807 C55.281409,72.316467 54.316569,72.765682 54.652499,72.441467 C54.668124,72.476623 54.660311,72.51178 54.625155,72.543027 C54.660311,72.511777 54.793125,72.425837 55.000155,72.500058 C54.929842,72.410214 54.836095,72.363338 54.718905,72.355528 C54.961095,72.406309 54.953285,72.320371 54.863435,72.082088 C54.968905,72.281308 55.441555,72.773498 55.211095,72.660208 C55.500155,73.550828 57.148595,72.003958 56.621295,71.734428 C56.800985,71.918018 56.304885,71.773491 56.250205,71.757865 C56.496295,71.562555 56.652545,71.421925 56.789265,71.125055 C56.402545,71.199274 55.758065,71.328175 55.406465,71.093805 C55.48459,71.085993 56.648665,71.066461 56.644765,71.070367 C56.890855,70.773497 56.117425,70.500057 56.011955,70.316457 C56.379145,70.609427 56.941645,70.710987 56.961175,71.285207 C57.090085,71.054737 57.617425,70.769587 57.195555,70.515677 C57.304925,70.558646 57.375245,70.632867 57.410395,70.746147 C57.648675,70.605527 57.664305,70.308647 57.867425,70.140677 C58.074455,69.968797 58.367425,69.941457 58.547115,69.730517 C58.836175,69.390677 58.746335,68.890677 58.785395,68.484417 C58.906485,67.148517 59.707275,66.199217 59.457275,64.808617 C59.121335,62.929717 56.949475,60.550817 54.820575,60.964817 C54.863543,61.105437 55.097915,60.976535 55.250265,61.058567 C54.570575,61.085911 54.066665,61.062473 53.418265,60.992161 C53.461233,60.976535 53.504202,60.960911 53.547175,60.941379 C53.367485,60.859348 53.179985,60.835909 52.984675,60.867161 C53.035456,60.902317 53.086235,60.902317 53.137015,60.867161 C52.855765,61.152321 52.441705,60.886692 52.133115,61.093721 C51.918275,61.238251 51.859675,61.554661 51.789365,61.777311 C51.738583,61.941371 51.734677,62.164031 51.644835,62.312471 C51.500305,62.550751 51.179995,62.531221 51.281555,62.890591 C51.140935,62.648401 50.422175,62.453091 50.160455,62.253871 C49.754205,61.945281 49.535455,61.691371 48.980755,61.874961 C49.512005,61.632771 49.676065,60.867161 50.101855,60.488261 C50.609665,60.039041 51.125255,59.894511 51.191655,59.144461 C51.277593,58.171801 50.660405,56.925661 50.238535,56.363261 C50.129155,56.031231 50.051035,55.847641 49.816655,55.867171 C49.797124,55.703111 49.730718,55.644511 49.715095,55.800764 C49.363535,55.707014 49.258065,55.355454 48.984625,55.179674 C48.750245,55.027334 48.668215,55.046864 48.465095,54.960924 C48.582285,54.925767 47.824475,54.367174 47.750255,54.285144 C47.398695,53.894524 47.465095,53.554674 46.836195,53.593734 C46.562755,53.609359 46.332285,53.804674 46.058855,53.816394 C45.836195,53.824207 45.656515,53.671864 45.453385,53.675774 C44.750265,53.691399 45.164325,53.851554 44.722915,54.316394 C44.969005,54.007804 44.773696,53.496084 44.336195,53.718734 C44.933855,53.332014 45.558895,53.66014 46.203395,53.546854 C46.816675,53.437474 47.215095,53.023414 47.730695,53.55076 C48.168195,53.99607 48.051005,54.33592 48.769795,54.33592 C49.039325,54.33592 49.203385,54.15623 49.484635,54.281232 C49.773695,54.410142 50.027605,54.707012 49.687755,54.980452 C50.554945,54.472642 48.922135,52.917952 48.621355,52.496052 C48.070575,51.718712 47.019755,49.843752 48.504165,49.453052 C48.590103,49.429615 47.801045,48.980392 47.820575,48.988212 C47.652605,48.890556 47.035415,48.621022 47.429945,48.378832 C46.199445,47.996022 46.277645,46.175732 45.336145,45.445232 C44.738485,44.980392 42.351745,44.710862 42.195545,43.933532 C42.144763,44.285092 42.043205,44.449152 41.738515,44.636652 C41.910395,44.550714 42.093985,44.339772 42.011955,44.128842 C41.945549,44.156186 41.883045,44.18353 41.816645,44.210874 C42.168205,44.019464 41.793208,43.621034 41.957265,43.433534 C41.254145,43.058534 41.039295,42.152334 40.910365,41.429634 C40.859584,41.136664 40.879115,40.081934 40.343955,40.242134 C40.758015,40.042914 39.875205,38.542934 39.574425,38.535134 C40.230675,38.804664 39.707235,36.785134 39.355675,36.644534 C39.457235,36.585941 39.535365,36.609378 39.593955,36.714847 C39.195515,36.457037 39.433795,35.230447 39.289265,34.746047 C39.226765,34.531207 39.160355,34.171827 39.000205,34.011667 C38.840045,33.851507 38.390825,33.874947 38.312705,33.765577 C38.383018,33.746046 38.453325,33.730421 38.523645,33.71089 C38.406455,33.59761 38.308805,33.4687 38.234585,33.32026 C38.226773,33.89057 37.601775,32.85542 37.523645,32.81245 C37.586145,32.871044 37.664275,32.886669 37.761925,32.867138 C37.375205,32.757758 37.258015,32.144478 36.832235,32.136668 C36.91036,32.121043 36.984575,32.121043 37.062705,32.136668 C36.734585,31.101468 36.254115,30.628868 35.254105,30.347568 C34.812695,30.222568 34.570515,29.945228 34.164305,29.769448 C34.019775,29.706948 33.843995,29.691323 33.711175,29.624918 C33.090085,29.331948 33.636957,29.843668 33.414305,29.429608 C33.429929,29.480389 33.453367,29.527264 33.488523,29.566328 C33.234613,29.163988 32.898683,28.933518 32.406523,28.996018 C32.203403,29.023362 31.594023,29.187428 31.886993,29.492108 C31.594023,29.472576 31.250273,29.996018 30.949493,30.070228 C30.519803,30.175698 30.246373,29.988197 29.910393,29.730388 C29.941643,29.76945 29.968987,29.808513 30.000237,29.847578 C29.789297,29.910078 29.351797,29.761641 29.008047,29.738198 C28.578357,29.706948 28.168207,29.640542 27.742447,29.578038 C27.562757,29.523351 27.375257,29.503819 27.187757,29.511632 C26.886977,29.687412 26.797137,29.613192 26.918227,29.288972 C26.808847,29.300691 26.812757,29.382722 26.789317,29.413972 C26.941657,29.179602 25.992437,28.749912 25.894787,28.390572 C26.062757,28.554632 26.394787,28.831982 26.601817,28.937452 C26.812757,29.042922 27.199477,29.015577 27.371347,29.183542 C27.527597,29.019482 27.801037,29.210886 28.109627,29.335882 C28.543217,29.511662 28.426037,29.441352 28.847907,29.320256 C29.383067,29.171816 29.734627,28.980416 30.113507,28.570256 C30.437727,28.218696 30.816627,27.531156 31.355707,27.468656 C31.738517,27.421781 31.867427,27.663966 32.304927,27.5585 C32.590087,27.488187 33.133057,27.23038 33.258057,26.94912 C33.636967,26.09365 32.269777,26.31631 32.090057,25.69912 C31.972867,25.89053 31.691617,25.73037 31.535367,25.83974 C31.765837,25.66396 32.113487,25.61318 32.144747,25.28115 C32.187716,24.83584 31.847867,24.76553 31.492407,24.79677 C30.597877,24.870989 30.004107,25.82407 29.090107,25.90617 C29.203387,25.72648 28.804947,25.60148 28.734637,25.53898 C29.375257,25.81242 29.640887,25.499918 30.121337,25.15226 C30.781497,24.6757 31.261937,24.74992 32.035437,24.66007 C33.148737,24.53116 34.164337,23.11317 34.394837,22.05067 C34.140927,22.109264 33.922177,22.062389 33.773747,21.85926 C33.836247,21.99988 34.101877,21.89051 34.137027,21.870979 C34.199527,21.835823 34.242497,21.843635 34.390937,21.730359 C34.457343,21.640515 34.457343,21.562389 34.383125,21.499889 C34.461249,21.460827 34.539375,21.42567 34.617495,21.386609 C34.836245,21.140519 35.090155,20.980359 35.281555,20.691299 C35.605775,20.203019 35.711245,19.679599 35.898745,19.136599 C36.129215,18.476439 36.558905,17.894399 36.754215,17.222499 C36.586245,17.062339 36.543275,17.308437 36.574525,16.952969 C36.594056,16.710779 36.656556,16.574059 36.742495,16.343589 C36.887025,15.956869 37.152655,15.527179 37.047185,15.093589 C37.058904,15.167808 37.074529,15.242029 37.086247,15.316249 C37.422187,14.851409 37.883127,14.437339 38.133147,13.917849 C38.242517,13.691289 38.281587,13.179569 38.402677,13.226439 C38.222987,12.410029 37.824557,11.031139 36.801077,10.949139 C36.340137,10.913982 35.824517,11.132729 35.347977,11.136639 C34.707357,11.144451 34.215177,11.269449 33.554977,11.18742 C32.586227,11.06242 31.898777,10.91398 30.922177,11.15617 C30.676087,11.21867 30.429987,11.242108 30.359677,11.226482 C30.133117,11.183514 29.910457,11.058512 29.703427,10.964762 C29.582337,10.910074 29.355767,10.667882 29.398737,10.863202 C29.304987,10.542892 28.375337,10.777265 28.172137,10.890546 C27.883077,11.050706 27.906517,11.496016 27.265887,11.359296 C27.410417,11.398359 27.480727,11.480386 27.472917,11.601486 C27.402605,11.667893 27.211197,11.636643 27.129167,11.632736 C27.441667,11.382736 26.855727,11.394456 26.715107,11.468676 C26.761982,11.460864 26.80495,11.453051 26.851827,11.445238 C26.769795,11.585868 26.648697,11.679618 26.496357,11.730398 C26.551044,11.67571 26.605737,11.621018 26.660417,11.566338 C26.109637,11.851498 25.679947,12.480398 25.004217,12.078058 C25.015936,12.132745 25.125307,12.167902 25.242497,12.218678 C24.961247,12.128834 24.801087,12.117118 24.527657,12.281178 C24.980777,12.398368 24.344067,12.984298 24.199537,13.089768 C23.668287,13.464768 23.047237,13.394458 22.433937,13.296798 C22.414406,13.292892 22.754247,13.132738 22.812847,13.121018 C23.039407,13.081955 23.191757,13.253828 23.426127,13.156174 C23.668317,13.054614 23.996437,12.683514 23.512065,12.652264 C23.890975,12.781174 24.078475,12.246014 24.457375,12.374924 C24.062845,12.038984 24.656595,11.851484 24.797215,11.621014 C25.055025,11.199134 25.023775,11.292894 24.695655,11.246014 C24.597998,11.234295 24.375345,11.351484 24.258155,11.359294 C24.078465,11.371013 23.910495,11.265544 23.730815,11.292888 C23.191755,11.382731 22.683915,12.011638 22.359715,12.398388 C22.824555,12.035108 22.844095,11.425728 23.406615,11.148388 C23.660525,11.023388 23.969115,11.070262 24.230835,10.945258 C24.480835,10.828068 24.629275,10.581978 24.926145,10.550728 C24.664425,11.214788 25.117555,10.878848 25.379265,10.644478 C25.785515,10.289008 26.340205,9.628878 26.332385,9.070278 C26.164415,9.105435 25.457385,9.589808 25.308985,9.703088 C25.363672,9.640588 25.418365,9.574178 25.473045,9.511678 C25.043355,9.234338 24.555075,9.886678 24.176145,9.335898 C24.187864,9.394491 24.219114,9.437458 24.269895,9.472618 C24.047235,9.558556 22.855795,9.101528 22.890995,8.847618 C23.070685,9.042928 23.953495,9.320278 24.152695,9.035118 C24.258165,9.343708 24.023785,9.132774 24.410505,9.191368 C24.601915,9.222618 24.660505,8.988248 24.914415,9.1484 C24.836289,8.86715 24.930039,8.62496 24.844102,8.34762 C24.793321,8.18746 24.535512,8.359339 24.488632,8.06246 C24.703472,8.26558 25.043322,7.964804 24.867542,8.28902 C25.305042,8.269489 25.976942,7.20312 26.262042,6.92572 C26.851882,6.3515 27.597942,5.98431 28.125342,5.33982 C28.390962,5.0156 28.566752,4.69138 28.922222,4.44529 C29.242532,4.22263 29.613632,4.12888 29.906602,3.85935 C30.258162,3.53513 30.738632,2.62495 30.699572,2.09765 C29.832382,2.45312 30.734728,0.48435 30.859732,0.21485 C30.476922,0.08594 29.832432,0.156256 29.433932,0.10547 C29.457369,0.128907 28.805022,0.015626 28.871432,0 C28.199552,0.15234 29.207372,0.48438 28.680022,0.70312 C28.082362,0.94921 27.469122,0.36718 26.793322,0.710933 C26.433942,0.890623 24.898822,1.679683 24.894922,0.695307 C24.754302,0.867187 24.652732,1.058587 24.586332,1.269527 C24.496489,1.21484 24.410552,1.160147 24.320712,1.101557 C24.195712,1.17187 24.070712,1.246087 23.945712,1.320307 C23.703522,1.386714 23.492582,1.394526 23.664462,1.714837 C23.601962,1.566397 23.512122,1.554677 23.402742,1.667962 C23.523832,1.296872 22.988682,1.464842 22.836332,1.539052 C22.469142,1.722642 22.336332,2.195302 22.152742,2.531242 C22.207429,2 22.683992,1.695302 22.195711,1.210942 C21.473051,0.5 21.547271,1.328132 21.316801,1.722662 C21.308989,1.679694 21.301176,1.636725 21.293364,1.593752 C20.898834,1.777342 20.883204,2.304692 20.457424,2.460942 C20.617584,2.203132 21.113674,1.757812 21.051174,1.445342 C21.016018,1.261752 20.433984,0.738312 20.250394,0.718782 C20.430084,0.882842 20.273831,1.554722 20.141014,1.699252 C20.152733,1.585972 20.109764,1.562532 20.016014,1.625033 C20.855854,0.992223 19.113674,0.546933 18.988714,0.421933 C18.906683,0.656313 18.945746,0.929743 18.824654,1.148493 C18.699654,1.359433 18.367624,1.500053 18.332464,1.773493 C18.289496,2.101613 18.687934,2.207083 18.547304,2.355523 C18.820744,2.433648 18.937924,2.468803 19.062924,2.734433 C18.910584,2.503963 18.324644,2.304743 18.312924,2.753964 C18.402768,2.75787 18.480894,2.78912 18.551204,2.839902 C18.473079,2.85162 18.398864,2.863339 18.320734,2.878964 C18.476984,2.902402 18.637144,2.91412 18.797294,2.910214 C18.726982,2.941464 18.652764,2.972714 18.582454,3.000058 C18.684014,3.066464 18.762144,3.152398 18.820734,3.257868 C18.691824,3.199275 18.238704,2.984428 18.094174,3.074278 C17.777764,3.265688 18.168393,3.441468 17.910584,3.582088 C18.023864,3.785208 17.926209,4.003968 18.164494,3.871148 C18.305114,4.066458 18.125431,4.085988 18.098087,4.171928 C18.266057,4.203178 18.391057,4.515678 18.543397,4.589898 C18.828557,4.730518 19.164487,4.62896 19.469177,4.675835 C19.320737,4.668023 19.172297,4.687554 19.027767,4.734429 C19.113704,4.828179 19.199647,4.921929 19.281677,5.015679 C19.047297,4.988335 19.035587,4.761769 18.883237,4.695369 C18.855893,4.683651 18.582457,4.683651 18.508237,4.671932 C18.277767,4.640682 17.973077,4.410212 17.969177,4.832092 C17.734797,4.566472 17.297297,4.828186 17.137147,5.043032 C17.078553,4.824282 16.851987,4.773502 16.750427,4.589912 C16.441837,4.820382 16.953547,5.800812 17.301207,5.711012 C16.965267,5.882882 17.418397,5.906322 17.535587,5.847732 C17.465275,5.988352 17.348087,6.046952 17.187927,6.023512 C17.465267,6.160232 17.457457,6.230542 17.168396,6.230542 C17.223083,6.304761 17.273866,6.382882 17.324646,6.464922 C17.246521,6.625082 17.180116,7.050862 16.953556,6.671952 C16.859806,6.734452 16.824646,6.816482 16.851996,6.929762 C16.793402,6.765702 16.578556,6.324292 16.375436,6.586012 C16.129346,6.906322 16.629346,7.171952 16.758246,7.300852 C16.883246,7.421942 17.691836,8.414152 17.930146,8.132882 C17.898896,8.293042 17.805146,8.402412 17.648896,8.453192 C18.043426,8.660222 18.656696,9.121162 18.559056,9.640692 C18.246556,8.984442 17.934056,8.808662 17.320756,8.574292 C17.30513,8.566479 16.484816,8.293042 16.578566,8.445382 C16.840286,8.871162 17.449656,8.902412 17.672366,9.375072 C17.141116,9.164132 16.496566,8.281272 16.273966,9.277416 C15.906776,9.121166 15.496626,8.246216 15.184166,8.636796 C14.871666,9.035236 15.379476,9.218826 15.473226,9.527416 C15.535726,9.730536 15.340416,10.171946 15.332606,9.902416 C15.277919,10.007886 15.301356,10.097726 15.399012,10.171946 C15.004482,10.347726 14.965422,8.742246 14.293512,9.050846 C13.996632,9.187566 13.941952,10.011786 14.066952,10.261746 C14.254452,10.640656 14.973202,10.597686 14.891172,11.105496 C14.438052,10.710966 14.059142,11.203152 14.168512,11.652376 C14.215387,11.843786 14.426322,12.035186 14.539602,12.175816 C14.609914,12.261754 15.063042,12.527376 14.770072,12.445346 C15.000542,12.929726 15.508352,12.406284 15.836472,12.730506 C15.770066,12.668006 15.324752,13.066446 15.039602,12.761756 C15.055226,12.878946 15.070852,12.996136 15.090383,13.117226 C14.895073,13.000036 14.773973,12.828166 14.731003,12.605506 C14.652878,12.656287 14.652878,12.710976 14.731003,12.773476 C14.234913,12.550816 14.074753,12.156286 13.816943,12.875036 C13.711473,13.164096 13.633353,13.964836 14.137253,13.918036 C14.016163,14.082096 14.012253,14.253976 14.121628,14.425846 C14.06694,14.316466 14.063034,14.714906 14.106003,14.781316 C14.168503,14.421936 14.090378,14.87116 14.242723,14.886786 C14.383353,14.898505 14.469283,14.851629 14.602103,14.820379 C14.840383,14.761786 15.234913,14.414129 15.324763,14.183659 C15.4107,14.343819 15.195853,14.769599 15.309138,14.785219 C15.246638,14.886779 15.711478,14.750063 15.723198,14.742251 C15.992728,14.609441 16.043508,14.238341 16.320858,14.113341 C16.32867,14.664121 15.523978,15.043031 15.066958,15.070371 C15.086489,15.023497 15.102115,14.980528 15.121646,14.937561 C14.746646,15.046941 14.660706,15.484441 14.910706,15.695371 C15.063046,15.824281 15.617736,15.726621 15.836486,15.808651 C16.129456,15.918031 16.258366,16.269591 16.629456,16.222711 C16.098206,16.632871 16.238836,15.906301 15.691956,15.855521 C15.266176,15.816458 15.027896,16.226611 14.981016,16.601611 C14.922422,17.093801 15.055234,17.085991 15.445856,17.316451 C15.602106,17.410201 15.785696,17.613331 15.969296,17.664111 C16.211486,17.726611 16.406796,17.460991 16.660706,17.597705 C16.379456,17.570361 16.184146,17.855515 15.934146,17.847705 C15.691956,17.843799 15.645086,17.664115 15.438056,17.570365 C15.078676,17.410205 14.328656,17.410205 14.305256,18.000055 C14.289632,18.386775 14.684166,18.347715 14.934166,18.562555 C15.070886,18.679745 14.984947,18.863335 15.234946,18.941465 C15.469326,19.015684 15.711506,18.640685 15.930256,18.855528 C15.445886,18.906309 15.399006,19.152408 14.934166,18.964908 C14.574786,18.820378 13.981046,18.269598 13.898966,19.101628 C14.156776,19.265688 14.070846,19.218818 14.070846,19.218818 C13.793506,19.140693 13.578656,19.800848 13.898966,19.804758 C13.738806,19.871164 13.602096,19.968818 13.488806,20.097728 C13.594276,19.906318 14.508306,20.011791 14.641106,20.062572 C14.453606,20.074291 14.324696,20.164132 14.250486,20.336012 C14.629396,20.476632 14.621576,20.175852 14.949706,20.160232 C14.668456,20.402422 13.027806,20.976642 14.488766,21.140702 C14.406735,21.144608 13.633296,21.273512 13.629386,21.257892 C13.641105,21.421952 13.871576,21.461022 13.902826,21.636802 C13.750486,21.628989 13.672356,21.550864 13.664546,21.398522 C13.379386,21.675862 13.500486,21.171962 13.266106,21.156332 C13.133296,21.14852 12.668446,21.312582 12.508296,21.343832 C12.109856,21.421957 11.238796,21.640712 11.875486,22.203212 C11.961423,22.281337 12.902786,22.304772 13.039586,22.320402 C13.395056,22.355559 13.672396,22.367278 14.016146,22.25009 C14.320836,22.14853 14.363806,22.04306 14.695836,22.04306 C14.867706,22.04306 15.629426,22.18368 15.758336,22.254 C15.379426,22.269625 13.176336,22.08603 13.988836,22.9415 C12.059136,21.6173 13.785716,24.8712 14.508366,23.58603 C13.504466,24.93373 16.961466,23.47665 15.816966,23.00009 C16.316966,23.21103 16.441966,22.64462 16.715406,22.39071 C16.852126,22.26571 17.066966,22.21493 17.188066,22.09774 C17.391186,21.90243 17.395096,21.67977 17.555256,21.46102 C17.711506,21.25008 18.270096,20.83211 18.215416,20.66414 C18.145103,20.4493 17.238856,20.625078 16.965416,20.33992 C17.457606,20.45711 17.969316,20.47273 18.453716,20.62898 C18.039656,20.99617 17.649026,21.50007 17.481056,22.03518 C18.121676,22.117212 18.297466,22.16409 18.961556,21.945336 C18.328746,22.304716 17.461556,22.113306 17.020156,22.718776 C16.789686,23.039086 16.734996,23.519556 16.484996,23.839876 C16.637336,23.789094 16.723276,23.914094 16.879526,23.918001 C17.102186,23.925813 17.313116,23.707061 17.492806,23.617221 C17.305306,23.953161 16.410806,24.140661 16.570936,23.871131 C16.391246,23.859412 16.262346,24.293011 16.133436,24.472691 C16.184217,24.472691 16.223279,24.449254 16.246716,24.406285 C16.242809,24.45316 16.238903,24.496129 16.234997,24.543005 C16.328747,24.441445 16.399057,24.328165 16.445937,24.199255 C16.516249,24.371135 16.539687,24.476595 16.527968,24.660195 C17.090468,24.488315 17.602168,24.957075 18.055268,24.437535 C18.246678,24.218785 18.293548,23.511755 18.715428,23.558625 C18.352148,23.554719 18.301368,24.250035 18.129488,24.460965 C17.848238,24.816435 17.645108,24.800805 17.184178,24.765655 C16.801368,24.738311 16.477148,24.605495 16.164678,24.910185 C16.012338,25.062525 15.707648,25.722685 15.840458,25.910185 C15.981078,25.750025 16.149048,25.859404 16.274048,25.699245 C16.102178,25.945335 15.777958,25.859405 15.609988,26.085965 C15.406868,26.355495 15.477178,26.683625 15.379518,26.988305 C15.781858,26.894555 15.805298,26.792995 16.063108,26.925805 C15.895138,26.988305 15.727168,27.054715 15.563108,27.113305 C15.848268,27.347685 15.430298,28.058615 15.274048,28.257805 C15.492798,28.144525 15.656858,27.613275 15.953738,27.656245 C15.820928,27.933585 15.527958,28.222655 15.598268,28.558585 C15.789678,28.363275 15.758428,28.820305 15.793578,28.859365 C15.438108,28.312485 14.699778,29.937465 14.688078,30.234365 C14.734953,30.15624 14.758391,30.136709 14.840418,30.093745 C14.746668,30.218745 14.715418,30.277335 14.81698,30.421865 C14.93026,30.156245 14.906824,29.878895 15.09823,29.644525 C15.070887,29.714838 15.043543,29.789055 15.020105,29.859365 C15.090418,29.820302 15.434165,29.378895 15.488855,29.324205 C15.50448,29.304674 15.363855,29.347642 15.348235,29.33983 C15.414642,29.292955 15.492765,29.261705 15.574795,29.24608 C15.594326,29.230455 15.512295,29.3867 15.375575,29.5078 C15.441981,29.464832 15.512295,29.421863 15.578695,29.37889 C15.332605,29.74998 14.617755,30.40229 14.887285,30.91799 C15.004475,30.69143 15.281815,30.47658 15.488845,30.33596 C15.457595,30.5508 14.578685,32.22656 15.324785,31.91016 C15.274003,32.01563 15.254472,32.12891 15.266191,32.25 C15.770101,32.179688 16.063071,31.55859 16.332591,31.2031 C16.086501,31.93357 15.434151,32.4023 15.082591,33.0703 C14.625561,33.93749 14.816971,34.9687 14.457591,35.8711 C14.191971,36.53516 13.809151,37.1953 14.824781,37.0899 C15.516191,37.015681 16.477081,36.21099 15.356031,35.8047 C15.793531,35.839856 16.082591,34.7149 16.137281,34.4063 C16.270091,33.66021 16.012281,33.1446 16.566971,32.4922 C16.770091,32.25392 17.039631,32.16407 17.047441,31.81642 C17.055253,31.42189 16.617751,31.31642 16.512281,31.08595 C16.356031,30.74611 16.199781,29.65235 16.356031,29.30475 C16.395093,29.43756 16.457591,29.55866 16.535721,29.67194 C16.809161,29.5196 17.024001,29.28522 16.969311,28.94928 C17.047436,29.039123 17.848221,28.1485 17.965401,28.03912 C18.258371,27.75787 18.363841,27.28131 18.645091,27.03522 C18.774001,27.14069 18.902901,27.14069 19.031811,27.031314 C19.168531,26.933658 19.309151,26.836004 19.449781,26.742254 C18.910721,27.664124 17.785681,28.214954 17.246681,29.191454 C16.977151,29.679734 16.887301,30.093794 16.969341,30.640654 C17.070901,31.320344 17.203721,31.207064 17.738871,31.558624 C17.777934,31.277374 17.578711,31.031284 17.590431,30.750034 C17.60215,30.527374 17.793551,30.160194 17.828711,29.886754 C17.813086,30.156284 18.367771,30.835974 18.477151,30.773474 C18.586521,30.710974 18.156841,30.054724 18.238871,29.582074 C18.258403,29.925824 18.676371,31.109374 18.969341,31.125074 C19.387311,31.175855 19.629501,29.933674 19.195901,29.757874 C19.801371,29.898504 19.504491,28.187574 19.566991,27.820374 C19.688081,28.039124 19.481054,28.464904 19.777931,28.582094 C20.027931,28.238344 20.113871,27.679754 20.520121,27.460994 C20.231061,27.859434 19.113921,29.457094 19.969341,29.835994 C20.711531,30.164114 19.867781,29.105524 19.98106,28.816494 C20.09434,29.086024 20.12559,29.355554 20.32481,29.570404 C20.422466,29.671964 21.05528,29.843844 20.75059,29.968844 C21.23887,30.273534 22.03969,30.332124 22.42249,30.765724 C22.1139,30.332134 21.23109,30.441504 20.76629,30.332134 C20.13348,30.183694 19.73899,30.082134 19.67649,30.851664 C19.656959,31.109474 19.73899,31.363384 19.742896,31.617294 C19.754615,32.000104 19.516336,32.398544 19.555396,32.753994 C19.629615,33.402434 20.371806,33.589934 20.801496,33.898494 C20.770246,33.800837 21.223376,34.574274 20.871809,34.464904 C21.289779,35.390684 21.145249,35.242244 20.543689,35.992204 C19.977279,36.699234 19.903069,37.636704 19.418689,38.398404 C18.992909,39.066374 18.559309,39.570304 18.785879,40.378904 C18.871817,40.683594 19.106189,41.668004 18.524159,40.902344 C18.453847,40.808594 18.485097,39.730444 17.961659,40.300784 C17.738999,40.542974 17.981191,41.335984 18.094469,41.585984 C18.367909,42.191454 18.988999,42.539104 19.192169,43.195384 C19.313259,43.586014 19.219513,44.343784 19.871859,44.074294 C19.571079,43.996169 19.778109,43.859454 19.754669,43.711014 C19.735138,43.586014 19.645289,43.449294 19.574979,43.269604 C19.449979,42.957104 19.160919,42.453194 19.348419,42.113404 C19.711699,41.457154 20.153109,41.804814 20.575019,42.156373 C21.071109,42.566533 21.543769,43.117313 22.121919,43.414173 C22.285979,43.500111 22.535979,43.671983 22.731299,43.566513 C23.059419,43.390733 22.668799,42.402413 22.910989,42.496213 C22.969583,42.222773 22.551609,42.113403 22.485209,41.894653 C22.395365,41.597773 22.633649,41.453243 22.590679,41.164183 C22.805519,41.843873 23.125839,41.992313 23.766479,41.683713 C23.352419,42.277463 24.168819,42.398553 24.438359,42.734513 C24.590699,42.488423 24.407109,42.187633 24.653199,41.957173 C24.524289,42.328263 24.661011,42.703263 25.059449,42.757953 C25.250859,42.785297 25.602419,42.535293 25.719609,42.418113 C25.965699,42.168113 26.157109,42.254053 25.809453,41.910303 C25.852422,41.922022 26.008673,41.886866 26.090703,41.937647 C26.05164,41.832177 26.039922,41.504057 26.055546,41.461087 C26.176636,41.797027 26.203986,41.730617 26.399296,41.726707 C26.539926,41.714989 27.164926,41.632957 27.141486,41.64077 C27.731326,41.42593 27.606326,40.75405 27.477426,40.20717 C27.559457,40.50014 28.375866,40.95326 28.309456,40.39076 C28.606336,40.69935 29.215706,40.6056 29.598556,40.58998 C29.778246,40.582167 30.563396,40.42982 30.715756,40.550917 C30.536066,40.566542 30.438416,40.668107 30.414976,40.855607 C30.575136,40.800919 30.668886,40.847794 30.840756,40.879044 C30.543876,40.839982 30.274346,41.004044 29.981376,40.984514 C29.770436,40.968889 29.735286,40.800924 29.496996,40.836074 C28.914966,40.925917 29.258716,41.226694 29.637616,41.304824 C29.391526,41.242324 29.246996,41.433734 29.305586,41.660294 C28.918866,41.007954 28.618086,41.789204 28.477466,42.144674 C28.219656,42.797014 27.860276,43.398574 27.614186,44.054874 C27.426686,44.558784 27.137626,45.191574 27.289966,45.722874 C27.430586,46.207254 28.028246,46.855674 28.426666,47.152574 C28.496979,47.035384 28.418854,47.031484 28.368072,46.902574 C28.414948,46.933824 28.496982,47.043194 28.528232,47.074454 C28.348542,47.480704 28.500888,48.449454 28.993072,48.648654 C29.297762,48.769744 29.836822,48.394744 29.625882,48.023654 C29.891502,48.363494 29.649319,48.601774 29.575101,48.933814 C29.539945,49.097874 29.551663,49.949414 29.731351,49.578344 C29.696195,49.617407 29.875881,49.890844 30.090731,50.011934 C30.063387,49.441624 31.075111,48.894734 30.688391,48.304934 C31.121981,48.422124 30.821201,49.066654 31.360271,49.031494 C31.579021,49.015869 32.196211,48.347904 32.133711,48.140874 C32.446211,48.340094 31.891521,48.566654 31.860271,48.726814 C31.832927,48.871344 32.036051,49.371344 32.262611,49.336194 C31.938391,49.812754 31.184511,50.219004 31.715731,50.746394 C31.891511,50.586234 31.914951,50.429984 31.961821,50.172174 C32.03604,50.359674 31.668851,50.906554 31.903228,50.996394 C31.262608,51.230774 30.969638,51.273734 31.223538,52.043294 C31.039948,51.863604 30.922758,51.640954 30.985258,51.379234 C30.739168,51.35189 30.071198,53.980834 32.012558,53.258134 C31.879748,53.359694 31.891468,53.449544 32.047714,53.531574 C31.575054,53.277664 31.102404,53.793294 30.911014,54.062824 C30.477424,54.672204 30.371954,55.039384 30.618044,55.742524 C30.782104,56.215184 31.004764,56.867524 31.407104,57.180024 C32.000854,57.640964 32.297724,57.117524 32.926604,57.168305 C32.559414,57.254242 32.196134,57.758145 31.832804,57.762055 C31.262494,57.769867 31.168744,57.191745 30.903114,56.851895 C30.715614,56.605805 30.258584,56.082365 29.961704,56.590175 C29.770294,56.914395 30.184364,57.375335 30.356234,57.605775 C30.321078,57.574525 30.664824,58.226865 30.535924,58.390935 C30.207804,58.183905 29.875764,57.961245 29.598424,57.687815 C29.461704,57.551095 29.313264,57.215155 29.121864,57.152655 C28.910924,57.082342 27.840664,57.379215 28.020264,57.707345 C27.903074,57.430005 27.223384,57.777658 27.012464,57.75422 C26.555434,57.711252 26.188244,57.19953 25.699964,57.34016 C25.934344,57.51204 26.301524,57.97297 26.094494,58.28157 C26.12965,57.46907 25.309334,58.05501 25.008594,58.203445 C24.410934,58.496415 22.965594,58.707355 23.082794,59.715145 C23.074982,59.648739 22.582794,60.531555 22.446074,60.683895 C22.313264,60.828425 21.750764,61.590145 21.586694,61.226865 C21.461694,61.422175 20.024194,62.758065 20.582794,62.894865 C20.735134,62.394865 21.692194,62.437835 21.805494,62.945646 C22.200024,62.609706 21.977374,61.984706 22.617994,61.875346 C22.946124,61.715186 24.199994,61.703466 24.641394,61.492536 C24.516394,61.652696 24.328894,61.812846 24.106234,61.769876 C24.168734,61.972996 24.219514,62.691756 24.207794,62.457376 C23.981234,62.597996 24.227326,63.035496 24.348414,63.156596 C24.653104,63.461286 24.832794,63.308936 25.211694,63.316756 C25.254663,63.285506 24.504664,63.801136 24.703884,63.551136 C24.653103,63.992546 24.078884,64.496446 24.399194,64.961336 C24.657004,65.332426 24.996854,65.035554 25.371854,65.156646 C25.149194,65.21524 24.887474,65.601956 24.641384,65.371486 C24.692165,66.683986 24.086694,67.840286 22.961684,68.508186 C22.571064,68.742566 22.141374,69.160526 21.715584,69.285526 C21.367924,69.387086 20.711684,69.121466 20.903084,69.765996 C20.746834,68.898806 19.828884,70.219116 20.020274,70.383186 C19.672614,70.453499 19.367934,70.488656 19.024184,70.566776 C19.03981,70.504276 19.078872,70.473026 19.145274,70.476932 C18.860114,69.883182 18.492934,70.625372 18.371834,70.750372 C18.137454,70.996462 17.824954,71.137092 17.531994,71.301152 C17.371834,71.383183 17.215584,71.469122 17.059334,71.558962 C17.192144,71.687872 17.192144,71.816772 17.059334,71.949582 C17.469494,71.902707 18.356234,71.762082 18.383534,72.449582 C18.399158,72.801142 17.805404,73.234742 17.449944,73.164422 C17.496819,73.195672 17.977284,73.765982 18.047604,73.609732 C18.098385,73.500352 17.930414,73.359732 17.981198,73.254262 C18.110108,73.535512 18.360108,73.390982 18.406978,73.160512 C18.239008,73.605822 19.457778,73.523792 19.649178,73.344102 C19.422618,73.457382 19.410898,73.539412 19.610116,73.586292 C19.551522,73.555042 19.121836,73.512073 19.125736,73.644885 C19.235116,73.668323 19.305426,73.668323 19.453856,73.726916 C19.211666,73.703479 18.528076,73.488636 18.723386,73.726916 C18.547606,73.703479 18.399166,73.547226 18.231196,73.703479 C18.590576,73.851919 18.676506,74.390979 19.074946,74.469099 C19.293696,74.512068 19.399166,74.371443 19.559326,74.308939 C19.746826,74.23472 19.957766,74.168319 20.164796,74.094099 C20.731206,73.894879 20.512456,73.719099 20.910886,73.359719 C21.364006,72.949559 21.985086,73.449563 22.426486,73.074559 C22.332736,72.926119 22.235076,72.781589 22.137426,72.637059 C22.301486,72.711278 22.285866,72.918309 22.485086,72.941749 C22.699926,72.965187 22.801496,72.613629 22.985086,72.558939 C22.531966,72.769879 22.891336,73.101909 23.149146,73.281599 C22.512426,73.039409 22.942116,73.719099 23.242896,73.820659 C23.344456,73.855816 23.586646,73.691749 23.789776,73.711289 C24.055396,73.734726 24.055396,74.012069 24.496806,73.883159 C24.160866,74.058939 23.672586,74.531599 23.559306,74.015969 C23.485087,74.187849 23.274146,74.242529 23.215556,74.426129 C23.164775,74.586289 23.317116,74.699569 23.137431,74.836289 C23.457741,74.914413 23.781961,74.976909 24.106181,75.051129 C23.930401,74.707379 25.012431,74.824569 25.153081,74.797219 C24.649171,74.418309 25.946051,74.363629 26.008551,74.195659 C26.012457,74.418319 26.016363,74.648789 26.317141,74.637069 C26.086671,74.609725 26.352298,75.183949 26.508551,75.375349 C26.649171,75.547229 26.832771,75.555039 26.992921,75.676129 C27.063234,75.680036 27.137451,75.687848 27.207761,75.691754 C27.18823,75.851914 27.242917,75.969094 27.375731,76.043314 C27.742921,76.394874 29.074931,76.859724 29.414831,76.414404 C29.504674,76.390967 29.512487,76.422217 29.438268,76.496436 C29.782018,76.336276 30.172648,76.140966 30.004678,75.695656 C30.102335,75.777688 30.129678,75.793313 30.157018,75.758156 C30.442178,75.402686 31.352318,75.164406 31.102328,74.644856 C31.188265,74.769856 31.196078,74.898766 31.117952,75.027666 C31.539832,75.176106 33.219552,74.851886 33.004652,74.168286 C33.149182,74.480786 33.223402,74.058906 33.485122,73.805006 C33.727312,73.570626 34.457782,72.922196 34.496822,72.805006 C34.520259,72.734693 34.313232,72.683916 34.332762,72.656566 C34.563232,72.305006 34.528072,72.711254 34.914792,72.531566 C34.891354,72.476878 34.86401,72.426096 34.840573,72.375316 C35.168693,72.844066 34.512453,72.480786 34.426513,72.605786 C34.457763,72.703442 34.473388,72.722976 34.543703,72.797196 C34.797613,72.941726 34.020263,73.426106 33.957763,73.492506 C33.469483,74.058916 33.211673,74.797206 32.731163,75.371406 C32.719444,75.363593 32.778038,75.496406 32.871783,75.570626 C32.235063,75.140936 30.512383,76.922226 31.168683,77.426126 C31.102277,77.254246 30.992903,77.109716 30.785873,77.105816 C31.274153,77.344096 30.836654,78.289416 30.891343,78.141016 C30.043683,79.000396 28.356143,78.223047 27.434343,78.125391 C26.684343,78.047266 25.918743,77.941801 25.164843,78.000391 C24.805463,78.027735 24.192183,78.058985 23.891443,78.293361 C23.590663,78.328517 23.524253,78.441801 23.696133,78.633201 C23.700039,78.801171 23.614101,78.871481 23.438323,78.840231 C23.606293,79.078511 23.516448,79.441791 23.836763,79.555071 C24.110203,79.648821 23.910982,79.680071 23.789889,80.027731 C23.965669,79.555071 23.606299,79.812891 23.493009,79.844141 C23.387539,79.871485 23.328949,80.074611 23.219569,80.129301 C22.852379,80.312891 22.942229,80.187895 22.606289,80.180083 C22.211759,80.17227 21.989099,79.957423 21.707849,80.367583 C21.520349,80.644923 21.621912,81.109773 21.625818,81.418383 C21.633631,82.387133 21.039878,82.894983 20.434418,83.605883 C20.293798,83.769943 20.211758,83.937913 20.012538,84.043383 C19.891448,84.105883 19.563318,84.059008 19.481288,84.148853 C19.121908,84.551193 19.731288,84.586353 19.926598,84.789473 C19.828942,84.703536 19.434408,84.652753 19.340658,84.769942 C19.360189,84.625412 19.34847,84.484782 19.301595,84.344162 C19.157065,84.516042 18.950035,84.601972 18.727375,84.570722 C19.086745,84.965252 18.551595,85.699622 18.215655,85.820722 C18.305498,85.848066 18.395345,85.871504 18.485185,85.898848 C18.032065,85.773848 17.828935,86.547288 17.617995,86.793378 C17.434405,87.008218 17.215655,87.090258 16.992995,87.266038 C16.696125,87.504318 16.602375,87.754318 16.356275,88.019948 C15.891435,87.152758 14.325075,88.324638 14.782075,89.062948 C15.008635,89.426228 15.297695,89.277788 15.567235,89.03951 C16.012545,88.64498 15.668795,88.48092 16.344575,88.66842 C16.668795,88.758263 17.043795,88.89889 17.235195,89.18014 C17.414885,89.44576 17.301601,89.91451 17.723475,89.9653 C17.977385,89.99655 18.477385,89.5278 18.504725,89.30124 C18.594569,88.58249 18.055505,89.0864 17.731285,88.81686 C17.969565,88.914516 18.055505,88.863735 17.993005,88.66842 C18.004724,89.05904 18.621915,88.3403 18.727385,88.35201 C18.649259,88.23092 18.539885,88.15279 18.395355,88.12545 C18.485199,88.129356 18.575045,88.129356 18.664885,88.129356 C18.621916,87.988736 18.844575,87.613736 18.715666,87.555136 C18.856286,87.63326 18.813322,87.973106 18.793791,88.242636 C18.864103,88.22701 18.922701,88.187948 18.969571,88.137166 C18.914884,88.227009 18.926602,88.301226 18.910977,88.402786 C19.246917,88.195756 19.649257,87.113686 20.168777,87.633256 C20.242995,87.519976 20.715657,85.828556 20.934397,86.758256 C21.020334,86.668413 21.121897,86.602006 21.239087,86.559036 C21.200025,86.574661 21.157056,86.590286 21.117997,86.605911 C21.407057,86.672317 23.789897,85.793411 23.610197,86.769971 C23.875817,86.699659 23.887537,86.559031 23.914887,86.309031 C23.836761,86.340281 24.055507,86.332468 24.321137,86.351999 C24.332855,86.359812 24.203947,86.785589 24.660977,86.758249 C24.348477,86.891059 25.282067,87.035589 25.368007,86.590279 C25.211757,86.855899 25.555507,87.187939 25.805507,86.976999 C25.446137,87.262159 26.059417,87.801219 26.270347,87.684029 C26.485187,87.566839 26.364097,87.152779 26.321129,87.059029 C26.37191,87.305119 26.422689,87.309029 26.617999,87.180119 C26.504719,87.2309 26.317219,87.461369 26.578937,87.406679 C26.465657,87.434023 26.266437,87.609799 26.489093,87.687929 C26.711749,87.766059 26.914873,87.601991 27.137533,87.609804 C26.731283,87.176214 28.102373,86.070704 27.008623,85.988704 C27.344563,85.945735 27.282063,86.047298 27.508623,86.012142 C27.395343,86.129332 27.504716,86.422302 27.707843,86.414482 C27.844563,86.410576 28.020343,86.008232 28.086753,85.934012 C27.969563,85.949637 27.582843,85.949637 27.657063,85.707452 C27.71175,85.519952 27.895343,85.367612 28.098473,85.351982 C27.703943,85.098072 28.114098,84.547292 27.477383,84.621512 C27.817223,84.500422 28.414883,84.465262 28.438323,83.934012 C28.438323,83.906668 28.164883,83.328542 28.121913,83.203542 C28.446133,83.953542 28.520353,84.066822 29.188313,83.613702 C29.813313,83.187922 30.715613,82.840262 31.489113,82.816822 C32.317233,82.789478 34.668813,83.668382 34.219613,84.832422 C34.657113,84.672262 34.219613,84.074612 34.399303,84.074612 C34.075083,83.824612 35.426603,83.828522 35.582903,83.859772 C35.938373,83.926178 36.266493,84.187892 36.622003,84.215242 C37.223563,84.25821 37.071223,83.953522 37.454033,83.633212 C37.270443,83.570712 37.219653,83.449622 37.305593,83.269932 C37.071223,83.500402 36.977473,83.141022 36.731373,83.375402 C36.887623,83.223062 36.875903,83.195712 36.684498,83.293371 C36.789968,83.258214 36.856378,83.183991 36.883718,83.078531 C36.739188,83.062906 36.610278,83.105875 36.504808,83.203531 C36.504808,83.195718 36.754808,82.851971 36.696218,82.840251 C36.684499,82.859782 37.082938,82.992591 37.079028,82.992591 C37.028247,82.918372 36.977468,82.844151 36.930588,82.769931 C37.079028,82.996491 37.489178,82.953521 37.297778,83.230871 C37.649338,82.910561 38.219658,83.203527 38.563378,82.887121 C38.457908,82.933996 39.289938,82.785561 39.700078,83.039461 C39.235238,82.723051 40.539918,82.449621 40.645388,82.355871 C40.543828,82.301183 40.500858,82.215251 40.508668,82.098061 C40.594605,82.531651 41.067258,82.14103 41.094608,81.973061 C41.125858,81.758221 40.496948,81.445721 40.371948,81.121501 C40.512568,81.137126 40.594608,81.215251 40.621948,81.351971 C40.719604,81.148851 41.379758,82.086351 41.192258,81.367597 C41.309448,81.578537 41.282102,81.863687 41.520378,82.062907 C41.684438,82.199627 42.028188,82.351967 42.168818,82.281657 C42.305538,82.211345 42.024288,81.785567 41.942258,81.707437 C42.399288,81.949627 43.153158,81.594157 43.477458,81.848057 C43.289958,81.707437 43.489176,82.066807 43.524332,82.113677 C43.555582,82.000397 43.551676,81.887117 43.512614,81.773837 C43.594645,81.855868 43.672774,81.937897 43.746994,82.023837 C43.770431,81.945711 43.78215,81.863677 43.786056,81.777747 C43.797775,82.055087 44.016526,82.109777 44.133716,81.844153 C44.098559,82.266033 43.430586,81.973063 43.614186,82.469153 C43.715746,82.746493 44.387626,82.930093 44.489186,82.570713 C44.430592,82.551182 44.368096,82.527745 44.309496,82.508213 C44.442306,82.332433 44.446216,82.441807 44.493086,82.54337 C44.961836,82.08243 45.860286,82.14103 46.457886,82.07071 C46.618046,82.051179 47.598486,81.78555 47.325076,81.85587 C47.942266,81.871495 48.500876,82.10978 49.051676,82.28165 M6.989676,8.05165 L6.970145,8.016494 C7.130305,8.180554 7.356865,8.246964 7.579525,8.176654 C7.493587,8.426654 7.813905,8.399314 7.954525,8.418844 C7.903744,8.430563 7.852965,8.442281 7.802185,8.454 C7.868591,8.57509 7.966245,8.66494 8.091245,8.71962 C7.927185,8.731339 7.528745,8.50478 7.384215,8.684464 C7.231875,8.871964 7.278745,9.004774 7.540465,9.078994 C7.470152,9.168838 7.255305,9.043838 7.138125,9.086807 C6.935005,9.164931 6.595155,9.508677 6.556095,9.731337 C6.540471,9.539927 6.399845,9.371957 6.188905,9.453997 C6.274842,9.942277 6.876405,10.332907 7.177185,10.688397 C7.231873,10.446207 7.782655,10.329017 7.474065,10.137617 C7.485784,10.129804 7.712345,10.094648 7.536565,10.07121 C7.669375,10.090742 7.626409,10.17668 7.763125,10.16496 C7.692812,9.82512 7.899845,9.91105 7.821719,9.74309 C8.005309,9.85637 7.942809,9.700121 7.927189,9.51262 C7.958439,9.602463 8.169379,9.81731 8.282659,9.78996 C8.259222,9.692304 8.23969,9.59465 8.216253,9.49309 C8.30219,9.582933 8.407663,9.64543 8.466253,9.528246 C8.477972,9.55559 8.485784,9.58684 8.497503,9.614183 C8.55219,9.539964 8.216253,8.809493 8.192813,8.770433 C8.376403,8.746996 8.614693,9.012623 8.794373,8.934493 C9.028753,8.829023 9.036563,8.645433 8.727967,8.563403 C9.224057,8.512622 8.794373,8.079023 8.556087,8.129813 C8.927177,7.993093 8.462337,7.848563 8.493587,7.707933 C8.559994,7.414963 8.763117,7.266523 8.981867,7.036053 C8.751397,7.418863 8.938898,8.770453 9.368587,8.532153 C9.290463,8.371993 9.216247,8.207933 9.153747,8.036063 C9.200622,8.125907 9.489687,8.543873 9.575627,8.622003 C9.571721,8.567315 9.567814,8.516533 9.563908,8.461843 C9.825628,8.637623 9.743598,8.161063 9.724068,8.102463 C9.837348,8.621993 10.341258,8.282153 10.306098,7.922773 C10.259224,7.473553 9.837348,7.621993 9.509228,7.551683 C9.946728,7.422773 10.360788,7.387623 10.665428,7.594652 C10.915428,7.243092 10.716209,7.118092 10.368548,7.039962 C10.891988,7.204022 10.747458,6.516522 10.618548,6.621992 C10.692767,6.481372 10.626361,6.473552 10.591205,6.325112 C10.235735,6.457922 9.911515,6.789952 9.505305,6.575112 C9.55218,6.567299 10.560005,6.289952 10.364685,6.145422 C10.220155,6.172766 10.114685,6.118079 10.052185,5.973542 C10.095154,5.99698 10.700625,6.219632 10.767025,6.036042 C10.743587,6.000886 10.614685,5.96573 10.466245,6.016511 C10.806085,5.801671 10.716245,5.645421 10.786555,5.418851 C10.731868,5.371976 10.638115,5.49307 10.579525,5.465726 C10.556087,5.364166 10.575619,5.266506 10.649837,5.176666 C11.048277,5.860256 12.095137,5.184479 12.153737,4.598546 C11.856857,4.637609 11.821707,4.899326 11.579517,5.004796 C11.255297,5.145416 11.099047,5.090734 10.735767,5.039952 C11.239677,4.942296 11.376387,3.766552 12.016967,3.688352 C11.501347,3.485232 11.977905,2.547752 11.774777,2.145352 C11.450557,1.504732 11.118527,2.082852 10.766977,2.403162 C10.376357,2.758632 9.970097,3.180502 9.505277,3.438362 C8.981837,3.727422 8.474077,3.848522 8.020877,4.364142 C8.099002,4.38758 8.181037,4.407111 8.259157,4.430549 C7.837277,4.524299 8.958377,5.668849 8.579467,5.688349 C8.559936,5.473509 8.192747,5.293819 8.274777,5.321159 C8.317746,5.102409 7.891967,4.610219 7.653687,4.637569 C7.641968,4.778189 7.68103,4.895379 7.770877,4.996949 C7.786502,5.012574 7.657597,5.325069 7.989627,5.270389 C7.673217,5.543829 7.645877,5.707889 7.786507,6.215699 C7.661507,6.032109 7.661507,5.266479 7.325567,5.340699 C7.649787,5.200079 7.391973,5.071169 7.235723,4.911009 C7.126343,5.082889 6.845103,5.110229 6.845103,4.805539 C6.684943,4.934449 6.513073,5.289909 6.747447,5.453979 C6.888067,5.282099 6.849007,5.461792 6.876357,5.407104 C7.056047,5.618044 6.513077,5.493042 6.489637,5.520384 C6.360727,5.672724 6.337297,5.918824 6.317757,6.106324 C6.282601,6.446164 6.368538,7.266524 6.809947,6.684444 C6.755259,6.786004 6.696667,6.883664 6.630257,6.977414 L6.860727,6.977414 C6.774789,7.012571 6.684947,7.047727 6.599007,7.082884 C6.770887,7.344604 7.149787,7.028197 7.360727,7.024291 C6.946667,7.184451 6.438847,7.383661 6.298227,7.723511 C6.411507,7.711793 6.946667,8.223511 6.989637,8.051631 M12.997437,15.707831 C12.860717,15.532051 12.630247,15.703925 12.501347,15.778144 C13.048227,15.496894 12.337287,15.157054 12.009157,15.481264 C12.368527,15.176574 12.356817,14.098464 11.798217,14.422664 C11.837279,14.059384 12.126337,13.778134 12.188837,13.407064 C12.243524,13.078944 12.220087,12.590654 12.114618,12.274264 C11.985708,11.895354 11.313838,10.891464 10.860718,10.879764 C11.020878,11.305544 10.653688,11.114144 10.571658,11.368044 C10.481814,11.645384 10.497439,12.313354 10.817748,12.223514 C10.602908,12.731324 10.942748,13.250814 10.919308,13.309414 C10.907589,13.336758 10.92712,13.461754 10.946652,13.465664 C10.813842,13.309414 10.743522,13.000824 10.602902,12.910974 C10.587276,13.149254 10.345092,13.270354 10.391962,13.524254 C10.306024,13.340664 10.32165,13.168784 10.44665,13.008624 C9.87243,13.567214 9.66149,12.090654 9.16545,12.028154 C9.184981,12.270344 9.149824,12.508624 9.06389,12.739094 C9.21623,12.493004 9.60686,13.137534 9.5717,13.285974 C9.46623,13.121914 9.33342,13.090664 9.16545,13.188318 C9.263106,13.332848 9.28654,13.489098 9.235762,13.653158 C9.423262,13.735189 9.509202,13.875818 9.497482,14.082848 C9.485763,13.965658 9.427169,13.875818 9.325602,13.813318 C9.302164,13.860193 9.282633,13.910974 9.259196,13.957848 C9.134196,13.832848 8.950606,13.149258 8.735756,13.145348 C8.399816,13.137536 8.517006,13.614098 8.665444,13.778158 C8.368564,13.606278 8.239664,13.852376 8.255284,14.114098 C8.474034,13.957848 8.985754,14.891438 9.270884,14.942218 C9.649794,15.012531 9.419324,14.938312 9.622444,14.762528 C9.583381,14.797684 9.763064,14.254718 9.774784,14.219558 C9.880254,14.364088 9.903694,14.516438 9.845097,14.684398 C9.958377,14.586742 10.032597,14.465648 10.059937,14.317208 C10.114624,14.551588 10.173217,14.785958 10.235717,15.016428 C10.376337,14.977365 10.497437,14.903148 10.598997,14.797678 C10.497437,15.086738 10.911497,15.387518 11.138057,15.457838 C10.802117,15.520338 10.684937,15.114088 10.423217,15.008618 C10.329467,15.305498 10.024777,15.313308 10.239627,15.785958 C10.356817,16.043768 10.759157,16.434398 10.938847,16.004708 C10.899784,16.258618 10.575567,16.391428 10.833377,16.645328 C10.997437,16.805488 11.223997,16.485168 11.306037,16.621891 C11.356819,16.700016 11.106817,16.961731 11.059947,17.004701 C11.274787,16.965639 12.079447,16.989076 12.001357,16.590641 C12.337297,16.817201 12.239637,17.227361 12.493547,17.383611 C12.688857,17.055491 12.931047,16.672671 12.782607,16.274211 C13.130267,16.793741 13.321667,17.059371 13.958407,16.703901 C13.532627,17.293741 12.517007,17.567181 12.892007,18.571101 C13.579507,18.395321 14.263107,17.567201 14.173207,16.836701 C14.778677,17.422641 15.524807,15.547601 14.622427,15.883571 C14.888047,15.699981 14.095087,15.922634 13.931017,16.063261 C13.872424,16.121855 13.177107,15.879671 12.997427,15.707791 M12.985708,23.363991 C12.755238,22.774151 12.278678,22.531961 11.727909,22.805401 C11.751345,22.840557 11.778689,22.875713 11.802126,22.910871 C11.751345,22.856184 11.688846,22.824934 11.618536,22.817121 C11.641974,22.906965 11.665412,23.000711 11.688849,23.090561 C11.489629,23.059311 11.274789,23.203841 11.052129,23.106186 C11.024785,23.262436 11.091192,23.481186 11.298219,23.438216 C10.653689,23.891336 11.579469,24.102276 11.915409,24.254626 C12.106819,24.34447 12.188849,24.508536 12.399779,24.516346 C12.520869,24.520252 12.895869,24.219466 12.993529,24.356186 C13.083373,24.481186 12.016969,25.074936 11.934929,25.223376 C11.536489,25.942126 12.348989,25.903066 12.602899,25.645256 C12.720089,25.485096 12.876339,25.414786 13.075559,25.426506 C12.864619,25.559316 12.895869,25.750726 12.540399,25.914786 C12.223989,26.063226 11.806019,26.067126 11.473999,25.985099 C11.52478,26.278069 11.579469,26.324939 11.243529,26.192129 C11.298217,26.164785 11.294311,26.203848 11.372439,26.192129 C11.352908,25.867909 10.739629,25.891349 10.727909,26.348379 C11.329469,26.942129 11.423219,26.656969 12.173209,26.547599 C12.489619,26.500724 13.731809,25.797599 13.911509,25.953849 C13.96229,25.996818 13.591199,26.203849 13.669319,26.293689 C14.009159,26.684309 14.774819,25.781969 14.852919,25.555409 C14.634169,25.559315 14.431039,25.617909 14.243539,25.727279 C14.341196,25.613999 14.665419,25.446029 14.513069,25.238999 C14.727909,25.176499 14.770879,25.578839 14.981819,25.383529 C15.153699,25.227279 15.024787,24.996809 14.845099,25.067119 C14.872443,25.020244 14.89588,24.973369 14.923224,24.926499 C15.071664,24.918687 15.181034,25.00853 15.013068,24.770249 C14.962286,24.69603 14.474008,24.360089 14.352908,24.289779 C14.056028,24.113999 13.657598,24.141339 13.376348,23.942119 C13.177128,23.797589 13.138068,23.547589 12.985728,23.363999 M3.677128,12.093999 C3.766972,12.258059 3.888068,12.289309 4.036508,12.187749 C3.993539,12.476809 4.403698,12.551029 4.360728,12.265874 C4.505258,12.433844 4.770888,12.617434 5.001348,12.629154 C4.954473,12.636967 4.907598,12.640873 4.860728,12.648686 C4.919322,12.707279 5.497448,13.554936 5.571668,13.070556 C5.645886,13.101806 5.700578,13.12915 5.770888,13.156494 C5.735732,13.121338 5.692763,13.0979 5.634168,13.051024 C5.747448,13.101805 5.954478,13.136962 6.126358,13.097899 L5.977918,13.097899 C6.606828,12.730709 5.634168,12.750239 5.649788,12.527589 C5.938848,12.664309 6.345098,12.523683 6.372448,12.172119 C6.278698,12.203369 6.016978,12.230713 5.927138,12.187744 C6.188858,12.070554 5.903701,12.082274 6.083388,11.976804 C5.669328,11.914304 5.958388,11.808834 5.692768,11.668214 C6.145888,11.523684 5.899798,11.847904 6.278708,11.730714 C6.130268,11.82837 6.161518,11.926024 6.380268,12.031494 C6.599018,11.812744 6.630268,11.508054 6.263078,11.457274 C6.298234,11.488524 6.337296,11.519774 6.372458,11.551024 C6.110738,11.617431 6.024798,11.574462 5.821678,11.476805 C6.349018,11.488524 5.813865,11.117435 5.880271,11.047115 C5.782615,11.011959 5.040431,11.476805 5.509181,11.488525 C5.391991,11.484619 5.309961,11.539306 5.263091,11.644775 C5.220122,11.527585 5.134181,11.472895 5.009181,11.480715 C5.118551,11.359625 5.149801,11.218995 5.095118,11.062745 C4.934958,11.261965 4.692778,11.457275 4.684958,11.738525 C4.442768,11.617435 4.313868,11.343995 4.020898,11.535405 C3.841208,11.648685 3.966211,11.972905 3.806058,12.086185 C3.727934,11.906495 3.759184,12.074466 3.677128,12.093997 M4.239648,16.121297 C4.934958,16.468957 4.16543,17.613497 5.282648,17.629097 C6.216238,17.640816 5.188898,17.261907 4.806088,17.078317 C4.88812,17.11738 5.317808,17.152536 5.091248,16.988473 C5.411558,17.316593 5.388128,16.797063 5.317808,16.601753 C5.220152,16.332223 4.833428,16.261913 4.809998,16.082223 C4.950618,16.390813 5.384218,16.168161 5.505308,16.043161 C5.962338,15.578321 5.548277,15.386911 5.239688,15.062691 C5.423278,15.164251 5.583438,15.109566 5.661568,14.914251 C5.563912,14.980658 5.470158,14.984564 5.372508,14.922064 C5.431101,14.92597 5.489698,14.92597 5.548288,14.92597 C5.517038,14.836127 5.267038,14.65644 5.173288,14.62519 C5.2436,14.636909 5.310008,14.648628 5.380318,14.65644 C5.259228,14.09003 4.524848,14.42206 4.435008,14.77753 C4.325628,15.18378 4.911568,15.91813 4.239698,16.12133 M21.466698,57.93333 C21.790918,58.30833 22.138578,58.73411 22.333888,59.19113 C22.447168,59.07004 22.568268,58.95675 22.689358,58.84347 C22.564358,59.00363 22.501858,59.19113 22.497948,59.39425 C22.693258,59.304407 22.869038,59.335657 23.025288,59.484094 C22.98232,59.398157 22.915918,59.261434 23.181538,59.171594 C23.369038,59.011434 23.552628,58.843474 23.724508,58.667684 C24.079978,58.320024 24.408098,57.948934 24.775308,57.616884 C24.415938,57.538758 24.099528,57.757504 23.748008,57.773134 C23.794883,57.530944 23.626918,56.890324 23.251918,57.066104 C23.736298,56.503604 22.533168,56.464544 22.232418,56.519224 C22.017578,56.562193 21.818358,56.605162 21.673828,56.784844 C21.568358,56.917654 21.369138,57.710624 21.728516,57.691094 C21.638672,57.769219 21.552736,57.851254 21.466796,57.933284 M9.837796,32.976284 C10.181546,33.636444 10.857296,31.859084 11.368996,31.995814 C10.919776,31.874724 11.224466,33.156014 11.224466,33.195014 C11.243997,33.691104 10.665876,34.405914 11.552586,33.976264 C11.759616,33.874704 12.036966,33.702824 12.243996,33.585644 C12.482276,33.448924 12.802586,33.175484 12.829936,32.952834 C12.865092,32.671584 12.595556,32.109084 12.525246,31.820034 C12.404156,31.331754 12.294776,30.847374 12.247906,30.343434 C11.923686,30.37859 11.501816,30.714524 11.310406,30.956714 C11.236187,31.050464 10.982286,31.573904 10.951026,31.577804 C10.94712,31.323894 10.970557,31.073894 11.021338,30.827804 C10.587748,31.081714 10.224458,31.312184 10.095558,31.816084 C9.993998,32.230144 10.197118,32.628584 9.837748,32.976284 M12.997948,29.784884 C12.982323,29.847384 12.966698,29.909884 12.947167,29.972384 C13.326077,29.991916 13.599507,30.034884 13.869037,29.792694 C13.833881,30.195034 13.329977,30.050504 13.079977,30.155974 C12.650287,30.339564 12.322167,30.816134 12.423727,31.296574 C12.517477,31.749694 12.919817,32.023134 13.263567,31.652044 C13.404187,31.499704 13.302629,31.253604 13.419817,31.085634 C13.505754,30.960634 13.669817,31.062196 13.704977,30.855164 C13.697165,30.898133 13.689352,30.941101 13.681539,30.984074 C13.829979,30.398134 15.064339,28.898174 14.783139,28.347374 C14.497979,27.788784 13.236239,29.480174 12.997939,29.784874 M20.224529,50.018874 C20.247977,50.026687 21.290939,49.557934 21.216729,50.096999 C21.372979,50.018874 21.400319,49.761059 21.572199,49.585279 C21.888609,49.268869 22.255789,49.104809 22.544859,48.718089 C22.790949,48.386059 23.103449,47.913399 23.044859,47.483689 C23.03314,47.389939 22.755799,47.307909 22.728449,47.202439 C22.642511,46.897749 22.880789,46.659469 22.833919,46.358689 C21.900329,46.741499 21.595619,47.194629 21.091719,48.061789 C20.783129,48.593039 20.673749,49.624289 20.224529,50.018789 M39.513529,83.479789 C39.974469,83.464164 40.294779,83.589169 40.665829,83.843069 C40.908019,84.007129 41.095519,84.280569 41.423639,84.257129 C41.829889,84.225879 41.720519,84.022759 41.947079,83.811819 C42.060359,83.702439 42.556449,83.389939 42.595519,83.257129 C42.591613,83.245411 42.333799,82.929009 42.259579,82.897759 C42.103329,82.835259 41.822079,82.764949 41.669739,82.882133 C41.724426,82.686823 41.329899,82.370413 41.279119,82.690723 C41.220525,82.296193 40.689279,82.854783 40.552559,82.893843 C40.618965,82.925093 40.681469,82.96025 40.747869,82.9915 C40.493959,82.948531 40.642399,82.975874 40.466619,83.061812 C40.490056,83.003218 40.5174,82.948532 40.540838,82.889932 C40.325998,82.925088 40.001778,82.995402 39.986148,83.272742 C39.990054,82.878212 39.615058,83.421182 39.513488,83.479772 M4.497488,13.631772 C4.817798,14.237242 4.872488,14.080992 5.458428,14.346612 C5.376397,14.268487 5.282648,14.213802 5.173268,14.186452 C5.559988,14.440362 5.653738,14.061452 5.778738,14.088796 C5.727957,13.975516 5.638118,13.924736 5.513118,13.924736 C5.544368,13.975517 5.587336,13.998955 5.649838,14.002861 C4.958428,13.932549 5.415468,13.995049 5.395928,13.764581 C5.419366,13.827081 5.458428,13.850518 5.520928,13.834894 C5.50921,13.788018 5.497488,13.74505 5.485772,13.698174 C5.567803,13.760674 5.520928,13.846614 5.677182,13.838794 C5.642026,13.799731 5.595151,13.776294 5.540462,13.768481 C5.58343,13.659101 5.657652,13.635671 5.770932,13.694262 C5.630312,13.588792 5.458432,13.393482 5.485772,13.651294 C5.173272,13.342704 4.817802,13.303634 4.497488,13.631762 M6.993592,24.221762 C7.110782,24.397542 7.142032,24.588952 7.083436,24.792072 C7.243596,24.686602 7.509216,24.784259 7.677186,24.702228 C7.575626,24.753009 7.856876,24.370198 7.841246,24.385818 C7.974056,24.210038 8.903746,23.889728 8.446716,23.655348 C8.204526,24.237378 7.341216,23.749098 6.993616,24.221758 M3.888116,18.795958 C3.880303,18.733458 3.513116,19.545958 3.876397,19.397518 C3.931084,19.377986 4.731867,19.299861 4.458427,18.897518 C4.532646,18.991268 4.622487,19.006888 4.727957,18.952205 C4.704519,18.924861 4.438897,18.803765 4.442797,18.760795 C4.454516,18.600635 4.474047,18.862355 4.454516,18.68267 L4.610766,18.760795 C4.446706,18.663138 4.489676,18.112355 4.239676,18.155325 C4.376396,18.467825 4.099056,18.674855 3.809986,18.643605 C3.899829,18.655324 3.927176,18.710012 3.888111,18.795945 M8.71621,23.440445 C8.763086,23.491227 8.806054,23.542005 8.852931,23.588885 C8.942774,23.272475 9.161521,23.577166 9.224021,23.272475 C9.149802,23.530285 9.860741,23.194349 9.829491,22.850595 C9.981831,23.053725 10.645901,22.065435 9.77871,22.307625 C9.32168,22.432625 9.05996,23.155285 8.71621,23.440425 M16.60681,33.807425 C16.88415,34.420705 16.84119,35.522225 17.66151,35.698025 C18.08729,35.787868 18.58729,35.522245 18.5326,35.045685 C18.513069,34.869905 18.27869,34.846465 18.25135,34.686305 C18.235725,34.612086 18.47791,34.459745 18.49744,34.494895 C18.399783,34.307395 18.25525,34.186305 18.05213,34.127705 C18.5951,33.748795 16.92713,31.537905 16.60683,33.807395 M20.78263,57.670395 C20.852943,57.838365 21.59122,58.299305 21.67325,58.271955 C21.50528,58.123515 21.19669,56.998555 20.78263,57.670395 M17.66153,30.744395 C17.731843,31.013925 18.017,31.033455 18.13028,31.256115 C18.27872,31.537365 18.29044,31.802995 18.2709,32.127205 C18.64981,31.947515 18.54434,32.650645 18.84512,32.631115 C19.08731,32.615491 18.95059,31.791275 18.880276,31.650645 C18.751366,31.396735 17.938866,30.095945 17.661476,30.744395 M11.571596,18.795435 C11.49347,18.744654 11.419256,18.697779 11.341126,18.646995 C11.712216,18.506365 10.462216,17.721215 10.345036,18.701682 C10.231756,19.623562 11.325506,19.514182 11.571636,18.795432 M12.997432,14.908432 C13.141962,14.588122 12.794312,14.209212 12.856812,13.877232 C12.903687,13.631142 13.349002,13.416292 13.013062,13.166292 C13.016968,13.357702 12.794312,13.482702 12.891972,13.678012 C11.864672,13.439732 12.716192,15.525712 12.997442,14.908512 M3.528842,19.517812 C3.599154,19.54125 3.630402,19.592031 3.720252,19.592031 C3.669471,19.642812 3.673377,19.646719 3.599162,19.66625 C3.700722,19.85375 3.856972,19.79906 3.954632,19.642812 C3.896038,19.646719 3.837442,19.650625 3.778852,19.658437 C3.907762,19.580312 3.814008,19.564687 4.048382,19.564687 C3.97807,19.467031 3.661662,19.357657 3.548382,19.353747 C3.54057,19.408434 3.532757,19.463127 3.528851,19.517807 M6.989851,8.876798 C7.337511,8.177578 6.357041,8.728358 6.540631,9.009608 C6.661721,8.814298 6.782821,8.790858 6.989851,8.876798 M11.739854,20.013508 C11.974234,20.298668 12.462514,20.052571 12.314074,19.689288 C12.157824,19.310378 11.720324,19.755694 11.739854,20.013508 M5.740154,13.342301 C5.833904,13.377457 5.861244,13.443861 5.818279,13.529801 C6.009689,13.518082 6.044839,13.186051 5.822186,13.197771 C5.915936,13.584491 5.841717,13.006361 5.740154,13.342301 M5.330054,13.248798 C5.369116,13.346454 5.654274,13.530048 5.779274,13.498798 C5.615214,13.108178 5.650364,13.205828 5.330054,13.248798 M11.458924,17.174598 C11.642514,17.424598 11.779234,17.377718 11.747984,17.127723 C12.107364,16.991003 11.654234,16.901163 11.458924,17.174598 M13.623024,21.115998 C13.779274,21.194122 13.939434,21.201935 14.103494,21.135529 C13.966774,20.998809 13.748024,20.905059 13.623024,21.115998 M12.998024,15.5965 C13.181614,15.88556 13.599584,15.62775 13.396464,15.32697 C13.205054,15.04181 12.677714,15.276189 12.998024,15.5965" id="Shape" fill="#D8D8E2" fill-rule="nonzero"></path>
            <circle id="Oval" fill="#63ADEC" cx="49" cy="74" r="4"></circle>
            <path d="M16.413937,45.656323 C15.699097,45.332103 16.187377,44.257923 15.624877,43.796923 C15.085817,43.351613 13.902177,43.746142 13.628777,44.347703 C13.675652,44.183643 13.648308,44.171923 13.54284,44.316453 C13.550652,44.289109 13.624871,44.070363 13.538934,44.261766 C13.714714,44.128956 13.531121,44.015676 13.777214,43.695356 C14.093624,43.273486 14.812414,43.148486 14.812414,42.519556 C14.812414,42.359396 14.581944,41.761746 14.371004,41.757836 C14.031164,41.75393 14.667884,42.578146 14.648344,42.660176 C13.992094,41.886736 13.609244,41.312476 13.249944,40.523476 C13.171819,40.351596 13.187444,40.058636 13.105414,39.910196 C13.066351,39.839884 12.835884,39.710976 12.831974,39.707076 C12.671814,39.386766 12.808537,39.136766 12.74213,38.742236 C12.60541,37.910206 11.69133,37.867236 10.99603,37.835986 C9.95303,37.78911 9.32413,38.289106 8.37493,38.539106 C8.425711,38.554732 8.47649,38.56645 8.52727,38.582075 C8.07805,38.476605 7.59368,38.488325 7.18747,38.242235 C7.210907,38.418015 6.86716,39.101605 7.12497,39.183645 C6.72653,39.089895 6.49997,39.793025 6.12888,39.800835 C5.9531,39.804742 5.7031,39.660215 5.5156,39.730523 C4.0937,40.300833 4.64841,42.332123 3.3789,42.992223 C2.92578,43.226593 1.8984,42.933629 1.5898,43.355503 C1.19527,43.898473 2.26168,44.582103 2.7031,44.199253 C2.90232,44.707063 0.3789,45.878953 0,45.929753 C0.21484,46.418033 0.66406,46.683663 1.0039,47.066453 C1.34374,47.445363 1.48437,48.078153 1.89452,48.378953 C2.18749,48.593793 2.6289,48.683643 2.94922,48.878953 C3.57422,49.261763 3.84766,49.253953 4.55082,49.027393 C4.593789,49.132863 4.562539,49.199273 4.44926,49.230513 C6.10546,49.320356 5.64846,47.882813 6.29696,46.937513 C7.23055,45.574213 7.88676,47.953113 8.39466,48.492213 C8.57044,48.679713 8.7931,48.792993 8.93763,49.011743 C9.06654,49.207053 9.07825,49.472683 9.19935,49.656273 C9.46888,50.058613 9.63685,50.078153 10.14857,49.988303 C10.51966,49.921897 10.87123,49.687523 11.23057,49.632833 C11.55088,49.582052 12.23057,49.789083 12.53527,50.121113 C12.47277,50.156269 12.40636,50.187519 12.34386,50.222673 C13.37906,51.335973 13.78526,48.093773 14.10556,47.749973 C14.125091,47.871063 14.086028,47.964813 13.98447,48.035133 C14.19931,48.339823 15.03137,47.804663 15.03137,48.355443 C15.26184,47.914033 15.71106,47.812473 15.71887,47.253843 C15.730589,46.449153 15.32825,47.027283 14.90637,46.831963 C15.23059,46.695243 15.25403,46.175713 15.23059,45.878843 C15.203246,45.726503 14.96497,45.558533 15.01965,45.429623 C15.000119,45.456966 15.26574,45.464779 15.29699,45.433529 C15.07824,45.445247 14.83605,45.218689 14.6759,45.097589 C14.99231,44.843679 15.56262,44.605399 15.49231,45.257749 C15.672,45.038999 15.98059,45.824159 15.64465,45.945249 C16.03918,46.042906 15.586056,46.144469 15.605588,46.316339 C15.640744,46.671809 15.711058,46.964779 15.972778,47.249929 C16.250118,46.855399 16.375118,46.121029 16.304808,45.648329 C16.316527,45.738172 16.429808,45.687391 16.414188,45.656141 L16.413937,45.656323 Z" id="Path" fill="#D8D8E2" fill-rule="nonzero"></path>
        </g>
    </g>
</svg>