<svg xmlns="http://www.w3.org/2000/svg" viewBox="0 0 973.93 246.14"><defs><style>.cls-1{fill:#fff;}.cls-2{fill:#63adec;}.cls-3{fill:red;}.cls-4{fill:#0a66c2;}.cls-5{fill:#1d9bf0;}</style></defs><g id="Layer_2" data-name="Layer 2"><g id="Layer_1-2" data-name="Layer 1"><path class="cls-1" d="M340.47,222.15h0a23.28,23.28,0,0,1-23.28,23.28H235.1a23.28,23.28,0,0,1-23.28-23.28h0a23.28,23.28,0,0,1,23.28-23.28h82.09A23.28,23.28,0,0,1,340.47,222.15Z"/><path class="cls-1" d="M340.47,94.25h0a23.28,23.28,0,0,1-23.28,23.28H235.1a23.28,23.28,0,0,1-23.28-23.28h0A23.28,23.28,0,0,1,235.1,71h82.09A23.28,23.28,0,0,1,340.47,94.25Z"/><path class="cls-1" d="M315.05,158.2h0a23.28,23.28,0,0,1-23.28,23.28H235.1a23.28,23.28,0,0,1-23.28-23.28h0a23.28,23.28,0,0,1,23.28-23.28h56.67A23.28,23.28,0,0,1,315.05,158.2Z"/><path class="cls-1" d="M166.16,71h0a25.16,25.16,0,0,0-33.82,11h0L89.73,165.65,47.55,82.88a25.14,25.14,0,1,0-44.8,22.83h0L67.29,232.39a25.14,25.14,0,0,0,33.8,11h0a25.06,25.06,0,0,0,9.43-8.33,26.68,26.68,0,0,0,1.79-3l64.82-127.21a25.16,25.16,0,0,0-11-33.84Z"/><path class="cls-1" d="M781.09,159.89l45-45a23.58,23.58,0,0,0-33.35-33.35l-45,45-45-45a23.58,23.58,0,0,0-33.35,0h0a23.59,23.59,0,0,0,0,33.35h0l45,45-45,45a23.59,23.59,0,0,0,0,33.35h0a23.57,23.57,0,0,0,33.34,0h0l45-45,45,45a23.58,23.58,0,0,0,33.35-33.35Z"/><path class="cls-2" d="M557.1,245.06a88.45,88.45,0,1,1,62.73-25.91h0A88.08,88.08,0,0,1,557.1,245.06Zm0-134.67A46,46,0,1,0,589.71,189h0a46,46,0,0,0-32.61-78.64Z"/><path class="cls-2" d="M427.4,6a23.5,23.5,0,0,0-15.67-6H365a23.59,23.59,0,0,0,0,47.17h22.58V220.41a24.3,24.3,0,0,0,24.3,24.32h.17a24.31,24.31,0,0,0,24.31-24.31h0V24.84A24.28,24.28,0,0,0,427.4,6Z"/><path class="cls-3" d="M971.84,185.08a12.51,12.51,0,0,0-8.84-8.84c-7.8-2.09-39.07-2.09-39.07-2.09s-31.27,0-39.07,2.09a12.53,12.53,0,0,0-8.84,8.84c-2.09,7.8-2.09,24.07-2.09,24.07s0,16.27,2.09,24.07a12.53,12.53,0,0,0,8.84,8.84c7.8,2.09,39.07,2.09,39.07,2.09s31.27,0,39.07-2.09a12.51,12.51,0,0,0,8.84-8.84c2.09-7.8,2.09-24.07,2.09-24.07S973.93,192.88,971.84,185.08Z"/><polygon class="cls-1" points="913.93 224.15 939.91 209.15 913.93 194.15 913.93 224.15"/><path id="Path_2520" data-name="Path 2520" class="cls-4" d="M948.3,147H937.93V130.77c0-3.88-.07-8.86-5.4-8.86s-6.22,4.22-6.22,8.57V147H915.93v-33.4h10v4.56H926a10.92,10.92,0,0,1,9.83-5.39c10.51,0,12.45,6.91,12.45,15.91Zm-44.07-38a6,6,0,1,1,6-6,6,6,0,0,1-6,6h0m5.19,38H899v-33.4h10.39Zm44.05-59.64H893.82a5.1,5.1,0,0,0-5.16,5v59.89a5.1,5.1,0,0,0,5.16,5.05h59.65a5.12,5.12,0,0,0,5.19-5.05V92.41a5.12,5.12,0,0,0-5.19-5"/><g id="Logo"><path id="white_background" data-name="white background" class="cls-5" d="M959.18,19c.05.76.05,1.52.05,2.28,0,23.36-17.78,50.29-50.29,50.29h0a50,50,0,0,1-27.09-7.93,37,37,0,0,0,4.21.26,35.57,35.57,0,0,0,22-7.58A17.69,17.69,0,0,1,891.5,44a17.64,17.64,0,0,0,8-.3A17.68,17.68,0,0,1,885.3,26.37v-.23a17.48,17.48,0,0,0,8,2.21,17.69,17.69,0,0,1-5.47-23.6,50.13,50.13,0,0,0,36.42,18.47A17.69,17.69,0,0,1,954.39,7.1a35.4,35.4,0,0,0,11.23-4.29,17.74,17.74,0,0,1-7.77,9.77A35.19,35.19,0,0,0,968,9.8,36.07,36.07,0,0,1,959.18,19Z"/></g></g></g></svg>